Chapakala19-staging.glyphspackage
{
glyphname = quotedbl;
layers = (
{
layerId = m01;
shapes = (
{
closed = 1;
nodes = (
(68,785,o),
(68,767,qs),
(68,761,o),
(70,726,o),
(72,680,o),
(77,628,o),
(80,582,o),
(83,546,o),
(84,541,qs),
(85,532,o),
(86,516,o),
(91,502,o),
(102,494,o),
(114,494,qs),
(127,494,o),
(139,501,o),
(144,514,o),
(145,530,o),
(146,539,qs),
(147,545,o),
(150,580,o),
(153,627,o),
(156,678,o),
(159,725,o),
(161,761,o),
(161,767,qs),
(161,788,o),
(141,815,o),
(114,815,qs),
(87,815,o)
);
},
{
closed = 1;
nodes = (
(276,785,o),
(276,767,qs),
(276,759,o),
(280,692,o),
(285,616,o),
(290,549,o),
(291,541,qs),
(292,532,o),
(293,516,o),
(299,502,o),
(310,494,o),
(322,494,qs),
(334,494,o),
(347,501,o),
(351,514,o),
(352,530,o),
(353,539,qs),
(354,545,o),
(357,580,o),
(361,627,o),
(364,678,o),
(367,725,o),
(369,761,o),
(369,767,qs),
(369,788,o),
(349,815,o),
(322,815,qs),
(295,815,o)
);
}
);
userData = {
assembly = "SVTCA[0]	/* SetFreedomAndProjectionVectorToAxis */
PUSHW[ ]	/* 1 value pushed */
0
MDAP[1]	/* MoveDirectAbsPt */
PUSHW[ ]	/* 1 value pushed */
30
MDAP[1]	/* MoveDirectAbsPt */
IUP[0]	/* InterpolateUntPts */
IUP[1]	/* InterpolateUntPts */";
};
width = 431;
}
);
note = quotedbl;
unicode = 34;
}
{
glyphname = plus;
layers = (
{
layerId = m01;
shapes = (
{
closed = 1;
nodes = (
(328,0,l),
(394,0,l),
(394,271,l),
(667,271,l),
(667,337,l),
(394,337,l),
(394,610,l),
(328,610,l),
(328,337,l),
(57,337,l),
(57,271,l),
(328,271,l)
);
}
);
width = 672;
}
);
note = plus;
unicode = 43;
}
{
glyphname = semicolon;
layers = (
{
layerId = m01;
shapes = (
{
closed = 1;
nodes = (
(108,-187,o),
(157,-140,o),
(198,-82,o),
(223,-20,o),
(223,6,qs),
(223,26,o),
(214,67,o),
(194,99,o),
(162,118,o),
(139,118,qs),
(107,118,o),
(72,82,o),
(72,51,qs),
(72,26,o),
(103,-14,o),
(130,-14,qs),
(138,-14,o),
(154,-8,o),
(162,-8,qs),
(170,-8,o),
(172,-21,o),
(172,-26,qs),
(172,-48,o),
(151,-89,o),
(119,-127,o),
(84,-158,o),
(69,-168,q),
(85,-196,l)
);
},
{
closed = 1;
nodes = (
(117,401,o),
(145,401,qs),
(173,401,o),
(212,440,o),
(212,468,qs),
(212,497,o),
(173,537,o),
(145,537,qs),
(116,537,o),
(77,496,o),
(77,468,qs),
(77,440,o)
);
}
);
userData = {
assembly = "PUSHW[ ]	/* 4 values pushed */
22 4 5 4
CALL[ ]	/* CallFunction */
NPUSHW[ ]	/* 3 values pushed */
250 5 1
DELTAP1[ ]	/* DeltaExceptionP1 */
NPUSHW[ ]	/* 3 values pushed */
10 5 1
DELTAP2[ ]	/* DeltaExceptionP2 */
NPUSHW[ ]	/* 31 values pushed */
9 5 25 5 41 5 57 5 73 5 89 5 105 5 121 5 137 5 153 5 169 5 185 5 201 5 217 5 233 5 15
DELTAP1[ ]	/* DeltaExceptionP1 */
SVTCA[0]	/* SetFreedomAndProjectionVectorToAxis */
PUSHW[ ]	/* 1 value pushed */
0
RCVT[ ]	/* ReadCVT */
IF[ ]	/* If */
PUSHW[ ]	/* 1 value pushed */
8
MDAP[1]	/* MoveDirectAbsPt */
ELSE[ ]	/* Else */
PUSHW[ ]	/* 2 values pushed */
8 6
MIAP[0]	/* MoveIndirectAbsPt */
EIF[ ]	/* EndIf */
PUSHW[ ]	/* 1 value pushed */
0
RCVT[ ]	/* ReadCVT */
IF[ ]	/* If */
PUSHW[ ]	/* 1 value pushed */
11
MDAP[1]	/* MoveDirectAbsPt */
ELSE[ ]	/* Else */
PUSHW[ ]	/* 2 values pushed */
11 6
MIAP[0]	/* MoveIndirectAbsPt */
EIF[ ]	/* EndIf */
IUP[0]	/* InterpolateUntPts */
IUP[1]	/* InterpolateUntPts */";
};
width = 309;
}
);
note = semicolon;
unicode = 59;
}
{
glyphname = D;
layers = (
{
layerId = m01;
shapes = (
{
closed = 1;
nodes = (
(34,0,l),
(450,0,ls),
(539,0,o),
(670,66,o),
(757,178,o),
(800,325,o),
(800,406,qs),
(800,462,o),
(777,575,o),
(726,676,o),
(648,758,o),
(594,783,qs),
(574,792,o),
(527,805,o),
(505,805,qs),
(34,805,l),
(34,779,l),
(117,779,ls),
(124,779,o),
(137,771,o),
(150,760,o),
(158,746,o),
(158,740,qs),
(158,66,ls),
(158,54,o),
(132,30,o),
(123,30,qs),
(34,30,l)
);
},
{
closed = 1;
nodes = (
(487,777,o),
(562,742,o),
(615,682,o),
(649,605,o),
(669,520,o),
(676,432,o),
(676,393,qs),
(676,334,o),
(665,232,o),
(631,146,o),
(564,74,o),
(510,48,qs),
(496,42,o),
(457,31,o),
(442,31,qs),
(310,31,ls),
(305,31,o),
(291,38,o),
(278,48,o),
(268,60,o),
(268,66,qs),
(268,744,ls),
(268,751,o),
(279,764,o),
(293,771,o),
(309,777,o),
(314,777,qs),
(437,777,ls)
);
}
);
width = 866;
}
);
note = D;
unicode = 68;
}
{
glyphname = I;
layers = (
{
layerId = m01;
shapes = (
{
closed = 1;
nodes = (
(43,0,l),
(407,0,l),
(407,30,l),
(318,30,ls),
(298,30,o),
(277,58,o),
(277,73,qs),
(277,721,ls),
(277,741,o),
(290,765,o),
(310,777,o),
(335,780,o),
(347,780,qs),
(407,780,l),
(407,804,l),
(43,804,l),
(43,780,l),
(112,780,ls),
(136,780,o),
(171,761,o),
(171,721,qs),
(171,73,ls),
(171,59,o),
(149,30,o),
(132,30,qs),
(43,30,l)
);
}
);
width = 447;
}
);
note = I;
unicode = 73;
}
{
glyphname = Z;
layers = (
{
layerId = m01;
shapes = (
{
closed = 1;
nodes = (
(26,0,l),
(603,0,l),
(617,292,l),
(593,292,l),
(581,248,o),
(549,156,o),
(499,81,o),
(424,32,o),
(367,32,qs),
(141,32,l),
(611,764,l),
(611,804,l),
(67,804,l),
(50,534,l),
(77,534,l),
(90,583,o),
(118,671,o),
(166,737,o),
(240,776,o),
(299,776,qs),
(493,773,l),
(26,37,l)
);
}
);
width = 678;
}
);
note = Z;
unicode = 90;
}
{
glyphname = underscore;
layers = (
{
layerId = m01;
shapes = (
{
closed = 1;
nodes = (
(0,-183,l),
(584,-183,l),
(584,-128,l),
(0,-128,l)
);
}
);
userData = {
assembly = "SVTCA[0]	/* SetFreedomAndProjectionVectorToAxis */
PUSHW[ ]	/* 4 values pushed */
0 1 1 4
CALL[ ]	/* CallFunction */
IUP[0]	/* InterpolateUntPts */
IUP[1]	/* InterpolateUntPts */";
};
width = 555;
}
);
note = underscore;
unicode = 95;
}
{
glyphname = s;
layers = (
{
layerId = m01;
shapes = (
{
closed = 1;
nodes = (
(141,25,ls),
(174,8,o),
(237,-17,o),
(274,-17,qs),
(305,-17,o),
(364,0,o),
(414,32,o),
(452,81,o),
(460,111,q),
(463,131,o),
(463,150,qs),
(463,192,o),
(428,244,o),
(371,277,o),
(301,295,o),
(266,302,qs),
(236,308,o),
(179,321,o),
(135,343,o),
(109,376,o),
(108,402,qs),
(108,428,o),
(129,462,o),
(162,484,o),
(205,495,o),
(226,495,qs),
(261,495,o),
(316,473,o),
(359,433,o),
(391,380,o),
(400,349,q),
(431,349,l),
(416,523,l),
(403,523,l),
(361,485,l),
(329,504,o),
(267,532,o),
(232,532,qs),
(198,532,o),
(135,508,o),
(87,465,o),
(59,406,o),
(59,370,qs),
(59,324,o),
(100,267,o),
(165,232,o),
(244,211,o),
(283,204,qs),
(313,200,o),
(342,193,qs),
(370,185,o),
(407,142,o),
(407,113,qs),
(407,86,o),
(383,49,o),
(345,26,o),
(298,16,o),
(276,16,qs),
(235,16,o),
(174,43,o),
(127,89,o),
(94,149,o),
(80,184,q),
(51,184,l),
(63,-13,l),
(81,-13,l),
(126,34,l)
);
}
);
userData = {
assembly = "PUSHW[ ]	/* 4 values pushed */
45 4 1 4
CALL[ ]	/* CallFunction */
PUSHW[ ]	/* 1 value pushed */
1
SRP0[ ]	/* SetRefPoint0 */
PUSHW[ ]	/* 1 value pushed */
23
MDRP[10000]	/* MoveDirectRelPt */
PUSHW[ ]	/* 1 value pushed */
23
MDAP[1]	/* MoveDirectAbsPt */
SVTCA[0]	/* SetFreedomAndProjectionVectorToAxis */
PUSHW[ ]	/* 1 value pushed */
0
RCVT[ ]	/* ReadCVT */
IF[ ]	/* If */
PUSHW[ ]	/* 1 value pushed */
0
MDAP[1]	/* MoveDirectAbsPt */
ELSE[ ]	/* Else */
PUSHW[ ]	/* 2 values pushed */
0 6
MIAP[0]	/* MoveIndirectAbsPt */
EIF[ ]	/* EndIf */
PUSHW[ ]	/* 1 value pushed */
0
RCVT[ ]	/* ReadCVT */
IF[ ]	/* If */
PUSHW[ ]	/* 1 value pushed */
62
MDAP[1]	/* MoveDirectAbsPt */
ELSE[ ]	/* Else */
PUSHW[ ]	/* 2 values pushed */
62 6
MIAP[0]	/* MoveIndirectAbsPt */
EIF[ ]	/* EndIf */
PUSHW[ ]	/* 2 values pushed */
8 2
MIRP[10100]	/* MoveIndirectRelPt */
NPUSHW[ ]	/* 33 values pushed */
7 8 23 8 39 8 55 8 71 8 87 8 103 8 119 8 135 8 151 8 167 8 183 8 199 8 215 8 231 8 247 8 16
DELTAP1[ ]	/* DeltaExceptionP1 */
NPUSHW[ ]	/* 33 values pushed */
7 8 23 8 39 8 55 8 71 8 87 8 103 8 119 8 135 8 151 8 167 8 183 8 199 8 215 8 231 8 247 8 16
DELTAP2[ ]	/* DeltaExceptionP2 */
NPUSHW[ ]	/* 33 values pushed */
7 8 23 8 39 8 55 8 71 8 87 8 103 8 119 8 135 8 151 8 167 8 183 8 199 8 215 8 231 8 247 8 16
DELTAP3[ ]	/* DeltaExceptionP3 */
IUP[0]	/* InterpolateUntPts */
IUP[1]	/* InterpolateUntPts */";
};
width = 512;
}
);
note = s;
unicode = 115;
}
{
glyphname = acute;
layers = (
{
layerId = m01;
shapes = (
{
closed = 1;
nodes = (
(102,588,o),
(118,589,o),
(130,589,qs),
(158,589,l),
(314,690,l),
(327,697,o),
(354,724,o),
(354,740,qs),
(354,751,o),
(333,777,o),
(314,777,qs),
(291,777,o),
(267,757,o),
(252,742,qs),
(103,589,ls)
);
}
);
width = 369;
}
);
note = acute;
unicode = 180;
}
{
glyphname = questiondown;
layers = (
{
layerId = m01;
shapes = (
{
closed = 1;
nodes = (
(256,352,o),
(252,313,o),
(242,275,o),
(226,239,o),
(213,226,qs),
(180,194,o),
(116,129,o),
(85,97,qs),
(54,69,o),
(34,-7,o),
(34,-47,qs),
(34,-89,o),
(70,-157,o),
(129,-205,o),
(204,-232,o),
(242,-232,qs),
(278,-232,o),
(351,-210,o),
(411,-168,o),
(449,-107,o),
(449,-67,qs),
(449,-36,o),
(415,15,o),
(381,15,qs),
(351,15,o),
(324,-18,o),
(324,-47,qs),
(324,-59,o),
(340,-77,o),
(348,-85,qs),
(359,-94,o),
(376,-114,o),
(376,-129,qs),
(376,-148,o),
(351,-176,o),
(316,-194,o),
(277,-202,o),
(263,-202,qs),
(231,-202,o),
(180,-175,o),
(147,-131,o),
(130,-74,o),
(130,-45,qs),
(130,7,o),
(172,87,o),
(199,127,qs),
(213,148,o),
(240,191,o),
(262,240,o),
(276,296,o),
(276,331,qs),
(276,341,o),
(276,360,o),
(274,370,q),
(256,370,l)
);
},
{
closed = 1;
nodes = (
(290,607,o),
(264,607,qs),
(237,607,o),
(201,570,o),
(201,543,qs),
(201,517,o),
(237,481,o),
(264,481,qs),
(290,481,o),
(327,517,o),
(327,543,qs),
(327,570,o)
);
}
);
userData = {
assembly = "PUSHW[ ]	/* 3 values pushed */
0 54 3
CALL[ ]	/* CallFunction */
PUSHW[ ]	/* 1 value pushed */
0
SRP0[ ]	/* SetRefPoint0 */
PUSHW[ ]	/* 1 value pushed */
3
MDRP[10000]	/* MoveDirectRelPt */
PUSHW[ ]	/* 1 value pushed */
3
MDAP[1]	/* MoveDirectAbsPt */
IUP[0]	/* InterpolateUntPts */
IUP[1]	/* InterpolateUntPts */";
};
width = 490;
}
);
note = questiondown;
unicode = 191;
}
{
glyphname = hungarumlaut;
layers = (
{
layerId = m01;
shapes = (
{
closed = 1;
nodes = (
(-9,588,o),
(7,589,o),
(19,589,qs),
(47,589,l),
(203,690,l),
(216,697,o),
(243,724,o),
(243,740,qs),
(243,751,o),
(222,777,o),
(203,777,qs),
(180,777,o),
(155,757,o),
(140,742,qs),
(-8,589,ls)
);
},
{
closed = 1;
nodes = (
(205,588,o),
(224,589,o),
(234,589,qs),
(262,589,l),
(419,690,l),
(432,697,o),
(459,724,o),
(459,740,qs),
(459,751,o),
(438,777,o),
(419,777,qs),
(396,777,o),
(370,757,o),
(355,742,qs),
(206,589,ls)
);
}
);
width = 369;
}
);
note = hungarumlaut;
unicode = 733;
}
{
glyphname = "aa-oriya";
layers = (
{
layerId = m01;
shapes = (
{
closed = 1;
nodes = (
(176,435,o),
(197,470,o),
(188,503,cs),
(178,537,o),
(143,558,o),
(109,549,cs),
(76,540,o),
(53,505,o),
(62,470,cs),
(71,437,o),
(109,417,o),
(142,426,cs)
);
},
{
closed = 1;
nodes = (
(662,271,l),
(609,288,l),
(596,257,ls),
(561,174,o),
(489,125,o),
(407,125,cs),
(311,125,o),
(233,187,o),
(207,278,c),
(207,278,o),
(207,275,o),
(207,275,c),
(206,274,l),
(531,500,l),
(534,502,ls),
(556,520,o),
(553,541,o),
(549,556,cs),
(535,618,o),
(468,660,o),
(406,660,cs),
(334,660,o),
(279,610,o),
(269,552,c),
(269,555,o),
(300,570,o),
(297,570,cs),
(294,570,o),
(326,553,o),
(325,556,cs),
(309,606,o),
(257,646,o),
(194,646,cs),
(114,646,o),
(54,586,o),
(54,515,cs),
(54,488,o),
(67,431,o),
(94,443,c),
(124,515,l),
(124,558,o),
(156,590,o),
(194,590,cs),
(219,590,o),
(247,574,o),
(258,540,c),
(337,544,l),
(344,580,o),
(373,604,o),
(406,604,cs),
(435,604,o),
(462,592,o),
(474,564,cs),
(475,562,o),
(479,549,o),
(477,542,cs),
(475,536,o),
(471,533,o),
(464,528,c),
(160,316,l),
(152,310,ls),
(133,297,o),
(134,280,o),
(139,265,cs),
(170,153,o),
(276,69,o),
(407,69,cs),
(524,69,o),
(620,140,o),
(660,235,cs),
(663,242,l)
);
},
{
pos = (553,0);
ref = "aaMatra-oriya";
},
{
pos = (685,0);
ref = "aaMatra-oriya";
}
);
width = 872;
}
);
note = or_aa;
unicode = 2822;
}
{
glyphname = "lVocalic-oriya";
layers = (
{
layerId = m01;
shapes = (
{
closed = 1;
nodes = (
(98,446,q),
(188,464,l),
(185,478,o),
(185,493,qs),
(185,528,o),
(199,558,qs),
(219,602,o),
(258,624,qs),
(278,636,o),
(296,638,qs),
(300,638,o),
(316,638,o),
(327,634,qs),
(347,626,o),
(361,608,qs),
(378,586,o),
(378,559,qs),
(378,538,o),
(358,499,o),
(340,482,qs),
(316,461,o),
(253,430,qs),
(186,398,o),
(154,376,qs),
(45,302,o),
(45,192,qs),
(45,153,o),
(60,116,qs),
(93,30,o),
(183,-12,qs),
(237,-38,o),
(294,-38,qs),
(365,-38,o),
(416,-1,qs),
(470,38,o),
(479,102,qs),
(481,114,o),
(481,125,qs),
(481,175,o),
(453,216,qs),
(431,247,o),
(394,269,qs),
(350,295,o),
(294,295,qs),
(207,295,o),
(152,237,q),
(208,183,l),
(231,207,ls),
(259,237,o),
(294,237,qs),
(313,237,o),
(335,224,qs),
(354,213,o),
(368,193,qs),
(389,163,o),
(389,125,qs),
(389,116,o),
(388,108,qs),
(381,62,o),
(346,37,qs),
(323,20,o),
(294,20,qs),
(268,20,o),
(210,47,o),
(162,98,o),
(137,160,o),
(137,192,qs),
(137,234,o),
(155,268,qs),
(176,306,o),
(222,337,qs),
(248,355,o),
(384,421,o),
(416,450,qs),
(441,473,o),
(470,529,o),
(470,559,qs),
(470,599,o),
(444,633,qs),
(419,667,o),
(375,683,qs),
(342,696,o),
(304,696,qs),
(246,696,o),
(196,667,qs),
(137,633,o),
(110,574,qs),
(93,536,o),
(93,493,qs),
(93,475,o)
);
}
);
width = 538;
}
);
note = or_lu;
unicode = 2828;
}
{
glyphname = "o-oriya";
layers = (
{
background = {
shapes = (
{
closed = 1;
nodes = (
(502,274,l),
(553,299,o),
(663,361,o),
(663,473,cs),
(663,557,o),
(605,619,o),
(490,630,cs),
(378,641,o),
(283,585,o),
(271,513,cs),
(265,473,o),
(273,433,o),
(325,398,cs),
(349,381,o),
(403,376,o),
(432,388,cs),
(458,400,l),
(431,451,l),
(404,440,ls),
(397,437,o),
(378,435,o),
(365,444,cs),
(343,459,o),
(337,479,o),
(341,505,cs),
(348,549,o),
(409,581,o),
(484,574,cs),
(559,567,o),
(593,531,o),
(593,473,cs),
(593,392,o),
(513,344,o),
(472,324,c),
(301,270,l),
(317,229,l)
);
}
);
};
backgroundImage = {
imagePath = "../../../../o.png";
pos = (-929,-378);
scale = (10.1698,10.1698);
};
layerId = m01;
shapes = (
{
closed = 1;
nodes = (
(585,880,o),
(565,855,o),
(551,846,cs),
(528,831,o),
(467,811,o),
(424,795,cs),
(180,704,o),
(60,606,o),
(60,338,cs),
(60,148,o),
(198,0,o),
(431,0,cs),
(596,0,o),
(675,99,o),
(675,195,cs),
(675,279,o),
(589,335,o),
(514,335,cs),
(486,335,l),
(486,279,l),
(514,279,ls),
(563,279,o),
(605,247,o),
(605,195,cs),
(605,123,o),
(550,56,o),
(431,56,cs),
(234,56,o),
(130,180,o),
(130,338,cs),
(130,578,o),
(226,660,o),
(448,743,cs),
(493,760,o),
(562,781,o),
(589,798,cs),
(621,819,o),
(657,857,o),
(654,903,cs),
(652,938,l),
(582,934,l),
(584,899,ls)
);
},
{
closed = 1;
nodes = (
(422,444,l),
(417,442,ls),
(398,433,o),
(374,436,o),
(361,444,cs),
(339,458,o),
(334,494,o),
(338,511,cs),
(346,551,o),
(400,579,o),
(466,579,cs),
(543,579,o),
(601,541,o),
(601,477,cs),
(601,396,o),
(537,356,o),
(469,329,cs),
(421,311,o),
(346,293,o),
(315,286,c),
(326,231,l),
(364,238,o),
(447,258,o),
(496,277,cs),
(580,310,o),
(671,364,o),
(671,477,cs),
(671,576,o),
(578,636,o),
(464,636,cs),
(367,636,o),
(283,587,o),
(269,522,cs),
(261,473,o),
(270,419,o),
(334,393,cs),
(368,378,o),
(415,377,o),
(446,398,c)
);
}
);
width = 735;
}
);
note = or_o;
unicode = 2835;
}
{
glyphname = "au-oriya";
layers = (
{
background = {
shapes = (
{
closed = 1;
nodes = (
(760,186,qs),
(735,201,o),
(725,232,qs),
(721,243,ls),
(717,260,o),
(709,277,qs),
(692,312,o),
(659,336,qs),
(638,352,o),
(613,361,q),
(663,389,o),
(688,438,qs),
(706,472,o),
(706,508,qs),
(706,542,o),
(671,605,o),
(636,628,qs),
(578,666,o),
(498,666,qs),
(436,666,o),
(382,642,qs),
(340,623,o),
(279,562,o),
(266,524,qs),
(256,495,o),
(256,466,qs),
(256,458,o),
(257,440,q),
(268,433,ls),
(306,408,o),
(355,408,qs),
(382,408,o),
(407,416,qs),
(451,431,o),
(475,465,qs),
(497,496,o),
(497,533,qs),
(497,534,o),
(497,535,q),
(409,534,l),
(409,534,o),
(409,533,qs),
(409,508,o),
(382,470,o),
(365,464,qs),
(360,463,o),
(350,463,o),
(344,465,q),
(344,465,o),
(344,466,qs),
(344,489,o),
(351,512,qs),
(362,541,o),
(406,585,o),
(464,611,o),
(498,611,qs),
(540,611,o),
(572,590,qs),
(594,576,o),
(618,533,o),
(618,481,o),
(604,455,qs),
(582,413,o),
(540,396,q),
(418,337,l),
(427,319,l),
(429,315,l),
(447,278,l),
(531,316,l),
(562,324,o),
(593,300,qs),
(613,285,o),
(638,234,o),
(638,175,o),
(628,150,qs),
(607,98,o),
(557,68,qs),
(517,45,o),
(467,45,qs),
(443,45,o),
(419,50,qs),
(343,69,o),
(280,133,qs),
(221,193,o),
(159,362,o),
(159,453,qs),
(159,626,o),
(260,770,q),
(275,769,o),
(291,769,qs),
(309,769,o),
(359,773,o),
(473,790,o),
(517,793,o),
(531,793,qs),
(595,793,o),
(693,752,o),
(771,670,o),
(796,614,qs),
(827,540,o),
(828,458,qs),
(828,200,l),
(813,183,o),
(794,179,qs),
(790,178,o),
(786,178,qs),
(773,178,o)
);
},
{
closed = 1;
nodes = (
(916,-28,l),
(916,459,ls),
(915,548,o),
(880,628,qs),
(853,692,o),
(758,791,o),
(621,848,o),
(531,848,qs),
(512,848,o),
(458,844,o),
(343,827,o),
(303,824,o),
(291,824,qs),
(252,824,o),
(200,850,o),
(183,877,qs),
(168,900,l),
(101,857,l),
(126,817,o),
(171,794,qs),
(174,792,o),
(178,790,q),
(75,643,o),
(71,465,qs),
(71,459,o),
(71,453,qs),
(71,355,o),
(138,172,o),
(205,104,qs),
(284,24,o),
(388,-1,qs),
(427,-10,o),
(467,-10,qs),
(552,-10,o),
(617,28,qs),
(687,69,o),
(713,137,q),
(714,138,o),
(714,139,q),
(747,123,o),
(786,123,qs),
(804,123,o),
(820,127,qs),
(824,128,o),
(828,128,q),
(828,-28,l)
);
}
);
};
layerId = m01;
shapes = (
{
closed = 1;
nodes = (
(111,685,o),
(45,584,o),
(72,338,cs),
(88,191,o),
(223,1,o),
(435,1,cs),
(570,1,o),
(640,81,o),
(640,177,cs),
(640,271,o),
(566,307,o),
(519,323,cs),
(492,333,l),
(469,280,l),
(497,271,ls),
(532,259,o),
(570,237,o),
(570,177,cs),
(570,107,o),
(526,57,o),
(435,57,cs),
(271,57,o),
(156,215,o),
(142,344,cs),
(117,572,o),
(173,659,o),
(243,754,cs),
(263,781,l),
(206,814,l),
(187,788,ls)
);
},
{
closed = 1;
nodes = (
(503,274,l),
(554,299,o),
(664,361,o),
(664,473,cs),
(664,557,o),
(606,619,o),
(491,630,cs),
(379,641,o),
(284,585,o),
(272,513,cs),
(266,473,o),
(274,433,o),
(326,398,cs),
(350,381,o),
(404,376,o),
(433,388,cs),
(459,400,l),
(432,451,l),
(405,440,ls),
(398,437,o),
(379,435,o),
(366,444,cs),
(344,459,o),
(338,479,o),
(342,505,cs),
(349,549,o),
(410,581,o),
(485,574,cs),
(560,567,o),
(594,531,o),
(594,473,cs),
(594,392,o),
(514,344,o),
(473,324,c),
(302,270,l),
(323,217,l)
);
},
{
closed = 1;
nodes = (
(824,510,ls),
(824,645,o),
(740,766,o),
(604,815,cs),
(482,859,o),
(360,827,o),
(256,827,cs),
(204,827,o),
(171,844,o),
(132,885,cs),
(110,908,l),
(60,870,l),
(82,847,ls),
(127,800,o),
(180,771,o),
(256,771,cs),
(380,771,o),
(474,801,o),
(580,763,cs),
(680,727,o),
(754,627,o),
(754,510,cs),
(754,17,l),
(824,17,l)
);
},
{
closed = 1;
nodes = (
(724,189,o),
(715,184,o),
(702,184,cs),
(677,184,o),
(656,193,o),
(641,217,cs),
(623,246,l),
(563,219,l),
(579,189,ls),
(602,146,o),
(658,128,o),
(702,128,cs),
(737,128,o),
(767,143,o),
(792,165,cs),
(815,186,l),
(768,228,l),
(744,207,ls)
);
}
);
width = 884;
}
);
note = or_au;
unicode = 2836;
}
{
glyphname = "kha-oriya";
layers = (
{
background = {
shapes = (
{
closed = 1;
nodes = (
(558,512,o),
(525,466,o),
(421,466,cs),
(374,466,o),
(345,502,o),
(345,510,cs),
(345,515,o),
(392,584,o),
(427,604,cs),
(452,619,l),
(418,666,l),
(393,652,ls),
(334,618,o),
(277,536,o),
(277,510,cs),
(277,484,o),
(330,412,o),
(421,412,cs),
(562,412,o),
(612,480,o),
(640,518,cs),
(659,543,l),
(605,576,l),
(586,550,ls)
);
}
);
};
backgroundImage = {
imagePath = "../../../../kha1.png";
};
layerId = m01;
shapes = (
{
closed = 1;
nodes = (
(575,17,l),
(634,17,l),
(634,646,l),
(570,646,l)
);
},
{
closed = 1;
nodes = (
(426,0,o),
(500,63,o),
(500,146,cs),
(500,229,o),
(426,293,o),
(340,293,cs),
(252,293,o),
(177,230,o),
(177,147,cs),
(177,64,o),
(252,0,o),
(340,0,cs)
);
},
{
closed = 1;
nodes = (
(290,56,o),
(247,94,o),
(247,147,cs),
(247,200,o),
(290,237,o),
(340,237,cs),
(388,237,o),
(430,199,o),
(430,146,cs),
(430,93,o),
(388,56,o),
(340,56,cs)
);
},
{
closed = 1;
nodes = (
(440,653,l),
(399,669,o),
(379,673,o),
(347,673,cs),
(169,673,o),
(62,539,o),
(62,424,cs),
(62,319,o),
(140,224,o),
(268,224,cs),
(288,224,l),
(296,280,l),
(268,280,ls),
(184,280,o),
(132,346,o),
(132,424,cs),
(132,517,o),
(215,617,o),
(347,617,cs),
(373,617,o),
(393,613,o),
(425,608,c),
(440,625,l)
);
},
{
closed = 1;
nodes = (
(288,484,l),
(306,441,o),
(369,408,o),
(422,408,cs),
(498,408,o),
(564,429,o),
(622,500,c),
(622,549,l),
(592,567,l),
(572,541,ls),
(522,476,o),
(482,464,o),
(422,464,cs),
(390,464,o),
(354,488,o),
(354,509,c),
(440,624,l),
(440,648,l),
(394,667,l),
(389,662,l),
(288,515,l)
);
}
);
width = 697;
}
);
note = or_kha;
unicode = 2838;
}
{
glyphname = "cha-oriya";
layers = (
{
background = {
shapes = (
{
closed = 1;
nodes = (
(564,184,o),
(603,187,o),
(604,193,c),
(603,224,o),
(606,285,o),
(610,332,cs),
(625,522,o),
(494,671,o),
(313,671,cs),
(166,671,o),
(50,565,o),
(50,429,cs),
(50,330,o),
(105,239,o),
(176,222,c),
(158,202,o),
(144,166,o),
(144,141,cs),
(144,94,o),
(179,42,o),
(223,22,c),
(210,12,o),
(195,-9,o),
(189,-25,c),
(140,8,o),
(79,39,o),
(51,45,c),
(35,12,l),
(50,4,o),
(115,-42,o),
(182,-94,c),
(191,-137,o),
(244,-171,o),
(302,-171,cs),
(332,-171,o),
(375,-153,o),
(397,-131,c),
(419,-152,o),
(460,-169,o),
(490,-171,cs),
(558,-174,o),
(612,-124,o),
(612,-58,cs),
(612,5,o),
(557,55,o),
(487,55,cs),
(467,55,o),
(438,45,o),
(423,32,c),
(413,43,l),
(448,59,o),
(475,102,o),
(475,141,cs),
(475,219,o),
(430,285,o),
(305,285,cs),
(272,285,o),
(235,270,o),
(215,271,cs),
(162,274,o),
(120,342,o),
(120,429,cs),
(120,533,o),
(205,615,o),
(313,615,cs),
(448,615,o),
(552,490,o),
(549,332,cs),
(549,276,o),
(554,213,o),
(561,189,c)
);
},
{
closed = 1;
nodes = (
(218,192,o),
(258,232,o),
(310,232,cs),
(363,232,o),
(405,192,o),
(405,141,cs),
(405,89,o),
(363,49,o),
(310,49,cs),
(258,49,o),
(218,89,o),
(218,141,cs)
);
},
{
closed = 1;
nodes = (
(447,-120,o),
(419,-92,o),
(419,-56,cs),
(419,-22,o),
(444,6,o),
(483,6,cs),
(521,6,o),
(553,-22,o),
(553,-56,cs),
(553,-92,o),
(524,-120,o),
(486,-120,cs)
);
},
{
closed = 1;
nodes = (
(269,-120,o),
(238,-92,o),
(238,-56,cs),
(238,-54,l),
(240,-42,ls),
(247,-15,o),
(275,6,o),
(308,6,cs),
(346,6,o),
(372,-22,o),
(372,-56,cs),
(372,-92,o),
(346,-120,o),
(308,-120,cs)
);
}
);
};
backgroundImage = {
imagePath = "../../../../cha.png";
pos = (1,18);
};
layerId = m01;
shapes = (
{
closed = 1;
nodes = (
(260,12,o),
(245,-9,o),
(239,-25,c),
(101,45,l),
(75,-4,l),
(232,-94,l),
(241,-137,o),
(294,-171,o),
(352,-171,cs),
(382,-171,o),
(425,-153,o),
(447,-131,c),
(469,-152,o),
(510,-169,o),
(540,-171,cs),
(608,-174,o),
(662,-124,o),
(662,-58,cs),
(662,5,o),
(607,55,o),
(537,55,cs),
(517,55,o),
(488,45,o),
(473,32,c),
(273,22,l)
);
},
{
closed = 1;
nodes = (
(497,-120,o),
(469,-92,o),
(469,-56,cs),
(469,-22,o),
(494,6,o),
(533,6,cs),
(571,6,o),
(603,-22,o),
(603,-56,cs),
(603,-92,o),
(574,-120,o),
(536,-120,cs)
);
},
{
closed = 1;
nodes = (
(319,-120,o),
(288,-92,o),
(288,-56,cs),
(288,-54,l),
(290,-42,ls),
(297,-15,o),
(325,6,o),
(358,6,cs),
(396,6,o),
(422,-22,o),
(422,-56,cs),
(422,-92,o),
(396,-120,o),
(358,-120,cs)
);
},
{
closed = 1;
nodes = (
(650,185,l),
(674,233,o),
(690,280,o),
(690,331,cs),
(690,540,o),
(558,672,o),
(347,672,cs),
(172,672,o),
(62,563,o),
(62,390,cs),
(62,281,o),
(141,213,o),
(268,213,cs),
(296,213,l),
(296,269,l),
(268,269,ls),
(184,269,o),
(132,316,o),
(132,390,cs),
(132,529,o),
(215,616,o),
(347,616,cs),
(515,616,o),
(622,506,o),
(622,331,cs),
(622,283,o),
(612,249,o),
(592,204,c)
);
},
{
closed = 1;
nodes = (
(426,14,l),
(482,37,o),
(522,84,o),
(522,139,cs),
(522,216,o),
(443,277,o),
(350,277,cs),
(256,277,o),
(177,216,o),
(177,139,cs),
(177,84,o),
(217,37,o),
(273,14,c)
);
},
{
closed = 1;
nodes = (
(292,56,o),
(247,92,o),
(247,139,cs),
(247,185,o),
(292,221,o),
(350,221,cs),
(407,221,o),
(452,185,o),
(452,139,cs),
(452,92,o),
(407,56,o),
(350,56,cs)
);
}
);
width = 752;
}
);
note = or_cha;
unicode = 2843;
}
{
glyphname = "ja-oriya";
layers = (
{
background = {
shapes = (
{
closed = 1;
nodes = (
(661,340,l),
(661,558,o),
(523,667,o),
(347,667,cs),
(192,667,o),
(70,561,o),
(70,427,cs),
(70,355,o),
(131,287,o),
(208,273,cs),
(236,269,l),
(323,314,l),
(261,318,o),
(238,316,o),
(218,318,cs),
(170,323,o),
(140,365,o),
(140,427,cs),
(140,536,o),
(220,604,o),
(347,604,cs),
(492,604,o),
(586,503,o),
(591,341,cs),
(597,171,l),
(651,176,l),
(651,211,l)
);
}
);
};
backgroundImage = {
imagePath = "../../../ja1.png";
pos = (18,0);
};
layerId = m01;
shapes = (
{
closed = 1;
nodes = (
(402,82,c),
(364,90,o),
(337,142,o),
(337,188,cs),
(337,249,o),
(396,269,o),
(456,273,c),
(456,16,l),
(522,16,l),
(522,326,l),
(442,333,o),
(271,319,o),
(271,188,cs),
(271,139,o),
(292,86,o),
(322,65,c),
(310,57,o),
(297,52,o),
(279,52,cs),
(229,52,o),
(177,79,o),
(177,152,cs),
(177,187,o),
(197,254,o),
(265,264,cs),
(302,270,o),
(330,264,o),
(374,255,c),
(396,306,l),
(328,322,o),
(284,320,o),
(255,316,cs),
(138,298,o),
(111,199,o),
(111,152,cs),
(111,43,o),
(203,0,o),
(279,0,cs),
(337,0,o),
(383,25,o)
);
},
{
closed = 1;
nodes = (
(229,273,l),
(168,285,o),
(132,328,o),
(132,390,cs),
(132,529,o),
(215,616,o),
(347,616,cs),
(515,616,o),
(622,506,o),
(622,331,cs),
(622,283,o),
(612,249,o),
(592,204,c),
(650,185,l),
(674,233,o),
(690,280,o),
(690,331,cs),
(690,540,o),
(558,672,o),
(347,672,cs),
(172,672,o),
(62,563,o),
(62,390,cs),
(62,308,o),
(107,249,o),
(183,225,c)
);
}
);
width = 752;
}
);
metricLeft = "=ca-oriya";
metricRight = "=ca-oriya";
note = or_ja;
unicode = 2844;
}
{
glyphname = "jha-oriya";
layers = (
{
background = {
shapes = (
{
closed = 1;
nodes = (
(409,635,l),
(385,642,o),
(359,645,o),
(333,645,cs),
(179,645,o),
(70,556,o),
(70,429,cs),
(70,331,o),
(123,240,o),
(196,222,c),
(169,192,o),
(164,157,o),
(164,141,cs),
(164,62,o),
(235,0,o),
(325,0,cs),
(429,0,o),
(495,54,o),
(495,141,cs),
(495,223,o),
(425,281,o),
(325,281,cs),
(282,281,o),
(280,270,o),
(235,271,cs),
(182,272,o),
(140,342,o),
(140,429,cs),
(140,523,o),
(220,589,o),
(333,589,cs),
(350,589,o),
(366,587,o),
(382,583,c)
);
},
{
closed = 1;
nodes = (
(233,194,o),
(271,232,o),
(325,232,cs),
(387,232,o),
(430,194,o),
(430,141,cs),
(430,87,o),
(387,49,o),
(325,49,cs),
(271,49,o),
(233,87,o),
(233,141,cs)
);
},
{
closed = 1;
nodes = (
(495,708,o),
(488,664,o),
(488,635,c),
(492,616,o),
(494,594,o),
(494,580,cs),
(494,540,o),
(481,495,o),
(462,470,cs),
(458,465,o),
(446,461,o),
(434,461,cs),
(417,461,o),
(398,471,o),
(390,486,c),
(386,499,o),
(384,517,o),
(384,529,cs),
(384,559,o),
(391,588,o),
(400,601,cs),
(421,626,l),
(366,661,l),
(346,635,ls),
(327,612,o),
(314,569,o),
(314,531,cs),
(314,512,o),
(318,487,o),
(323,470,c),
(339,432,o),
(384,406,o),
(434,406,cs),
(471,406,o),
(506,418,o),
(518,436,cs),
(545,471,o),
(564,530,o),
(564,578,cs),
(564,593,o),
(562,618,o),
(558,639,c),
(558,651,o),
(561,687,o),
(565,725,cs),
(569,758,l),
(514,774,l),
(504,741,ls)
);
}
);
};
backgroundImage = {
imagePath = "../../../jha.png";
pos = (50,-214);
scale = (3.6341,3.6341);
};
hints = (
{
name = _corner.tailBottom;
origin = (3,7);
type = Corner;
}
);
layerId = m01;
shapes = (
{
closed = 1;
nodes = (
(410,635,l),
(385,642,o),
(373,645,o),
(346,645,cs),
(184,645,o),
(70,556,o),
(70,429,cs),
(70,331,o),
(126,240,o),
(202,222,c),
(174,192,o),
(169,157,o),
(169,141,cs),
(169,62,o),
(243,0,o),
(337,0,cs),
(446,0,o),
(516,54,o),
(516,141,cs),
(516,223,o),
(442,281,o),
(337,281,cs),
(292,281,o),
(290,270,o),
(243,271,cs),
(187,272,o),
(143,342,o),
(143,429,cs),
(143,523,o),
(227,589,o),
(346,589,cs),
(364,589,o),
(372,587,o),
(389,583,c)
);
},
{
closed = 1;
nodes = (
(241,194,o),
(281,232,o),
(337,232,cs),
(402,232,o),
(447,194,o),
(447,141,cs),
(447,87,o),
(402,49,o),
(337,49,cs),
(281,49,o),
(241,87,o),
(241,141,cs)
);
},
{
closed = 1;
nodes = (
(501,695,o),
(509,662,o),
(515,622,cs),
(522,569,o),
(522,520,o),
(504,490,cs),
(487,463,o),
(436,456,o),
(407,481,cs),
(383,501,o),
(385,547,o),
(400,601,cs),
(409,631,l),
(357,644,l),
(342,625,ls),
(294,568,o),
(302,489,o),
(360,439,cs),
(417,390,o),
(531,407,o),
(565,462,cs),
(597,516,o),
(593,573,o),
(586,630,cs),
(581,662,o),
(573,683,o),
(588,740,cs),
(594,765,l),
(540,784,l),
(525,750,ls)
);
},
{
closed = 1;
nodes = (
(432,87,l),
(424,76,o),
(411,67,o),
(402,55,cs),
(380,24,o),
(388,-12,o),
(414,-28,c),
(652,-155,l),
(688,-107,l),
(460,19,l),
(460,24,l),
(460,25,o),
(471,36,o),
(485,55,c)
);
}
);
width = 663;
}
);
note = or_jha;
unicode = 2845;
}
{
glyphname = "dda-oriya";
layers = (
{
background = {
shapes = (
{
closed = 1;
nodes = (
(535,122,l),
(508,151,o),
(473,184,o),
(426,217,c),
(530,294,l),
(499,333,l),
(350,234,l),
(350,196,l),
(396,167,o),
(428,137,o),
(459,106,c),
(435,73,o),
(389,55,o),
(336,55,cs),
(283,55,o),
(228,95,o),
(194,163,c),
(218,215,o),
(244,260,o),
(305,314,c),
(280,344,l),
(255,325,ls),
(203,286,o),
(138,221,o),
(121,163,c),
(139,69,o),
(233,-1,o),
(336,-1,cs),
(412,-1,o),
(496,40,o),
(535,98,c)
);
}
);
};
backgroundImage = {
imagePath = "../../../dda.png";
pos = (28,0);
};
layerId = m01;
shapes = (
{
closed = 1;
nodes = (
(242,271,l),
(173,279,o),
(132,324,o),
(132,390,cs),
(132,529,o),
(215,616,o),
(347,616,cs),
(515,616,o),
(622,506,o),
(622,331,cs),
(622,283,o),
(612,249,o),
(592,204,c),
(650,185,l),
(674,233,o),
(690,280,o),
(690,331,cs),
(690,540,o),
(558,672,o),
(347,672,cs),
(172,672,o),
(62,563,o),
(62,390,cs),
(62,299,o),
(117,237,o),
(208,219,c)
);
},
{
closed = 1;
nodes = (
(358,208,l),
(465,112,l),
(427,70,o),
(375,56,o),
(347,57,cs),
(271,56,o),
(221,105,o),
(199,159,c),
(325,316,l),
(270,351,l),
(124,168,l),
(141,97,o),
(214,0,o),
(347,1,cs),
(408,0,o),
(511,39,o),
(550,120,c),
(441,217,l),
(538,287,l),
(497,333,l),
(358,232,l)
);
}
);
width = 739;
}
);
note = or_dda;
unicode = 2849;
}
{
glyphname = "nna-oriya";
layers = (
{
background = {
shapes = (
{
closed = 1;
nodes = (
(184,490,qs),
(164,490,o),
(145,486,qs),
(72,472,o),
(32,415,qs),
(-1,368,o),
(-1,298,qs),
(-1,247,o),
(16,188,qs),
(63,25,o),
(180,-24,qs),
(225,-43,o),
(328,-43,o),
(426,-5,o),
(465,33,qs),
(511,78,o),
(532,137,qs),
(534,144,l),
(532,151,l),
(525,166,l),
(518,186,l),
(486,188,ls),
(356,198,o),
(219,198,qs),
(166,198,o),
(107,196,q),
(91,252,o),
(91,298,qs),
(91,356,o),
(115,390,qs),
(139,425,o),
(173,431,qs),
(178,432,o),
(184,432,qs),
(205,432,o),
(226,419,qs),
(367,331,l),
(397,362,l),
(400,365,l),
(419,384,l),
(299,463,l),
(272,501,o),
(272,549,qs),
(272,575,o),
(291,624,o),
(328,655,o),
(351,659,qs),
(358,660,o),
(379,660,o),
(394,656,qs),
(443,643,o),
(494,592,qs),
(545,542,o),
(579,481,q),
(579,-18,l),
(671,-18,l),
(671,690,l),
(579,690,l),
(579,616,l),
(577,619,o),
(574,621,q),
(476,718,o),
(365,718,qs),
(346,718,o),
(327,715,qs),
(273,706,o),
(236,674,qs),
(206,649,o),
(191,611,qs),
(180,582,o),
(180,519,o),
(189,490,q),
(187,490,o)
);
}
);
};
backgroundImage = {
imagePath = "../../../../nna.png";
pos = (-58,0);
};
layerId = m01;
shapes = (
{
closed = 1;
nodes = (
(597,547,l),
(582,547,l),
(591,475,l),
(596,17,l),
(655,17,l),
(655,646,l),
(602,646,l)
);
},
{
closed = 1;
nodes = (
(414,472,o),
(346,516,o),
(293,516,cs),
(251,516,o),
(180,515,o),
(127,462,cs),
(59,394,o),
(48,309,o),
(71,213,cs),
(98,104,o),
(207,1,o),
(328,1,cs),
(422,1,o),
(499,60,o),
(497,155,cs),
(495,269,o),
(297,280,o),
(127,268,cs),
(99,266,l),
(105,210,l),
(133,212,ls),
(282,223,o),
(427,215,o),
(427,148,cs),
(427,94,o),
(388,57,o),
(328,57,cs),
(247,57,o),
(162,134,o),
(139,227,cs),
(120,307,o),
(134,379,o),
(177,422,cs),
(215,460,o),
(253,460,o),
(293,460,cs),
(310,460,o),
(358,436,o),
(390,385,cs),
(408,357,l),
(467,387,l),
(450,415,ls)
);
},
{
closed = 1;
nodes = (
(600,565,l),
(557,622,o),
(498,672,o),
(439,672,cs),
(331,672,o),
(303,570,o),
(292,525,cs),
(284,491,l),
(352,478,l),
(360,511,ls),
(371,556,o),
(389,616,o),
(439,616,cs),
(478,616,o),
(551,538,o),
(583,464,cs),
(596,433,l)
);
}
);
width = 725;
}
);
note = or_nna;
unicode = 2851;
}
{
glyphname = "tha-oriya";
layers = (
{
background = {
shapes = (
{
closed = 1;
nodes = (
(194,565,qs),
(223,598,o),
(258,601,q),
(261,602,o),
(264,602,qs),
(286,602,o),
(306,588,qs),
(338,565,o),
(342,525,qs),
(342,521,o),
(342,516,qs),
(342,495,o),
(324,450,o),
(289,409,o),
(227,354,o),
(215,342,qs),
(130,256,o),
(130,163,qs),
(130,96,o),
(176,45,qs),
(208,10,o),
(307,-33,o),
(370,-33,qs),
(411,-33,o),
(452,-23,qs),
(533,-4,o),
(596,45,qs),
(599,48,o),
(603,51,q),
(603,-7,l),
(695,-7,l),
(695,692,l),
(603,692,l),
(603,176,l),
(574,122,o),
(525,83,qs),
(475,44,o),
(419,31,qs),
(394,25,o),
(370,25,qs),
(336,25,o),
(278,50,o),
(257,73,qs),
(222,111,o),
(222,163,qs),
(222,239,o),
(293,312,qs),
(305,323,o),
(368,379,o),
(385,400,qs),
(434,457,o),
(434,516,qs),
(434,523,o),
(434,529,qs),
(428,588,o),
(375,625,qs),
(329,659,o),
(264,659,qs),
(254,659,o),
(243,658,qs),
(164,650,o),
(65,538,o),
(65,458,qs),
(65,446,o),
(67,429,qs),
(73,396,l),
(125,404,ls),
(162,410,o),
(180,437,qs),
(189,451,o),
(189,467,qs),
(189,495,o),
(165,513,q),
(175,543,o)
);
}
);
};
backgroundImage = {
imagePath = "../../../../tha.png";
scale = (3.662,3.662);
};
layerId = m01;
shapes = (
{
pos = (527,0);
ref = "aasign-oriya";
},
{
closed = 1;
nodes = (
(634,234,l),
(624,240,l),
(605,214,ls),
(537,122,o),
(483,55,o),
(372,55,cs),
(271,55,o),
(194,105,o),
(194,200,cs),
(194,370,o),
(498,307,o),
(498,516,cs),
(498,625,o),
(392,676,o),
(267,669,cs),
(154,658,o),
(90,577,o),
(108,453,cs),
(113,418,l),
(183,427,l),
(178,461,ls),
(165,550,o),
(200,606,o),
(273,613,cs),
(369,618,o),
(428,586,o),
(428,516,cs),
(428,353,o),
(124,410,o),
(124,200,cs),
(124,71,o),
(239,-1,o),
(372,-1,cs),
(501,-1,o),
(575,70,o),
(634,144,c)
);
}
);
width = 737;
}
);
note = or_tha;
unicode = 2853;
}
{
glyphname = "da-oriya";
layers = (
{
backgroundImage = {
imagePath = "../../../da.png";
pos = (18,0);
};
layerId = m01;
shapes = (
{
closed = 1;
nodes = (
(444,118,l),
(455,-11,l),
(512,-11,l),
(514,217,l),
(448,215,l)
);
},
{
closed = 1;
nodes = (
(451,99,l),
(441,136,l),
(419,98,l),
(427,95,l),
(439,98,l)
);
},
{
closed = 1;
nodes = (
(198,292,l),
(179,271,o),
(166,236,o),
(166,207,cs),
(166,124,o),
(232,66,o),
(327,66,cs),
(377,66,o),
(426,89,o),
(453,118,cs),
(482,150,o),
(514,167,o),
(514,211,cs),
(514,302,l),
(458,292,l),
(457,281,o),
(446,228,o),
(441,212,cs),
(425,160,o),
(401,120,o),
(332,120,cs),
(278,120,o),
(239,157,o),
(239,211,cs),
(239,257,o),
(268,300,o),
(326,315,c),
(315,353,l)
);
},
{
closed = 1;
nodes = (
(657,249,o),
(662,295,o),
(662,340,cs),
(662,556,o),
(521,672,o),
(347,672,cs),
(192,672,o),
(70,564,o),
(70,427,cs),
(70,380,o),
(103,332,o),
(150,309,cs),
(175,298,o),
(197,294,o),
(217,292,c),
(297,315,l),
(315,353,l),
(271,341,ls),
(233,331,o),
(199,342,o),
(180,355,cs),
(169,363,o),
(140,381,o),
(140,427,cs),
(140,549,o),
(215,610,o),
(347,610,cs),
(531,610,o),
(597,477,o),
(597,341,cs),
(597,251,o),
(592,222,o),
(595,170,c),
(657,177,l),
(657,211,ls)
);
},
{
closed = 1;
nodes = (
(188,279,l),
(222,290,l),
(181,305,l),
(179,299,l),
(185,285,l)
);
}
);
width = 733;
}
);
note = or_da;
unicode = 2854;
}
{
glyphname = "dha-oriya";
layers = (
{
anchors = (
{
name = bindu;
pos = (557,0);
},
{
name = bottom;
pos = (557,0);
},
{
name = nukta;
pos = (638,0);
},
{
name = top;
pos = (557,830);
}
);
background = {
shapes = (
{
closed = 1;
nodes = (
(62,561,o),
(96,537,o),
(130,543,cs),
(137,545,o),
(145,547,o),
(153,552,cs),
(169,560,o),
(186,549,o),
(224,517,c),
(244,500,o),
(274,458,o),
(300,419,c),
(308,401,l),
(371,353,l),
(408,380,l),
(380,420,o),
(211,616,o),
(171,643,cs),
(149,658,o),
(124,671,o),
(105,668,cs),
(72,663,o),
(49,630,o),
(55,596,cs)
);
},
{
closed = 1;
nodes = (
(318,414,l),
(313,426,l),
(230,423,o),
(70,385,o),
(70,223,cs),
(70,92,o),
(185,24,o),
(332,24,cs),
(473,24,o),
(582,142,o),
(580,321,c),
(532,283,l),
(532,160,o),
(444,64,o),
(332,64,cs),
(222,64,o),
(135,137,o),
(135,245,cs),
(135,316,o),
(222,378,o),
(332,387,c)
);
}
);
};
layerId = m01;
shapes = (
{
closed = 1;
nodes = (
(342,382,l),
(361,421,l),
(252,462,o),
(58,382,o),
(58,213,cs),
(58,93,o),
(189,-1,o),
(305,-1,cs),
(478,-1,o),
(562,90,o),
(591,212,cs),
(599,246,l),
(537,259,l),
(529,226,ls),
(504,124,o),
(438,55,o),
(305,55,cs),
(223,55,o),
(128,125,o),
(128,213,cs),
(128,338,o),
(264,396,o),
(399,345,c),
(422,392,l),
(138,661,l),
(90,620,l)
);
},
{
pos = (482,0);
ref = "aasign-oriya";
},
{
closed = 1;
nodes = (
(132,541,o),
(157,556,o),
(176,561,c),
(169,606,l),
(138,661,l),
(129,666,o),
(116,670,o),
(105,670,cs),
(70,670,o),
(41,641,o),
(41,606,cs),
(41,571,o),
(70,543,o),
(105,542,cs)
);
}
);
width = 658;
}
);
note = or_dha;
unicode = 2855;
}
{
glyphname = "ma-oriya";
layers = (
{
backgroundImage = {
imagePath = "../../../ma.png";
pos = (10,0);
};
layerId = m01;
shapes = (
{
closed = 1;
nodes = (
(580,352,l),
(582,531,o),
(473,671,o),
(332,671,cs),
(185,671,o),
(70,581,o),
(70,450,cs),
(70,288,o),
(230,250,o),
(313,247,c),
(318,259,l),
(218,193,o),
(137,117,o),
(134,86,c),
(225,120,l),
(257,145,l),
(295,194,o),
(373,235,o),
(434,238,cs),
(548,244,l),
(531,291,l),
(332,286,l),
(222,295,o),
(135,357,o),
(135,428,cs),
(135,536,o),
(222,609,o),
(332,609,cs),
(444,609,o),
(532,513,o),
(532,390,c)
);
},
{
closed = 1;
nodes = (
(231,4,o),
(258,36,o),
(255,71,cs),
(254,78,o),
(252,86,o),
(248,94,cs),
(239,117,o),
(239,134,o),
(311,196,c),
(205,173,l),
(167,134,o),
(125,101,o),
(128,57,cs),
(131,23,o),
(161,-2,o),
(196,1,cs)
);
},
{
closed = 1;
nodes = (
(522,562,l),
(530,276,l),
(526,266,l),
(531,17,l),
(587,17,l),
(587,672,l),
(533,672,l)
);
}
);
width = 658;
}
);
note = or_ma;
unicode = 2862;
}
{
glyphname = "ya-oriya";
layers = (
{
backgroundImage = {
imagePath = "../../../yyii.png";
pos = (15,0);
};
layerId = m01;
shapes = (
{
closed = 1;
nodes = (
(268,300,l),
(78,159,l),
(66,142,l),
(101,101,l),
(229,207,l),
(312,257,l),
(409,329,l),
(387,360,l)
);
},
{
closed = 1;
nodes = (
(573,611,o),
(484,673,o),
(347,673,cs),
(153,673,o),
(70,533,o),
(70,425,cs),
(71,329,o),
(132,255,o),
(227,245,cs),
(244,244,o),
(273,246,o),
(293,249,cs),
(311,309,l),
(283,305,ls),
(263,302,o),
(247,300,o),
(234,301,cs),
(178,307,o),
(141,352,o),
(140,425,cs),
(140,508,o),
(198,617,o),
(347,617,cs),
(454,617,o),
(518,572,o),
(586,475,cs),
(644,507,ls)
);
},
{
closed = 1;
nodes = (
(530,113,o),
(458,56,o),
(379,56,cs),
(326,56,o),
(297,90,o),
(297,153,cs),
(297,188,o),
(299,232,o),
(322,260,cs),
(345,288,l),
(268,290,ls),
(242,249,o),
(227,198,o),
(227,153,cs),
(227,62,o),
(285,0,o),
(379,0,cs),
(491,0,o),
(585,76,o),
(643,188,c),
(600,244,l),
(584,214,ls)
);
},
{
closed = 1;
nodes = (
(582,560,l),
(582,124,l),
(586,17,l),
(644,17,l),
(644,646,l),
(586,646,l)
);
},
{
closed = 1;
nodes = (
(141,64,o),
(165,87,o),
(165,116,cs),
(165,136,o),
(149,143,o),
(182,168,c),
(111,171,l),
(82,171,o),
(59,147,o),
(59,116,cs),
(59,87,o),
(82,64,o),
(111,64,cs)
);
}
);
width = 715;
}
);
note = or_ya;
unicode = 2863;
}
{
glyphname = "ra-oriya";
layers = (
{
hints = (
{
name = _corner.tailLeft;
origin = (3,40);
type = Corner;
}
);
layerId = m01;
shapes = (
{
closed = 1;
nodes = (
(221,186,o),
(261,222,o),
(313,222,cs),
(370,222,o),
(414,187,o),
(414,142,cs),
(414,96,o),
(370,59,o),
(313,59,cs),
(261,59,o),
(221,95,o),
(221,141,cs)
);
},
{
closed = 1;
nodes = (
(184,216,l),
(209,230,l),
(174,241,l),
(172,235,l),
(180,222,l)
);
},
{
closed = 1;
nodes = (
(266,273,l),
(195,229,l),
(168,199,o),
(152,183,o),
(152,141,cs),
(152,62,o),
(223,0,o),
(313,0,cs),
(417,0,o),
(483,54,o),
(483,141,cs),
(483,223,o),
(413,284,o),
(313,284,c)
);
},
{
closed = 1;
nodes = (
(574,40,l),
(579,34,o),
(582,31,o),
(582,31,c),
(650,114,o),
(697,234,o),
(697,321,cs),
(697,527,o),
(555,672,o),
(354,672,cs),
(187,672,o),
(70,571,o),
(70,427,cs),
(70,346,o),
(97,273,o),
(136,249,cs),
(157,235,o),
(216,226,o),
(278,226,cs),
(306,226,l),
(315,284,l),
(278,282,ls),
(233,279,o),
(193,285,o),
(174,297,cs),
(153,310,o),
(140,360,o),
(140,427,cs),
(140,539,o),
(223,610,o),
(354,610,cs),
(522,610,o),
(627,499,o),
(627,321,cs),
(627,236,o),
(587,136,o),
(523,60,c),
(510,38,o),
(510,15,o),
(524,0,c),
(730,-103,l),
(761,-53,l)
);
}
);
width = 768;
}
);
note = or_ra;
unicode = 2864;
}
{
glyphname = "lla-oriya";
layers = (
{
backgroundImage = {
imagePath = "../../../../lla.png";
pos = (-3,18);
scale = (1.9317,1.9317);
};
layerId = m01;
shapes = (
{
closed = 1;
nodes = (
(379,217,l),
(370,235,o),
(333,286,o),
(283,286,cs),
(244,286,o),
(197,267,o),
(178,222,cs),
(154,165,o),
(168,105,o),
(179,11,c),
(235,17,l),
(228,117,o),
(230,182,o),
(239,202,cs),
(248,221,o),
(265,233,o),
(283,233,cs),
(297,233,o),
(310,224,o),
(318,210,c),
(321,18,l),
(376,18,l)
);
},
{
closed = 1;
nodes = (
(690,85,o),
(715,209,o),
(710,321,cs),
(700,527,o),
(560,672,o),
(371,672,cs),
(194,672,o),
(70,571,o),
(70,427,cs),
(70,361,o),
(99,296,o),
(141,270,cs),
(170,252,o),
(205,235,o),
(225,228,c),
(267,268,l),
(226,285,o),
(207,296,o),
(182,314,cs),
(163,327,o),
(137,357,o),
(137,427,cs),
(137,539,o),
(227,610,o),
(371,610,cs),
(534,610,o),
(642,455,o),
(643,321,cs),
(644,252,o),
(629,128,o),
(595,49,c),
(650,21,l)
);
},
{
closed = 1;
nodes = (
(350,610,l),
(382,610,l),
(382,672,l),
(350,672,l)
);
},
{
closed = 1;
nodes = (
(379,210,l),
(387,224,o),
(400,233,o),
(414,233,cs),
(432,233,o),
(449,221,o),
(458,202,cs),
(467,182,o),
(469,117,o),
(462,17,c),
(518,11,l),
(529,105,o),
(543,165,o),
(519,222,cs),
(500,267,o),
(453,286,o),
(414,286,cs),
(364,286,o),
(327,235,o),
(318,217,c)
);
}
);
width = 780;
}
);
note = or_lla;
unicode = 2867;
}
{
glyphname = "ssa-oriya";
layers = (
{
backgroundImage = {
imagePath = "../../../ssa.png";
pos = (15,0);
};
hints = (
{
name = _corner.tailLeft;
origin = (0,0);
type = Corner;
}
);
layerId = m01;
shapes = (
{
closed = 1;
nodes = (
(548,17,l),
(610,17,l),
(610,646,l),
(548,646,l)
);
},
{
closed = 1;
nodes = (
(69,342,o),
(106,285,o),
(202,269,c),
(206,262,l),
(158,250,o),
(123,202,o),
(120,145,cs),
(116,60,o),
(202,0,o),
(329,0,cs),
(451,0,o),
(550,72,o),
(597,175,c),
(555,265,l),
(531,148,o),
(443,56,o),
(329,56,cs),
(252,56,o),
(190,98,o),
(190,152,cs),
(190,194,o),
(278,253,o),
(354,286,c),
(331,321,l),
(176,309,o),
(144,360,o),
(141,445,cs),
(138,530,o),
(204,615,o),
(320,615,cs),
(444,615,o),
(523,568,o),
(555,411,c),
(597,494,l),
(536,629,o),
(455,671,o),
(329,671,cs),
(142,671,o),
(71,574,o),
(70,442,cs)
);
},
{
closed = 1;
nodes = (
(139,560,l),
(110,508,l),
(564,316,l),
(593,368,l)
);
}
);
width = 680;
}
);
note = or_ssa;
unicode = 2871;
}
{
glyphname = "sa-oriya";
layers = (
{
background = {
shapes = (
{
closed = 1;
nodes = (
(651,-44,l),
(662,11,l),
(153,157,l),
(131,92,l)
);
},
{
closed = 1;
nodes = (
(551,17,l),
(610,17,l),
(610,646,l),
(546,646,l)
);
},
{
closed = 1;
nodes = (
(610,409,l),
(587,548,o),
(475,672,o),
(307,672,cs),
(152,672,o),
(57,556,o),
(57,445,cs),
(57,370,o),
(115,248,o),
(319,248,cs),
(369,248,o),
(430,261,o),
(463,270,c),
(449,312,l),
(153,157,l),
(170,103,l),
(496,275,l),
(478,325,l),
(400,306,o),
(358,301,o),
(319,301,cs),
(158,301,o),
(127,402,o),
(127,450,cs),
(127,537,o),
(198,616,o),
(307,616,cs),
(445,616,o),
(541,500,o),
(548,372,c)
);
}
);
};
layerId = m01;
shapes = (
{
closed = 1;
nodes = (
(551,17,l),
(610,17,l),
(610,646,l),
(546,646,l)
);
},
{
closed = 1;
nodes = (
(570,546,o),
(487,672,o),
(305,672,cs),
(185,672,o),
(52,590,o),
(52,453,cs),
(52,262,o),
(280,195,o),
(435,254,c),
(414,298,l),
(131,134,l),
(131,96,l),
(642,-35,l),
(659,19,l),
(201,136,l),
(201,106,l),
(498,278,l),
(473,330,l),
(286,259,o),
(122,309,o),
(122,453,cs),
(122,555,o),
(217,616,o),
(305,616,cs),
(436,616,o),
(513,517,o),
(539,420,cs),
(548,386,l),
(610,401,l),
(601,434,ls)
);
}
);
width = 677;
}
);
note = or_sa;
unicode = 2872;
}
{
glyphname = "avagraha-oriya";
layers = (
{
layerId = m01;
shapes = (
{
closed = 1;
nodes = (
(218,356,l),
(57,195,l),
(282,-31,l),
(337,24,l),
(165,195,l),
(327,356,l),
(157,526,l),
(349,718,l),
(295,773,l),
(48,526,l)
);
}
);
width = 405;
}
);
note = or_avagraha;
unicode = 2877;
}
{
glyphname = "iMatra-oriya";
layers = (
{
layerId = m01;
shapes = (
{
closed = 1;
nodes = (
(-34,830,o),
(-130,901,o),
(-263,901,cs),
(-394,901,o),
(-492,870,o),
(-551,762,cs),
(-568,731,l),
(-508,701,l),
(-490,729,ls),
(-434,816,o),
(-374,841,o),
(-263,841,cs),
(-164,841,o),
(-81,794,o),
(-37,734,cs),
(6,683,l),
(42,707,l),
(26,733,ls)
);
}
);
width = 0;
}
);
note = or_ikaar;
unicode = 2879;
}
{
glyphname = "iiMatra-oriya";
layers = (
{
backgroundImage = {
imagePath = "../../../ttii.png";
scale = (3.6214,3.6214);
};
layerId = m01;
shapes = (
{
closed = 1;
nodes = (
(117,835,ls),
(117,890,o),
(37,879,o),
(-13,826,cs),
(-39,801,o),
(-65,770,o),
(-86,743,cs),
(-106,717,l),
(-53,685,l),
(-33,711,ls),
(-9,742,o),
(12,768,o),
(33,787,cs),
(35,789,o),
(55,804,o),
(56,784,cs),
(58,743,o),
(57,624,o),
(53,17,c),
(117,17,l)
);
}
);
width = 172;
}
);
note = or_iikaar;
unicode = 2880;
}
{
glyphname = "oMatra-oriya";
layers = (
{
layerId = m01;
shapes = (
{
closed = 1;
nodes = (
(634,299,qs),
(676,299,o),
(676,342,qs),
(676,383,o),
(634,383,qs),
(591,383,o),
(591,342,qs),
(591,299,o)
);
},
{
closed = 1;
nodes = (
(699,113,qs),
(742,113,o),
(742,156,qs),
(742,199,o),
(699,199,qs),
(658,199,o),
(658,156,qs),
(658,113,o)
);
},
{
closed = 1;
nodes = (
(936,82,qs),
(936,104,o),
(912,125,o),
(891,125,qs),
(849,125,o),
(849,82,qs),
(849,62,o),
(870,39,o),
(891,39,qs),
(936,39,o)
);
},
{
closed = 1;
nodes = (
(1084,113,qs),
(1127,113,o),
(1127,156,qs),
(1127,199,o),
(1084,199,qs),
(1041,199,o),
(1041,156,qs),
(1041,113,o)
);
},
{
closed = 1;
nodes = (
(742,525,qs),
(742,568,o),
(699,568,qs),
(658,568,o),
(658,525,qs),
(658,505,o),
(678,482,o),
(699,482,qs),
(742,482,o)
);
},
{
closed = 1;
nodes = (
(1084,482,qs),
(1127,482,o),
(1127,525,qs),
(1127,568,o),
(1084,568,qs),
(1041,568,o),
(1041,525,qs),
(1041,482,o)
);
},
{
closed = 1;
nodes = (
(1150,299,qs),
(1194,299,o),
(1194,342,qs),
(1194,384,o),
(1150,384,qs),
(1107,384,o),
(1107,342,qs),
(1107,299,o)
);
},
{
closed = 1;
nodes = (
(936,577,o),
(936,599,qs),
(936,620,o),
(912,641,o),
(891,641,qs),
(849,641,o),
(849,599,qs),
(849,556,o),
(891,556,qs),
(912,556,o)
);
},
{
closed = 1;
nodes = (
(452,604,o),
(404,672,o),
(263,672,cs),
(194,672,o),
(146,630,o),
(114,588,cs),
(49,502,o),
(38,395,o),
(61,274,cs),
(82,162,o),
(156,0,o),
(318,0,cs),
(435,0,o),
(480,115,o),
(425,183,cs),
(361,262,o),
(272,277,o),
(149,265,cs),
(121,262,l),
(127,206,l),
(155,209,ls),
(264,219,o),
(319,212,o),
(371,147,cs),
(385,130,o),
(383,56,o),
(318,56,cs),
(210,56,o),
(148,182,o),
(129,284,cs),
(108,395,o),
(123,492,o),
(170,554,cs),
(201,595,o),
(229,615,o),
(265,616,cs),
(338,618,o),
(373,586,o),
(405,535,cs),
(452,459,l),
(500,476,l),
(488,508,ls)
);
},
{
pos = (1217,0);
ref = "aaMatra-oriya";
}
);
width = 1384;
}
);
note = or_okaar;
unicode = 2891;
}
{
glyphname = "rra-oriya";
layers = (
{
layerId = m01;
shapes = (
{
closed = 1;
nodes = (
(363,-210,o),
(384,-210,qs),
(405,-210,o),
(439,-181,o),
(439,-160,qs),
(439,-139,o),
(405,-111,o),
(384,-111,qs),
(363,-111,o),
(331,-139,o),
(331,-160,qs),
(331,-181,o)
);
},
{
closed = 1;
nodes = (
(522,55,qs),
(553,79,o),
(601,139,o),
(617,171,qs),
(627,190,l),
(489,253,l),
(583,367,l),
(521,418,l),
(370,235,l),
(518,168,l),
(490,121,o),
(451,92,qs),
(408,60,o),
(366,60,qs),
(339,60,o),
(288,85,o),
(273,105,qs),
(253,131,o),
(253,162,qs),
(253,201,o),
(282,231,qs),
(297,246,o),
(315,255,qs),
(341,267,l),
(331,286,l),
(330,288,l),
(310,328,l),
(197,272,l),
(163,308,o),
(163,381,qs),
(163,418,o),
(173,455,qs),
(192,522,o),
(242,568,qs),
(288,610,o),
(350,625,qs),
(378,632,o),
(408,632,qs),
(486,632,o),
(553,589,qs),
(603,558,o),
(639,506,qs),
(695,425,o),
(695,327,qs),
(695,222,o),
(636,140,q),
(703,92,l),
(720,116,ls),
(787,210,o),
(787,327,qs),
(787,438,o),
(723,530,qs),
(681,590,o),
(619,629,qs),
(525,690,o),
(408,690,qs),
(361,690,o),
(316,679,qs),
(228,657,o),
(105,544,o),
(82,465,qs),
(70,423,o),
(70,381,qs),
(70,296,o),
(113,247,qs),
(134,224,o),
(162,210,qs),
(169,207,l),
(161,185,o),
(161,162,qs),
(161,118,o),
(189,82,qs),
(214,48,o),
(255,28,qs),
(306,2,o),
(366,2,qs),
(451,2,o)
);
}
);
width = 831;
}
);
note = or_rra;
unicode = 2908;
}
{
glyphname = "llVocalic-oriya";
layers = (
{
background = {
shapes = (
{
closed = 1;
nodes = (
(98,446,q),
(188,464,l),
(185,478,o),
(185,493,qs),
(185,528,o),
(199,558,qs),
(219,602,o),
(258,624,qs),
(278,636,o),
(296,638,qs),
(300,638,o),
(316,638,o),
(327,634,qs),
(347,626,o),
(361,608,qs),
(378,586,o),
(378,559,qs),
(378,538,o),
(358,499,o),
(340,482,qs),
(316,461,o),
(253,430,qs),
(186,398,o),
(154,376,qs),
(45,302,o),
(45,192,qs),
(45,153,o),
(60,116,qs),
(93,30,o),
(183,-12,qs),
(237,-38,o),
(294,-38,qs),
(365,-38,o),
(416,-1,qs),
(470,38,o),
(479,102,qs),
(481,114,o),
(481,125,qs),
(481,175,o),
(453,216,qs),
(431,247,o),
(394,269,qs),
(350,295,o),
(294,295,qs),
(207,295,o),
(152,237,q),
(208,183,l),
(231,207,ls),
(259,237,o),
(294,237,qs),
(313,237,o),
(335,224,qs),
(354,213,o),
(368,193,qs),
(389,163,o),
(389,125,qs),
(389,116,o),
(388,108,qs),
(381,62,o),
(346,37,qs),
(323,20,o),
(294,20,qs),
(268,20,o),
(210,47,o),
(162,98,o),
(137,160,o),
(137,192,qs),
(137,234,o),
(155,268,qs),
(176,306,o),
(222,337,qs),
(248,355,o),
(384,421,o),
(416,450,qs),
(441,473,o),
(470,529,o),
(470,559,qs),
(470,599,o),
(444,633,qs),
(419,667,o),
(375,683,qs),
(342,696,o),
(304,696,qs),
(246,696,o),
(196,667,qs),
(137,633,o),
(110,574,qs),
(93,536,o),
(93,493,qs),
(93,475,o)
);
}
);
};
layerId = m01;
shapes = (
{
closed = 1;
nodes = (
(231,55,o),
(213,98,o),
(213,139,cs),
(213,186,o),
(231,231,o),
(291,254,cs),
(353,278,o),
(436,238,o),
(436,162,cs),
(436,82,o),
(375,56,o),
(287,56,cs),
(203,56,o),
(132,124,o),
(132,211,cs),
(132,352,o),
(312,356,o),
(417,437,cs),
(453,466,o),
(470,503,o),
(470,540,cs),
(470,620,o),
(391,673,o),
(304,673,cs),
(251,673,o),
(199,656,o),
(169,631,cs),
(113,587,o),
(107,531,o),
(109,485,cs),
(111,450,l),
(181,452,l),
(179,487,ls),
(177,528,o),
(185,565,o),
(213,587,cs),
(235,605,o),
(267,617,o),
(301,617,cs),
(350,617,o),
(400,590,o),
(400,539,cs),
(400,518,o),
(392,496,o),
(373,481,cs),
(242,380,o),
(62,385,o),
(62,212,cs),
(62,91,o),
(167,0,o),
(287,0,cs),
(401,0,o),
(506,46,o),
(506,163,cs),
(506,283,o),
(358,343,o),
(265,306,cs),
(171,270,o),
(144,205,o),
(144,141,cs),
(144,89,o),
(166,37,o),
(176,3,cs),
(200,-78,l),
(264,-57,l),
(240,25,ls)
);
}
);
width = 568;
}
);
note = or_llu;
unicode = 2913;
}
{
glyphname = "zero-oriya";
layers = (
{
layerId = m01;
shapes = (
{
closed = 1;
nodes = (
(368,362,qs),
(414,412,o),
(414,551,o),
(370,600,qs),
(316,661,o),
(231,661,q),
(231,661,o),
(230,661,qs),
(146,661,o),
(92,601,qs),
(46,551,o),
(46,482,qs),
(46,417,o),
(86,369,qs),
(136,308,o),
(220,303,qs),
(224,303,o),
(229,303,qs),
(314,303,o)
);
},
{
closed = 1;
nodes = (
(196,361,o),
(168,395,qs),
(138,431,o),
(138,536,o),
(172,573,qs),
(199,603,o),
(262,603,o),
(289,572,qs),
(322,536,o),
(322,482,qs),
(322,427,o),
(288,391,qs),
(260,361,o)
);
}
);
width = 463;
}
);
note = or_zero;
unicode = 2918;
}
{
glyphname = perthousand;
layers = (
{
layerId = m01;
shapes = (
{
closed = 1;
nodes = (
(500,123,o),
(500,101,qs),
(500,57,o),
(546,-4,o),
(602,-4,qs),
(653,-4,o),
(746,52,o),
(816,139,o),
(858,244,o),
(858,293,qs),
(858,339,o),
(811,399,o),
(754,399,qs),
(713,399,o),
(639,363,o),
(578,304,o),
(533,231,o),
(519,194,qs),
(511,170,o)
);
},
{
closed = 1;
nodes = (
(441,690,o),
(476,682,o),
(497,682,qs),
(507,682,o),
(528,685,o),
(552,694,o),
(584,709,o),
(606,723,q),
(215,-17,l),
(252,-17,l),
(683,785,l),
(648,785,l),
(638,770,o),
(605,740,o),
(564,716,o),
(519,701,o),
(497,701,qs),
(453,701,o),
(410,727,o),
(395,746,q),
(384,769,o),
(339,795,o),
(302,795,qs),
(252,795,o),
(160,738,o),
(90,650,o),
(48,544,o),
(48,496,qs),
(48,452,o),
(94,391,o),
(150,391,qs),
(205,391,o),
(301,451,o),
(370,544,o),
(410,655,o),
(410,706,q),
(418,701,l)
);
},
{
closed = 1;
nodes = (
(633,285,o),
(677,342,o),
(734,383,o),
(765,383,qs),
(806,383,o),
(836,339,o),
(836,309,qs),
(836,283,o),
(820,218,o),
(790,152,o),
(750,90,o),
(702,41,o),
(650,12,o),
(623,12,qs),
(592,12,o),
(568,54,o),
(568,83,qs),
(568,114,o),
(586,181,o),
(593,202,qs),
(600,223,o)
);
},
{
closed = 1;
nodes = (
(181,680,o),
(226,737,o),
(284,778,o),
(318,778,q),
(321,762,o),
(361,729,o),
(381,717,q),
(385,704,o),
(385,694,qs),
(385,656,o),
(347,558,o),
(286,468,o),
(210,408,o),
(171,408,qs),
(140,408,o),
(116,449,o),
(116,478,qs),
(116,509,o),
(133,576,o),
(141,597,qs),
(148,618,o)
);
},
{
closed = 1;
nodes = (
(885,102,qs),
(885,57,o),
(930,-4,o),
(986,-4,qs),
(1038,-4,o),
(1131,51,o),
(1201,138,o),
(1242,243,o),
(1242,292,qs),
(1242,339,o),
(1195,399,o),
(1138,399,qs),
(1097,399,o),
(1024,363,o),
(963,304,o),
(916,231,o),
(902,194,qs),
(884,146,o)
);
},
{
closed = 1;
nodes = (
(1018,285,o),
(1062,342,o),
(1118,383,o),
(1149,383,qs),
(1189,383,o),
(1220,339,o),
(1220,309,qs),
(1220,270,o),
(1184,168,o),
(1125,75,o),
(1048,12,o),
(1007,12,qs),
(977,12,o),
(953,54,o),
(953,83,qs),
(953,114,o),
(971,181,o),
(978,202,qs),
(985,223,o)
);
}
);
userData = {
assembly = "SVTCA[0]	/* SetFreedomAndProjectionVectorToAxis */
PUSHW[ ]	/* 4 values pushed */
5 2 72 4
CALL[ ]	/* CallFunction */
PUSHW[ ]	/* 4 values pushed */
83 2 24 4
CALL[ ]	/* CallFunction */
PUSHW[ ]	/* 1 value pushed */
5
SRP0[ ]	/* SetRefPoint0 */
PUSHW[ ]	/* 1 value pushed */
103
MDRP[10000]	/* MoveDirectRelPt */
PUSHW[ ]	/* 1 value pushed */
72
SRP0[ ]	/* SetRefPoint0 */
PUSHW[ ]	/* 1 value pushed */
130
MDRP[10000]	/* MoveDirectRelPt */
IUP[0]	/* InterpolateUntPts */
IUP[1]	/* InterpolateUntPts */";
};
width = 1249;
}
);
note = perthousand;
unicode = 8240;
}
{
export = 0;
glyphname = _basic_munduli;
layers = (
{
layerId = m01;
shapes = (
{
closed = 0;
nodes = (
(198,323,ls),
(107,323,o),
(62,376,o),
(62,444,cs),
(62,531,o),
(145,637,o),
(277,637,cs),
(443,637,o),
(550,498,o),
(550,352,cs),
(550,326,o),
(548,300,o),
(544,275,c)
);
}
);
width = 612;
}
);
}
{
export = 0;
glyphname = _corner.smallCircle;
layers = (
{
anchors = (
{
name = left;
pos = (0,30);
},
{
name = origin;
pos = (0,17);
},
{
name = right;
pos = (10,17);
}
);
layerId = m01;
shapes = (
{
closed = 0;
nodes = (
(0,31,l),
(1,25,o),
(4,20,o),
(10,17,c)
);
}
);
width = 600;
}
);
}
{
export = 0;
glyphname = _or.Munduli;
layers = (
{
layerId = m01;
shapes = (
{
closed = 0;
nodes = (
(248,318,l),
(215,318,o),
(188,317,o),
(149,333,c),
(128,343,o),
(87,367,o),
(87,427,c),
(87,564,o),
(178,644,o),
(329,644,c),
(548,644,o),
(601,491,o),
(601,340,c),
(599,298,o),
(586,250,o),
(591,208,c)
);
}
);
width = 696;
}
);
}
{
export = 0;
glyphname = _or.adha_munduli;
layers = (
{
layerId = m01;
shapes = (
{
closed = 0;
nodes = (
(156,283,l),
(127,287,o),
(100,303,o),
(86,318,cs),
(60,346,o),
(45,371,o),
(45,408,cs),
(46,546,o),
(149,643,o),
(270,643,cs),
(358,643,o),
(443,589,o),
(478,516,c)
);
}
);
width = 740;
}
);
}
{
export = 0;
glyphname = _or.ekaar;
layers = (
{
layerId = m01;
shapes = (
{
closed = 0;
nodes = (
(97,318,l),
(313,331,o),
(528,288,o),
(528,165,cs),
(528,86,o),
(484,35,o),
(389,30,cs),
(315,25,o),
(231,43,o),
(182,94,cs),
(112,166,o),
(87,249,o),
(87,328,cs),
(87,414,o),
(106,484,o),
(151,553,cs),
(191,615,o),
(263,645,o),
(331,645,cs),
(424,645,o),
(500,583,o),
(510,516,c)
);
}
);
width = 615;
}
);
}
{
export = 0;
glyphname = _or.ikaar;
layers = (
{
layerId = m01;
shapes = (
{
closed = 0;
nodes = (
(128,529,l),
(91,474,o),
(131,412,o),
(207,416,c)
);
},
{
closed = 0;
nodes = (
(112,338,l),
(141,361,o),
(156,383,o),
(187,403,cs),
(207,416,o),
(246,433,o),
(271,438,c)
);
}
);
width = 735;
}
);
}
{
export = 0;
glyphname = _or.ja_dhama;
layers = (
{
layerId = m01;
shapes = (
{
closed = 0;
nodes = (
(348,286,l),
(320,292,o),
(278,296,o),
(245,290,cs),
(153,276,o),
(129,209,o),
(129,168,cs),
(129,77,o),
(201,42,o),
(264,42,cs),
(308,42,o),
(336,62,o),
(359,89,c),
(326,90,o),
(289,129,o),
(289,188,cs),
(289,281,o),
(395,301,o),
(474,301,c),
(474,44,l)
);
}
);
width = 681;
}
);
}
{
export = 0;
glyphname = "_or.la-puda";
layers = (
{
layerId = m01;
shapes = (
{
closed = 0;
nodes = (
(188,24,l),
(181,87,o),
(169,167,o),
(188,212,cs),
(203,247,o),
(235,260,o),
(263,260,cs),
(313,260,o),
(321,228,o),
(329,212,c),
(329,28,l)
);
},
{
closed = 0;
nodes = (
(470,24,l),
(477,87,o),
(489,167,o),
(470,212,cs),
(455,247,o),
(423,260,o),
(395,260,cs),
(345,260,o),
(337,228,o),
(329,212,c)
);
}
);
width = 843;
}
);
}
{
export = 0;
glyphname = _or_Tta_kaar;
layers = (
{
layerId = m01;
shapes = (
{
closed = 1;
nodes = (
(494,-166,o),
(468,-140,o),
(468,-105,cs),
(468,-70,o),
(494,-43,o),
(525,-43,cs),
(556,-43,o),
(582,-70,o),
(582,-105,cs),
(582,-140,o),
(556,-166,o),
(525,-166,cs)
);
},
{
closed = 0;
nodes = (
(529,-35,l),
(525,-17,o),
(538,6,o),
(556,18,cs),
(578,33,o),
(602,35,o),
(636,22,cs),
(677,6,o),
(709,-33,o),
(720,-64,c)
);
},
{
closed = 0;
nodes = (
(720,-102,l),
(720,191,l)
);
}
);
width = 680;
}
);
}
{
export = 0;
glyphname = _or_e_kaar;
layers = (
{
layerId = m01;
shapes = (
{
closed = 0;
nodes = (
(168,237,l),
(284,248,o),
(356,237,o),
(414,165,cs),
(448,123,o),
(426,28,o),
(334,28,cs),
(199,28,o),
(131,172,o),
(111,279,cs),
(89,395,o),
(102,497,o),
(158,571,cs),
(189,612,o),
(234,643,o),
(280,644,cs),
(387,646,o),
(443,585,o),
(474,509,c)
);
}
);
width = 621;
}
);
}
{
export = 0;
glyphname = _or_t_ma;
layers = (
{
layerId = m01;
shapes = (
{
closed = 0;
nodes = (
(-192,-92,l),
(-192,-215,o),
(-192,-208,o),
(-192,-265,cs),
(-192,-298,o),
(-202,-375,o),
(-292,-375,cs),
(-349,-375,o),
(-372,-328,o),
(-372,-295,cs),
(-372,-252,o),
(-349,-215,o),
(-305,-195,cs),
(-274,-181,o),
(-226,-182,o),
(-192,-182,cs),
(-156,-182,o),
(-122,-182,o),
(-56,-182,c),
(-56,-365,l)
);
}
);
width = 19;
}
);
}
{
export = 0;
glyphname = _or_uu_kaar;
layers = (
{
layerId = m01;
shapes = (
{
closed = 0;
nodes = (
(-173,-59,l),
(-191,-80,o),
(-215,-106,o),
(-238,-122,cs),
(-278,-151,o),
(-294,-150,o),
(-330,-176,cs),
(-359,-197,o),
(-374,-247,o),
(-357,-290,cs),
(-342,-324,o),
(-299,-346,o),
(-265,-344,cs),
(-183,-340,o),
(-150,-284,o),
(-124,-235,c),
(100,-313,l),
(116,-318,o),
(133,-322,o),
(149,-325,c)
);
}
);
width = 0;
}
);
}
{
export = 0;
glyphname = _tha_dha_curve;
layers = (
{
layerId = m01;
shapes = (
{
closed = 0;
nodes = (
(563,219,l),
(536,109,o),
(458,27,o),
(305,27,cs),
(206,27,o),
(93,109,o),
(93,213,cs),
(93,360,o),
(258,429,o),
(380,383,c),
(382,387,l),
(137,619,l)
);
}
);
width = 600;
}
);
}
{
glyphname = "bBa-oriya";
layers = (
{
layerId = m01;
shapes = (
{
closed = 1;
nodes = (
(470,217,l),
(471,222,o),
(471,234,o),
(470,240,q),
(483,259,o),
(502,269,qs),
(516,276,o),
(530,276,qs),
(552,276,o),
(575,257,qs),
(598,238,o),
(609,206,qs),
(617,186,o),
(617,163,q),
(617,163,o),
(617,161,o),
(617,161,q),
(616,127,o),
(535,84,qs),
(517,74,o),
(505,74,qs),
(493,74,o),
(482,88,qs),
(470,102,o),
(470,122,qs),
(470,131,l)
);
},
{
closed = 1;
nodes = (
(378,243,o),
(378,227,qs),
(378,224,o),
(378,219,qs),
(378,138,l),
(356,115,o),
(303,86,o),
(279,86,qs),
(273,86,o),
(254,91,o),
(230,109,o),
(215,142,o),
(215,161,qs),
(215,163,ls),
(216,183,o),
(224,202,qs),
(237,230,o),
(262,248,qs),
(284,263,o),
(307,266,q),
(307,267,l),
(335,273,o),
(349,273,o),
(352,272,qs),
(362,269,o)
);
},
{
closed = 1;
nodes = (
(471,20,qs),
(487,16,o),
(505,16,qs),
(562,16,o),
(617,53,q),
(617,-61,l),
(709,-61,l),
(709,157,ls),
(709,160,o),
(709,163,qs),
(709,192,o),
(700,219,qs),
(684,262,o),
(648,292,qs),
(598,333,o),
(530,333,qs),
(474,333,o),
(430,306,q),
(396,331,o),
(345,331,qs),
(319,331,o),
(284,323,qs),
(267,319,o),
(244,314,o),
(220,314,o),
(210,319,qs),
(189,329,o),
(162,381,o),
(162,415,qs),
(162,437,o),
(168,459,qs),
(181,511,o),
(221,554,qs),
(268,604,o),
(337,627,qs),
(383,643,o),
(432,643,qs),
(516,643,o),
(595,599,qs),
(659,563,o),
(748,450,o),
(794,313,o),
(794,240,qs),
(794,185,o),
(781,133,q),
(869,112,l),
(872,124,ls),
(886,181,o),
(886,240,qs),
(886,319,o),
(835,469,o),
(787,530,qs),
(733,599,o),
(653,644,qs),
(552,700,o),
(432,700,qs),
(360,700,o),
(293,678,qs),
(201,647,o),
(141,582,qs),
(93,530,o),
(77,468,qs),
(70,442,o),
(70,415,qs),
(70,372,o),
(88,337,qs),
(114,286,o),
(170,267,q),
(147,245,o),
(123,190,o),
(123,161,qs),
(123,134,o),
(147,83,o),
(196,43,o),
(230,34,qs),
(254,28,o),
(280,28,qs),
(342,28,o),
(399,62,q),
(425,30,o)
);
}
);
width = 952;
}
);
note = or_b_ba;
}
{
glyphname = "bDa-oriya";
layers = (
{
layerId = m01;
shapes = (
{
closed = 1;
nodes = (
(379,219,qs),
(379,218,l),
(379,138,l),
(357,115,o),
(304,86,o),
(281,86,qs),
(274,86,o),
(255,91,o),
(232,109,o),
(216,142,o),
(216,161,qs),
(216,163,ls),
(217,183,o),
(225,202,qs),
(238,230,o),
(264,248,qs),
(273,255,o),
(284,260,q),
(292,261,o),
(314,265,qs),
(332,269,o),
(343,269,qs),
(358,269,o),
(379,238,o),
(379,221,qs),
(379,220,o)
);
},
{
closed = 1;
nodes = (
(270,320,o),
(250,314,q),
(242,313,o),
(237,313,qs),
(223,313,o),
(212,319,qs),
(190,329,o),
(162,381,o),
(162,416,qs),
(162,437,o),
(168,459,qs),
(182,511,o),
(222,553,qs),
(269,604,o),
(338,626,qs),
(384,642,o),
(434,642,qs),
(517,642,o),
(596,598,qs),
(660,563,o),
(749,450,o),
(795,313,o),
(795,240,qs),
(795,185,o),
(782,133,q),
(870,112,l),
(873,124,ls),
(887,181,o),
(887,240,qs),
(887,319,o),
(837,469,o),
(788,530,qs),
(734,599,o),
(654,643,qs),
(553,699,o),
(434,699,qs),
(361,699,o),
(295,677,qs),
(202,647,o),
(142,583,qs),
(93,531,o),
(77,468,qs),
(70,442,o),
(70,416,qs),
(70,372,o),
(89,337,qs),
(115,286,o),
(171,267,q),
(149,245,o),
(124,190,o),
(124,161,qs),
(124,134,o),
(148,83,o),
(197,43,o),
(231,34,qs),
(255,28,o),
(281,28,qs),
(338,28,o),
(391,57,qs),
(399,61,o),
(407,66,q),
(407,66,o),
(407,66,q),
(431,40,o),
(470,31,qs),
(488,26,o),
(508,26,qs),
(569,26,o),
(618,65,q),
(618,-29,l),
(710,-29,l),
(710,312,l),
(664,312,l),
(662,312,l),
(615,312,l),
(616,278,o),
(616,274,qs),
(616,220,o),
(596,172,qs),
(573,116,o),
(534,93,qs),
(520,84,o),
(497,84,o),
(486,96,qs),
(474,109,o),
(471,126,q),
(471,218,ls),
(471,219,o),
(471,221,qs),
(471,250,o),
(455,275,qs),
(435,304,o),
(398,317,qs),
(373,326,o),
(342,326,qs),
(323,326,o),
(301,323,q),
(301,324,l)
);
}
);
width = 955;
}
);
note = or_b_da;
}
{
glyphname = "bRa-oriya";
layers = (
{
layerId = m01;
shapes = (
{
closed = 1;
nodes = (
(201,126,o),
(248,89,o),
(279,78,qs),
(321,62,o),
(370,62,qs),
(426,62,o),
(474,83,q),
(474,-67,l),
(566,-67,l),
(566,156,l),
(566,156,l),
(566,251,l),
(555,301,o),
(514,331,qs),
(468,365,o),
(397,365,qs),
(359,365,o),
(300,351,qs),
(248,338,o),
(229,338,qs),
(202,338,o),
(182,355,qs),
(149,382,o),
(149,436,qs),
(149,461,o),
(162,491,qs),
(184,541,o),
(234,579,qs),
(279,612,o),
(332,625,qs),
(361,632,o),
(391,632,qs),
(435,632,o),
(477,617,qs),
(553,589,o),
(661,445,o),
(678,336,qs),
(686,280,o),
(686,200,qs),
(686,179,o),
(685,132,o),
(685,126,qs),
(683,-2,o),
(670,-63,qs),
(655,-132,o),
(623,-157,qs),
(607,-170,o),
(565,-178,o),
(509,-179,o),
(491,-179,qs),
(311,-179,o),
(120,-151,q),
(111,-209,l),
(300,-237,o),
(491,-237,qs),
(510,-237,o),
(529,-236,qs),
(579,-236,o),
(609,-230,qs),
(661,-220,o),
(694,-194,qs),
(723,-172,o),
(741,-135,qs),
(753,-109,o),
(761,-71,qs),
(775,-6,o),
(778,125,qs),
(778,129,o),
(778,156,qs),
(778,178,o),
(778,200,qs),
(778,283,o),
(769,342,qs),
(751,460,o),
(689,542,qs),
(625,629,o),
(523,667,qs),
(460,690,o),
(391,690,qs),
(344,690,o),
(299,679,qs),
(223,660,o),
(100,569,o),
(73,506,qs),
(57,469,o),
(57,432,qs),
(57,403,o),
(67,378,qs),
(80,344,o),
(109,320,qs),
(147,288,o),
(203,282,q),
(176,245,o),
(176,203,qs),
(176,175,o)
);
},
{
closed = 1;
nodes = (
(444,294,qs),
(467,277,o),
(474,247,q),
(474,169,l),
(454,146,o),
(401,120,o),
(370,120,qs),
(346,120,o),
(325,128,qs),
(291,140,o),
(276,169,qs),
(268,184,o),
(268,224,o),
(278,243,qs),
(290,267,o),
(312,283,qs),
(331,295,o),
(350,298,q),
(350,301,l),
(380,307,o),
(397,307,qs),
(425,307,o)
);
}
);
width = 819;
}
);
note = or_b_ra;
}
{
glyphname = "baUsign-oriya";
layers = (
{
backgroundImage = {
imagePath = "../../../../bu.png";
};
layerId = m01;
shapes = (
{
closed = 1;
nodes = (
(239,262,o),
(277,298,o),
(331,298,cs),
(390,298,o),
(432,262,o),
(432,211,cs),
(432,157,o),
(390,119,o),
(331,119,cs),
(277,119,o),
(239,157,o),
(239,211,cs)
);
},
{
closed = 1;
nodes = (
(435,97,l),
(442,-11,l),
(499,-11,l),
(501,207,l),
(501,217,ls),
(498,300,o),
(429,354,o),
(331,354,cs),
(316,354,o),
(291,354,o),
(265,352,cs),
(233,352,o),
(214,352,o),
(183,364,cs),
(164,373,o),
(140,383,o),
(140,430,cs),
(140,541,o),
(220,611,o),
(347,611,cs),
(503,611,o),
(580,506,o),
(598,341,cs),
(612,213,o),
(584,76,o),
(536,-90,c),
(518,-88,o),
(483,-86,o),
(468,-86,cs),
(399,-86,o),
(349,-138,o),
(338,-182,cs),
(327,-224,o),
(343,-275,o),
(399,-307,cs),
(462,-343,o),
(535,-319,o),
(558,-296,cs),
(591,-263,o),
(593,-202,o),
(593,-168,c),
(647,-188,o),
(721,-219,o),
(773,-234,cs),
(837,-253,o),
(933,-243,o),
(958,-235,cs),
(984,-227,l),
(964,-177,l),
(938,-185,ls),
(919,-191,o),
(845,-196,o),
(793,-180,cs),
(741,-164,o),
(664,-127,o),
(599,-108,c),
(653,58,o),
(679,213,o),
(668,340,cs),
(651,537,o),
(537,672,o),
(347,672,cs),
(184,672,o),
(70,576,o),
(70,430,cs),
(70,384,o),
(103,337,o),
(150,315,cs),
(161,310,o),
(171,307,o),
(182,304,c),
(188,290,l),
(191,284,l),
(176,262,o),
(166,230,o),
(166,207,cs),
(166,124,o),
(232,66,o),
(327,66,cs),
(362,66,o),
(393,77,o),
(417,94,c)
);
},
{
closed = 1;
nodes = (
(407,-181,o),
(427,-140,o),
(465,-136,cs),
(485,-133,o),
(512,-140,o),
(532,-147,c),
(525,-228,o),
(518,-257,o),
(496,-268,cs),
(474,-279,o),
(446,-278,o),
(425,-262,cs),
(403,-244,o),
(404,-219,o),
(404,-210,cs)
);
}
);
width = 732;
}
);
note = or_b_ukaar;
}
{
glyphname = "baYya-oriya";
layers = (
{
backgroundImage = {
imagePath = "../../../../ba.png";
pos = (6,0);
};
layerId = m01;
shapes = (
{
closed = 1;
nodes = (
(219,262,o),
(257,298,o),
(311,298,cs),
(370,298,o),
(412,262,o),
(412,211,cs),
(412,157,o),
(370,119,o),
(311,119,cs),
(257,119,o),
(219,157,o),
(219,211,cs)
);
},
{
closed = 1;
nodes = (
(414,118,l),
(422,-11,l),
(479,-11,l),
(481,217,l),
(418,215,l)
);
},
{
closed = 1;
nodes = (
(418,97,l),
(411,134,l),
(389,96,l),
(394,93,l),
(409,96,l)
);
},
{
closed = 1;
nodes = (
(184,299,l),
(162,280,o),
(146,236,o),
(146,207,cs),
(146,124,o),
(212,66,o),
(307,66,cs),
(357,66,o),
(398,87,o),
(423,118,cs),
(449,150,o),
(481,167,o),
(481,211,cs),
(481,298,o),
(411,354,o),
(311,354,cs),
(296,354,o),
(271,354,o),
(245,352,c)
);
},
{
closed = 1;
nodes = (
(171,284,l),
(205,295,l),
(164,310,l),
(162,304,l),
(168,290,l)
);
},
{
closed = 1;
nodes = (
(788,17,l),
(850,17,l),
(850,506,l),
(788,506,l)
);
},
{
closed = 1;
nodes = (
(837,258,l),
(818,272,l),
(797,247,ls),
(767,211,o),
(741,199,o),
(714,199,cs),
(632,199,o),
(642,289,o),
(642,340,cs),
(643,547,o),
(512,672,o),
(327,672,cs),
(164,672,o),
(50,576,o),
(50,430,cs),
(50,384,o),
(83,337,o),
(130,315,cs),
(176,295,o),
(213,296,o),
(246,296,cs),
(274,296,l),
(274,352,l),
(246,352,ls),
(213,352,o),
(194,352,o),
(163,364,cs),
(144,373,o),
(120,383,o),
(120,430,cs),
(120,541,o),
(200,611,o),
(327,611,cs),
(478,611,o),
(572,502,o),
(572,336,cs),
(572,221,o),
(608,134,o),
(714,134,cs),
(763,134,o),
(807,161,o),
(837,196,c)
);
}
);
width = 890;
}
);
note = or_ba;
}
{
glyphname = "bh_aasign-oriya";
layers = (
{
background = {
shapes = (
{
closed = 1;
nodes = (
(643,8,l),
(705,8,l),
(705,663,l),
(643,663,l)
);
}
);
};
hints = (
{
name = _corner.square;
origin = (0,10);
type = Corner;
},
{
name = _corner.tailBottom;
origin = (3,7);
type = Corner;
},
{
name = _corner.tailLeft;
origin = (4,1);
type = Corner;
}
);
layerId = m01;
shapes = (
{
closed = 1;
nodes = (
(210,184,o),
(229,228,o),
(257,256,cs),
(264,263,l),
(279,267,l),
(282,206,o),
(333,163,o),
(408,163,cs),
(444,163,o),
(458,183,o),
(480,196,c),
(478,170,o),
(458,123,o),
(448,105,cs),
(428,74,o),
(376,50,o),
(307,55,cs),
(250,59,o),
(210,98,o),
(210,149,cs)
);
},
{
closed = 1;
nodes = (
(613,326,o),
(618,388,o),
(625,518,c),
(563,604,o),
(433,671,o),
(329,671,cs),
(184,671,o),
(70,565,o),
(70,429,cs),
(70,352,o),
(123,280,o),
(189,265,c),
(162,229,o),
(142,182,o),
(142,149,cs),
(142,68,o),
(211,7,o),
(307,1,cs),
(394,-5,o),
(481,32,o),
(507,82,cs),
(527,121,o),
(538,158,o),
(531,220,cs),
(525,274,l),
(467,284,l),
(452,246,o),
(427,216,o),
(408,217,cs),
(371,218,o),
(350,243,o),
(350,275,c),
(352,313,l),
(300,338,l),
(231,312,l),
(180,313,o),
(140,364,o),
(140,429,cs),
(140,533,o),
(220,609,o),
(329,609,cs),
(478,609,o),
(611,497,o),
(614,346,cs)
);
},
{
closed = 0;
nodes = (
(625,76,l)
);
},
{
closed = 1;
nodes = (
(431,83,l),
(424,72,o),
(411,63,o),
(403,51,cs),
(382,20,o),
(389,-16,o),
(414,-32,c),
(644,-159,l),
(678,-111,l),
(458,15,l),
(458,20,l),
(458,21,o),
(468,32,o),
(482,51,c)
);
},
{
closed = 1;
nodes = (
(596,544,l),
(601,17,l),
(663,17,l),
(663,672,l),
(609,672,l)
);
},
{
pos = (23,-265);
ref = _or.inktrap;
scale = (1,1.452);
}
);
width = 735;
}
);
note = or_bh_aakaar;
}
{
glyphname = "bh_isign-oriya";
layers = (
{
layerId = m01;
shapes = (
{
closed = 1;
nodes = (
(131,68,qs),
(142,40,o),
(163,17,qs),
(188,-11,o),
(253,-43,o),
(294,-48,qs),
(301,-49,o),
(317,-50,o),
(325,-50,qs),
(355,-50,o),
(415,-36,o),
(443,-22,qs),
(502,8,o),
(542,59,qs),
(583,112,o),
(594,176,q),
(595,333,l),
(514,333,l),
(513,242,l),
(509,236,o),
(500,224,o),
(494,220,qs),
(487,215,o),
(475,210,o),
(470,210,qs),
(468,210,o),
(464,211,o),
(462,211,q),
(455,213,o),
(443,221,o),
(438,227,qs),
(429,238,o),
(423,251,qs),
(418,265,o),
(419,281,qs),
(419,286,o),
(420,292,qs),
(420,297,o),
(422,303,qs),
(438,346,l),
(355,376,l),
(348,359,l),
(332,316,ls),
(329,307,o),
(328,298,qs),
(327,288,o),
(326,279,qs),
(326,257,o),
(335,236,qs),
(343,214,o),
(359,198,qs),
(371,185,o),
(386,175,qs),
(414,158,o),
(445,154,qs),
(480,150,o),
(511,167,q),
(520,156,l),
(507,110,o),
(440,39,o),
(395,23,qs),
(359,10,o),
(324,13,qs),
(300,14,o),
(280,22,qs),
(258,30,o),
(242,46,qs),
(228,62,o),
(220,83,qs),
(212,103,o),
(212,126,qs),
(213,145,o),
(224,179,o),
(235,195,qs),
(239,200,o),
(244,205,qs),
(248,210,o),
(253,215,qs),
(264,224,l),
(261,236,l),
(260,240,l),
(256,260,l),
(225,264,ls),
(200,268,o),
(180,275,qs),
(160,282,o),
(137,294,q),
(139,304,o),
(146,322,o),
(150,330,qs),
(161,353,o),
(178,373,qs),
(195,392,o),
(217,406,qs),
(232,416,o),
(248,423,qs),
(263,429,o),
(281,432,qs),
(316,437,l),
(316,460,l),
(316,463,l),
(316,498,l),
(262,492,ls),
(238,489,o),
(219,488,qs),
(199,486,o),
(175,486,q),
(173,492,o),
(171,504,o),
(171,510,qs),
(171,527,o),
(187,559,o),
(203,572,qs),
(213,581,o),
(227,588,qs),
(240,595,o),
(259,602,qs),
(289,613,o),
(320,618,qs),
(351,624,o),
(382,624,qs),
(431,624,o),
(475,610,qs),
(520,597,o),
(559,570,qs),
(622,526,o),
(688,394,o),
(688,307,qs),
(687,233,o),
(665,158,qs),
(647,92,o),
(599,24,qs),
(595,19,l),
(595,13,l),
(595,5,l),
(595,-6,l),
(753,-113,l),
(763,-121,o),
(771,-124,qs),
(778,-127,o),
(791,-132,qs),
(814,-139,o),
(832,-142,qs),
(846,-144,l),
(855,-86,l),
(853,-86,o),
(840,-82,o),
(837,-81,qs),
(831,-80,o),
(827,-78,qs),
(824,-76,o),
(819,-73,qs),
(692,13,l),
(736,78,o),
(758,154,qs),
(780,229,o),
(780,307,qs),
(780,406,o),
(741,481,qs),
(703,557,o),
(627,609,qs),
(574,645,o),
(513,663,qs),
(452,681,o),
(382,681,qs),
(338,681,o),
(297,674,qs),
(254,666,o),
(213,652,qs),
(186,642,o),
(165,631,qs),
(146,620,o),
(129,606,qs),
(102,584,o),
(91,561,qs),
(83,543,o),
(84,523,qs),
(85,504,o),
(95,486,qs),
(111,455,o),
(144,439,q),
(146,431,l),
(120,421,o),
(99,401,qs),
(77,380,o),
(62,347,qs),
(55,333,o),
(50,318,qs),
(45,304,o),
(42,287,qs),
(40,274,l),
(54,264,ls),
(79,248,o),
(101,238,qs),
(124,228,o),
(151,219,q),
(136,199,o),
(128,175,qs),
(120,151,o),
(120,126,qs),
(120,95,o)
);
}
);
width = 827;
}
);
note = or_bh_ikaar;
}
{
glyphname = "bhaRvocalic-oriya";
layers = (
{
layerId = m01;
shapes = (
{
closed = 1;
nodes = (
(440,319,q),
(461,364,l),
(381,400,l),
(372,380,l),
(351,334,l),
(350,333,l),
(344,313,o),
(344,293,qs),
(344,260,o),
(359,232,qs),
(388,179,o),
(451,162,qs),
(474,156,o),
(498,156,qs),
(517,156,o),
(535,160,q),
(515,116,o),
(478,83,qs),
(426,37,o),
(361,29,qs),
(351,28,o),
(342,28,qs),
(298,28,o),
(271,56,qs),
(248,80,o),
(248,114,qs),
(248,161,o),
(294,214,qs),
(309,230,o),
(325,244,qs),
(336,254,l),
(333,265,l),
(332,270,l),
(321,312,l),
(226,276,ls),
(220,273,o),
(216,273,qs),
(206,273,o),
(194,283,qs),
(184,292,o),
(175,309,qs),
(162,337,o),
(162,376,qs),
(162,443,o),
(202,502,qs),
(245,565,o),
(322,602,qs),
(390,633,o),
(458,633,qs),
(520,633,o),
(576,607,qs),
(641,576,o),
(681,516,qs),
(724,452,o),
(724,376,qs),
(724,321,o),
(693,232,qs),
(690,224,o),
(684,207,qs),
(654,124,o),
(646,80,qs),
(641,52,o),
(641,27,qs),
(641,-51,o),
(685,-103,qs),
(717,-141,o),
(765,-154,qs),
(788,-161,o),
(813,-161,qs),
(851,-161,o),
(911,-131,o),
(930,-107,qs),
(960,-68,o),
(960,-13,qs),
(960,11,o),
(946,72,o),
(930,94,qs),
(917,110,o),
(899,120,qs),
(875,134,o),
(844,134,qs),
(803,134,o),
(774,109,qs),
(756,94,o),
(736,48,o),
(736,23,q),
(828,22,l),
(828,23,ls),
(828,40,o),
(839,64,o),
(844,71,q),
(856,58,o),
(862,31,qs),
(867,7,o),
(867,-13,qs),
(867,-55,o),
(847,-81,qs),
(837,-94,o),
(826,-100,qs),
(819,-103,o),
(808,-103,o),
(803,-102,qs),
(784,-96,o),
(766,-76,qs),
(733,-37,o),
(733,29,qs),
(733,49,o),
(738,73,qs),
(745,114,o),
(774,194,qs),
(780,211,o),
(783,219,qs),
(817,314,o),
(817,376,qs),
(817,464,o),
(766,538,qs),
(716,612,o),
(552,691,o),
(359,691,o),
(267,648,qs),
(170,602,o),
(117,524,qs),
(70,454,o),
(70,376,qs),
(70,359,o),
(73,342,qs),
(82,281,o),
(122,248,qs),
(152,223,o),
(194,217,q),
(156,165,o),
(156,63,o),
(192,26,qs),
(214,3,o),
(246,-11,qs),
(287,-29,o),
(338,-30,q),
(352,-38,ls),
(442,-91,o),
(527,-153,qs),
(593,-201,o),
(621,-238,qs),
(635,-257,o),
(644,-278,qs),
(654,-299,l),
(733,-262,l),
(721,-237,o),
(704,-214,qs),
(671,-170,o),
(594,-113,qs),
(522,-61,o),
(444,-13,q),
(505,7,o),
(554,50,qs),
(622,112,o),
(644,202,q),
(645,351,l),
(552,352,l),
(552,257,l),
(540,230,o),
(516,218,qs),
(507,214,o),
(493,214,o),
(488,215,qs),
(462,222,o),
(447,251,qs),
(436,270,o),
(436,293,qs),
(436,307,o)
);
}
);
width = 927;
}
);
note = or_bh_rukaar;
}
{
glyphname = "bhaUsign-oriya";
layers = (
{
layerId = m01;
shapes = (
{
closed = 1;
nodes = (
(443,344,q),
(462,374,l),
(391,419,l),
(376,395,l),
(354,361,l),
(352,357,l),
(350,343,o),
(350,334,qs),
(350,308,o),
(360,283,qs),
(373,248,o),
(403,224,qs),
(451,185,o),
(517,185,qs),
(530,185,o),
(542,186,q),
(542,179,l),
(497,136,o),
(400,63,o),
(340,37,o),
(317,37,qs),
(280,37,o),
(254,68,qs),
(233,93,o),
(233,157,o),
(256,189,qs),
(270,207,o),
(299,233,qs),
(313,245,o),
(339,267,q),
(336,279,l),
(335,283,l),
(324,328,l),
(224,286,ls),
(219,284,o),
(214,284,qs),
(205,284,o),
(193,294,qs),
(182,303,o),
(174,320,qs),
(162,345,o),
(162,381,qs),
(162,421,o),
(179,461,qs),
(212,540,o),
(289,586,qs),
(358,626,o),
(443,626,qs),
(542,626,o),
(617,572,qs),
(658,542,o),
(714,450,o),
(720,399,qs),
(722,385,o),
(722,352,o),
(720,328,qs),
(710,185,o),
(669,45,q),
(663,-22,l),
(658,-20,o),
(653,-19,qs),
(617,-9,o),
(539,-9,o),
(500,-18,qs),
(398,-43,o),
(361,-112,qs),
(348,-138,o),
(348,-166,qs),
(348,-208,o),
(406,-279,o),
(457,-294,qs),
(486,-303,o),
(519,-303,qs),
(584,-303,o),
(646,-269,qs),
(688,-245,o),
(721,-210,q),
(722,-217,o),
(722,-224,qs),
(722,-253,o),
(711,-312,qs),
(706,-339,o),
(703,-359,q),
(794,-372,l),
(798,-345,o),
(803,-319,qs),
(814,-256,o),
(814,-224,qs),
(814,-138,o),
(755,-78,qs),
(753,-76,o),
(751,-73,q),
(761,38,l),
(802,179,o),
(812,326,qs),
(814,351,o),
(814,368,qs),
(814,450,o),
(772,518,qs),
(739,572,o),
(687,610,qs),
(584,684,o),
(443,684,qs),
(321,684,o),
(226,628,qs),
(129,571,o),
(90,476,qs),
(70,428,o),
(70,381,qs),
(70,366,o),
(71,353,qs),
(80,292,o),
(120,258,qs),
(148,236,o),
(185,229,q),
(141,178,o),
(141,126,qs),
(141,79,o),
(172,41,qs),
(211,-6,o),
(279,-17,qs),
(297,-20,o),
(317,-20,qs),
(368,-20,o),
(420,2,qs),
(463,20,o),
(575,105,o),
(634,161,q),
(636,348,l),
(544,349,l),
(543,249,l),
(509,232,o),
(477,258,qs),
(458,274,o),
(442,315,o),
(442,334,qs),
(442,339,o)
);
},
{
closed = 1;
nodes = (
(585,-226,qs),
(549,-245,o),
(519,-245,qs),
(482,-245,o),
(457,-215,qs),
(440,-194,o),
(440,-166,qs),
(440,-147,o),
(450,-129,qs),
(472,-87,o),
(533,-72,qs),
(556,-66,o),
(577,-66,qs),
(642,-66,o),
(685,-117,q),
(651,-189,o)
);
}
);
width = 861;
}
);
note = or_bh_ukaar;
}
{
glyphname = "caAasign-oriya";
layers = (
{
backgroundImage = {
imagePath = "../../../../caa.png";
};
layerId = m01;
shapes = (
{
closed = 1;
nodes = (
(588,549,l),
(578,505,l),
(587,-33,l),
(650,-33,l),
(650,646,l),
(593,646,l)
);
},
{
closed = 1;
nodes = (
(576,572,l),
(601,539,l),
(600,589,l),
(602,588,l)
);
},
{
closed = 1;
nodes = (
(698,-265,l),
(678,-245,l),
(708,-221,o),
(742,-182,o),
(743,-145,cs),
(746,-37,o),
(650,24,o),
(564,-7,cs),
(510,-28,o),
(473,-95,o),
(493,-157,c),
(596,-157,l),
(594,-123,l),
(553,-105,l),
(553,-93,o),
(568,-65,o),
(587,-60,cs),
(634,-49,o),
(683,-80,o),
(679,-134,cs),
(676,-167,o),
(642,-205,o),
(609,-227,c),
(603,-270,l),
(657,-308,l),
(742,-354,l),
(764,-319,l)
);
},
{
closed = 1;
nodes = (
(597,555,l),
(541,627,o),
(452,671,o),
(333,671,cs),
(186,671,o),
(70,565,o),
(70,429,cs),
(70,380,o),
(84,327,o),
(101,292,cs),
(116,261,o),
(155,237,o),
(207,222,c),
(189,197,o),
(181,157,o),
(181,141,cs),
(181,62,o),
(252,0,o),
(342,0,cs),
(436,0,o),
(502,54,o),
(502,141,cs),
(502,223,o),
(432,281,o),
(342,281,cs),
(282,281,o),
(228,270,o),
(183,295,cs),
(163,306,o),
(140,375,o),
(140,429,cs),
(140,533,o),
(225,609,o),
(333,609,cs),
(466,609,o),
(549,548,o),
(583,453,c)
);
},
{
closed = 1;
nodes = (
(250,194,o),
(288,232,o),
(342,232,cs),
(394,232,o),
(437,194,o),
(437,141,cs),
(437,87,o),
(394,49,o),
(342,49,cs),
(288,49,o),
(250,87,o),
(250,141,cs)
);
}
);
width = 721;
}
);
note = or_c_aakaar;
}
{
glyphname = "dDha-oriya";
layers = (
{
backgroundImage = {
imagePath = "../../../../da-dha.png";
pos = (3,20);
scale = (2.3232,2.3232);
};
layerId = m01;
shapes = (
{
closed = 1;
nodes = (
(592,118,l),
(603,-11,l),
(660,-11,l),
(662,217,l),
(596,215,l)
);
},
{
closed = 1;
nodes = (
(599,99,l),
(589,136,l),
(567,98,l),
(575,95,l),
(587,98,l)
);
},
{
closed = 1;
nodes = (
(381,143,l),
(365,129,o),
(342,120,o),
(310,120,cs),
(256,120,o),
(207,157,o),
(207,211,cs),
(207,257,o),
(236,300,o),
(294,315,c),
(166,335,l),
(166,292,l),
(147,271,o),
(134,236,o),
(134,207,cs),
(134,124,o),
(205,59,o),
(305,59,cs),
(348,59,o),
(390,83,o),
(418,106,c)
);
},
{
closed = 1;
nodes = (
(384,110,l),
(412,82,o),
(445,59,o),
(495,59,cs),
(540,59,o),
(574,89,o),
(601,118,cs),
(630,150,o),
(662,167,o),
(662,211,cs),
(662,338,l),
(606,328,l),
(605,317,o),
(594,228,o),
(589,212,cs),
(573,160,o),
(547,120,o),
(500,120,cs),
(446,120,o),
(417,157,o),
(417,211,c)
);
},
{
closed = 1;
nodes = (
(375,204,o),
(374,151,o),
(363,131,c),
(440,131,l),
(432,169,o),
(432,206,o),
(430,244,c),
(378,244,l)
);
},
{
closed = 1;
nodes = (
(829,254,o),
(835,282,o),
(835,336,c),
(835,522,o),
(661,672,o),
(426,672,cs),
(215,672,o),
(70,574,o),
(70,437,cs),
(70,360,o),
(125,319,o),
(159,307,cs),
(181,300,o),
(203,286,o),
(222,286,c),
(342,310,l),
(338,356,l),
(310,353,ls),
(263,349,o),
(231,345,o),
(182,355,cs),
(157,363,o),
(140,394,o),
(140,437,cs),
(140,534,o),
(238,609,o),
(426,609,cs),
(640,609,o),
(765,503,o),
(765,344,c),
(758,177,l),
(812,176,l)
);
},
{
closed = 1;
nodes = (
(662,339,l),
(139,560,l),
(110,508,l),
(650,280,l),
(662,326,l)
);
}
);
width = 905;
}
);
note = or_d_dha;
}
{
glyphname = "dRa-oriya";
layers = (
{
layerId = m01;
shapes = (
{
closed = 1;
nodes = (
(283,186,qs),
(298,217,o),
(324,245,q),
(324,245,o),
(324,245,q),
(324,245,l),
(335,257,o),
(347,269,q),
(297,324,l),
(271,301,ls),
(257,288,o),
(245,275,q),
(232,264,o),
(220,260,qs),
(216,259,o),
(211,259,o),
(203,267,qs),
(197,273,o),
(191,285,qs),
(175,319,o),
(175,376,qs),
(175,475,o),
(230,545,qs),
(275,600,o),
(339,624,qs),
(377,637,o),
(415,637,qs),
(489,637,o),
(551,588,qs),
(584,561,o),
(607,525,qs),
(647,462,o),
(665,344,qs),
(680,245,o),
(682,147,qs),
(683,127,o),
(683,54,o),
(679,1,qs),
(675,-63,o),
(594,-156,o),
(528,-173,qs),
(493,-182,o),
(452,-182,qs),
(428,-182,o),
(401,-179,qs),
(235,-161,o),
(99,-61,qs),
(71,-41,l),
(29,-98,l),
(187,-215,o),
(385,-236,qs),
(420,-240,o),
(452,-240,qs),
(511,-240,o),
(562,-227,qs),
(659,-202,o),
(715,-137,qs),
(767,-78,o),
(771,-1,qs),
(775,53,o),
(775,107,qs),
(775,228,o),
(756,350,qs),
(737,475,o),
(693,546,qs),
(633,641,o),
(525,677,qs),
(473,695,o),
(352,695,o),
(293,674,qs),
(205,642,o),
(149,571,qs),
(83,489,o),
(83,376,qs),
(83,310,o),
(103,268,qs),
(112,249,o),
(143,218,o),
(166,209,qs),
(180,204,o),
(194,202,q),
(175,162,o),
(175,125,qs),
(175,102,o),
(183,81,qs),
(201,31,o),
(256,8,qs),
(288,-5,o),
(325,-5,qs),
(352,-5,o),
(379,2,qs),
(436,17,o),
(478,58,q),
(478,-51,l),
(570,-51,l),
(570,280,l),
(524,280,l),
(521,280,l),
(477,280,l),
(475,253,ls),
(469,183,o),
(392,68,o),
(342,55,qs),
(333,52,o),
(316,52,o),
(307,56,qs),
(283,66,o),
(272,95,qs),
(267,109,o),
(267,133,o),
(268,140,qs),
(271,162,o)
);
}
);
width = 797;
}
);
note = or_d_ra;
}
{
glyphname = "daDaReph-oriya";
layers = (
{
backgroundImage = {
imagePath = "../../../../rb.png";
scale = (2.6019,2.6019);
};
layerId = m01;
shapes = (
{
closed = 1;
nodes = (
(592,118,l),
(603,-11,l),
(660,-11,l),
(662,217,l),
(596,215,l)
);
},
{
closed = 1;
nodes = (
(599,99,l),
(589,136,l),
(567,98,l),
(575,95,l),
(587,98,l)
);
},
{
closed = 1;
nodes = (
(381,143,l),
(365,129,o),
(342,120,o),
(310,120,cs),
(256,120,o),
(207,157,o),
(207,211,cs),
(207,257,o),
(236,300,o),
(294,315,c),
(166,335,l),
(166,292,l),
(147,271,o),
(134,236,o),
(134,207,cs),
(134,124,o),
(205,59,o),
(305,59,cs),
(348,59,o),
(390,83,o),
(418,106,c)
);
},
{
closed = 1;
nodes = (
(384,110,l),
(412,82,o),
(445,59,o),
(495,59,cs),
(540,59,o),
(574,89,o),
(601,118,cs),
(630,150,o),
(662,167,o),
(662,211,cs),
(662,302,l),
(606,292,l),
(605,281,o),
(594,228,o),
(589,212,cs),
(573,160,o),
(547,120,o),
(500,120,cs),
(446,120,o),
(417,157,o),
(417,211,c)
);
},
{
closed = 1;
nodes = (
(375,204,o),
(374,151,o),
(363,131,c),
(440,131,l),
(432,169,o),
(432,206,o),
(430,244,c),
(378,244,l)
);
},
{
closed = 1;
nodes = (
(720,564,l),
(671,624,o),
(542,672,o),
(426,672,cs),
(227,672,o),
(70,569,o),
(70,437,cs),
(70,360,o),
(125,319,o),
(159,307,cs),
(181,300,o),
(203,286,o),
(222,286,c),
(342,310,l),
(338,356,l),
(310,353,ls),
(263,349,o),
(231,345,o),
(182,355,c),
(157,363,o),
(140,394,o),
(140,437,cs),
(140,534,o),
(278,609,o),
(426,609,cs),
(509,609,o),
(567,604,o),
(686,519,c)
);
},
{
closed = 1;
nodes = (
(806,398,o),
(881,436,o),
(886,519,cs),
(889,578,o),
(866,643,o),
(778,657,cs),
(706,668,o),
(662,629,o),
(636,600,cs),
(615,576,l),
(667,538,l),
(688,562,ls),
(714,591,o),
(734,608,o),
(768,601,cs),
(803,594,o),
(819,560,o),
(816,523,cs),
(810,451,o),
(779,466,o),
(752,422,c),
(728,367,l),
(776,344,l),
(797,381,ls)
);
}
);
width = 905;
}
);
note = or_d_da;
}
{
glyphname = "daIi-oriya";
layers = (
{
layerId = m01;
shapes = (
{
closed = 1;
nodes = (
(484,118,l),
(495,-11,l),
(552,-11,l),
(554,217,l),
(488,215,l)
);
},
{
closed = 1;
nodes = (
(461,99,l),
(451,136,l),
(429,98,l),
(437,95,l),
(449,98,l)
);
},
{
closed = 1;
nodes = (
(235,302,l),
(216,281,o),
(206,236,o),
(206,207,cs),
(206,124,o),
(272,66,o),
(367,66,cs),
(417,66,o),
(466,89,o),
(493,118,cs),
(522,150,o),
(554,167,o),
(554,211,cs),
(554,302,l),
(498,292,l),
(497,281,o),
(486,228,o),
(481,212,cs),
(465,160,o),
(441,120,o),
(372,120,cs),
(318,120,o),
(275,157,o),
(275,211,cs),
(275,257,o),
(286,247,o),
(371,276,c),
(367,314,l)
);
},
{
closed = 1;
nodes = (
(198,279,l),
(232,290,l),
(191,305,l),
(189,299,l),
(195,285,l)
);
},
{
closed = 1;
nodes = (
(256,298,l),
(215,307,o),
(190,320,o),
(169,339,cs),
(158,349,o),
(140,381,o),
(140,408,cs),
(140,525,o),
(210,615,o),
(330,615,cs),
(442,615,o),
(489,497,o),
(492,435,c),
(548,435,l),
(554,518,o),
(615,603,o),
(650,608,cs),
(665,610,o),
(676,600,o),
(679,575,c),
(679,-7,l),
(749,-7,l),
(749,577,l),
(749,640,o),
(686,675,o),
(624,660,cs),
(549,644,o),
(496,508,o),
(494,485,c),
(548,485,l),
(547,513,o),
(496,671,o),
(330,671,cs),
(169,671,o),
(70,554,o),
(70,408,cs),
(70,382,o),
(82,333,o),
(123,297,cs),
(147,276,o),
(177,258,o),
(229,246,c)
);
}
);
width = 819;
}
);
note = or_d_iikaar;
}
{
glyphname = "daIsign-oriya";
layers = (
{
background = {
shapes = (
{
closed = 1;
nodes = (
(122,127,qs),
(143,75,o),
(202,52,qs),
(233,40,o),
(298,40,o),
(326,48,qs),
(392,65,o),
(447,117,q),
(447,-26,l),
(539,-26,l),
(539,308,l),
(447,308,l),
(447,264,l),
(423,205,o),
(336,113,o),
(291,101,qs),
(280,98,o),
(259,98,o),
(250,102,qs),
(223,112,o),
(212,141,qs),
(206,156,o),
(206,174,qs),
(206,202,o),
(223,232,qs),
(236,256,o),
(257,274,qs),
(294,303,l),
(310,315,l),
(277,380,l),
(186,316,l),
(171,309,o),
(156,309,qs),
(124,309,o),
(96,336,q),
(101,388,o),
(137,422,qs),
(162,445,o),
(191,451,q),
(316,460,l),
(316,485,l),
(316,489,l),
(316,515,l),
(274,518,ls),
(199,523,o),
(134,565,q),
(141,585,o),
(153,601,qs),
(171,624,o),
(225,653,o),
(285,665,o),
(315,665,qs),
(372,665,o),
(429,645,qs),
(524,611,o),
(622,455,o),
(622,336,qs),
(622,242,o),
(594,152,q),
(680,126,l),
(685,141,ls),
(714,236,o),
(714,336,qs),
(714,466,o),
(660,552,qs),
(597,651,o),
(475,695,qs),
(397,722,o),
(315,722,qs),
(271,722,o),
(179,704,o),
(97,660,o),
(70,626,qs),
(47,596,o),
(39,561,qs),
(35,548,l),
(49,538,ls),
(84,512,o),
(125,494,q),
(88,480,o),
(60,454,qs),
(6,403,o),
(4,330,qs),
(3,322,l),
(9,315,ls),
(46,273,o),
(103,258,qs),
(119,254,o),
(136,253,q),
(114,213,o),
(114,174,qs),
(114,149,o)
);
}
);
};
layerId = m01;
shapes = (
{
closed = 1;
nodes = (
(150,254,l),
(184,265,l),
(143,280,l),
(141,274,l),
(147,260,l)
);
},
{
closed = 1;
nodes = (
(267,316,l),
(275,353,l),
(239,342,ls),
(192,328,o),
(129,331,o),
(118,351,cs),
(94,395,o),
(185,435,o),
(215,448,cs),
(241,459,l),
(227,502,l),
(199,494,ls),
(142,478,o),
(5,429,o),
(65,318,cs),
(87,276,o),
(132,272,o),
(177,271,c)
);
},
{
closed = 1;
nodes = (
(121,482,o),
(135,537,o),
(154,554,cs),
(178,577,o),
(216,614,o),
(309,614,cs),
(499,614,o),
(555,459,o),
(555,315,cs),
(550,225,o),
(551,236,o),
(561,144,c),
(619,151,l),
(615,185,ls),
(610,223,o),
(625,269,o),
(625,314,cs),
(625,559,o),
(481,680,o),
(309,680,cs),
(238,680,o),
(161,652,o),
(112,603,cs),
(59,550,o),
(56,458,o),
(84,425,cs),
(105,400,l),
(154,437,l),
(136,461,ls)
);
},
{
closed = 1;
nodes = (
(404,118,l),
(415,-11,l),
(472,-11,l),
(474,217,l),
(408,215,l)
);
},
{
closed = 1;
nodes = (
(411,99,l),
(401,136,l),
(379,98,l),
(387,95,l),
(399,98,l)
);
},
{
closed = 1;
nodes = (
(158,292,l),
(139,271,o),
(126,236,o),
(126,207,cs),
(126,124,o),
(192,66,o),
(287,66,cs),
(337,66,o),
(386,89,o),
(413,118,cs),
(442,150,o),
(474,167,o),
(474,211,cs),
(474,302,l),
(418,292,l),
(417,281,o),
(406,228,o),
(401,212,cs),
(385,160,o),
(361,120,o),
(292,120,cs),
(238,120,o),
(199,157,o),
(199,211,cs),
(199,257,o),
(228,300,o),
(286,315,c),
(275,353,l)
);
}
);
width = 675;
}
);
note = or_d_ikaar;
}
{
glyphname = "ddaI-oriya";
layers = (
{
layerId = m01;
shapes = (
{
closed = 1;
nodes = (
(157,349,qs),
(180,374,o),
(224,392,qs),
(279,413,o),
(337,415,qs),
(381,416,l),
(381,443,l),
(381,450,l),
(381,480,l),
(310,478,o),
(280,475,qs),
(271,475,o),
(260,475,o),
(257,475,qs),
(246,477,o),
(236,486,qs),
(218,502,o),
(218,530,qs),
(218,537,o),
(221,546,qs),
(232,582,o),
(281,608,qs),
(344,642,o),
(415,642,qs),
(511,642,o),
(593,582,qs),
(684,514,o),
(721,400,qs),
(739,342,o),
(739,280,qs),
(739,203,o),
(711,132,q),
(793,99,l),
(800,118,ls),
(832,195,o),
(832,280,qs),
(832,348,o),
(811,411,qs),
(770,540,o),
(663,619,qs),
(568,689,o),
(449,699,qs),
(432,700,o),
(415,700,qs),
(310,700,o),
(220,652,qs),
(175,627,o),
(126,564,o),
(126,527,qs),
(126,485,o),
(160,454,qs),
(167,447,o),
(177,441,q),
(112,416,o),
(77,378,qs),
(35,332,o),
(34,271,qs),
(33,262,l),
(41,255,ls),
(68,228,o),
(105,214,qs),
(134,202,o),
(166,199,q),
(142,164,o),
(142,122,qs),
(142,69,o),
(178,27,qs),
(201,-1,o),
(237,-18,qs),
(284,-41,o),
(342,-41,qs),
(369,-41,o),
(395,-36,qs),
(477,-20,o),
(540,38,qs),
(596,89,o),
(622,160,qs),
(630,180,l),
(482,239,l),
(554,371,l),
(479,412,l),
(371,215,l),
(524,154,l),
(502,105,o),
(464,70,qs),
(419,29,o),
(368,19,qs),
(354,16,o),
(342,16,qs),
(316,16,o),
(274,37,o),
(259,54,qs),
(235,84,o),
(235,124,qs),
(235,138,o),
(239,153,qs),
(248,179,o),
(268,196,qs),
(270,198,l),
(272,200,l),
(294,227,l),
(301,236,l),
(298,246,l),
(296,252,l),
(280,298,l),
(195,255,l),
(192,255,o),
(189,255,qs),
(156,255,o),
(126,279,q),
(131,320,o)
);
}
);
width = 887;
}
);
note = or_dd_ikaar;
}
{
glyphname = "dhYya-oriya";
layers = (
{
layerId = m01;
shapes = (
{
closed = 1;
nodes = (
(476,69,o),
(428,103,o),
(415,129,q),
(418,134,o),
(421,140,qs),
(472,242,l),
(395,281,l),
(333,158,ls),
(320,135,o),
(283,90,o),
(244,66,o),
(213,65,o),
(196,81,qs),
(172,101,o),
(165,136,qs),
(163,147,o),
(163,159,qs),
(163,193,o),
(180,225,qs),
(202,262,o),
(243,286,qs),
(259,295,o),
(344,329,o),
(396,360,o),
(419,383,qs),
(433,397,l),
(145,735,l),
(101,703,ls),
(84,691,o),
(77,673,qs),
(74,663,o),
(74,653,qs),
(74,629,o),
(92,611,qs),
(105,598,o),
(139,586,o),
(158,586,qs),
(162,586,o),
(167,587,q),
(326,400,l),
(316,391,o),
(287,374,o),
(203,341,o),
(181,328,qs),
(123,295,o),
(94,244,qs),
(70,203,o),
(70,159,qs),
(70,143,o),
(73,128,qs),
(83,79,o),
(121,47,qs),
(166,8,o),
(230,8,qs),
(304,8,o),
(363,64,q),
(372,55,o),
(383,48,qs),
(435,12,o),
(500,12,qs),
(556,12,o),
(601,36,q),
(601,-5,l),
(693,-5,l),
(693,692,l),
(601,692,l),
(601,177,l),
(600,170,ls),
(593,117,o),
(552,87,qs),
(527,69,o)
);
}
);
width = 749;
}
);
note = or_dh_yya;
}
{
glyphname = "dhaI-oriya";
layers = (
{
layerId = m01;
shapes = (
{
ref = "dha-oriya";
},
{
closed = 1;
nodes = (
(637,-227,o),
(618,-212,o),
(601,-206,cs),
(462,-157,o),
(316,-114,o),
(171,-67,c),
(171,-85,l),
(298,10,l),
(256,55,l),
(101,-61,l),
(101,-105,l),
(258,-156,o),
(419,-208,o),
(579,-260,c),
(638,-307,l),
(676,-270,l),
(655,-247,ls)
);
}
);
width = 658;
}
);
note = or_dh_ikaar;
}
{
glyphname = "hNa-oriya";
layers = (
{
layerId = m01;
shapes = (
{
closed = 1;
nodes = (
(489,-133,l),
(518,-142,o),
(541,-168,qs),
(561,-192,l),
(618,-142,l),
(582,-100,o),
(524,-83,q),
(211,-5,l),
(260,60,l),
(266,57,o),
(273,55,qs),
(299,47,o),
(362,47,o),
(394,58,qs),
(462,81,o),
(519,149,q),
(519,56,l),
(520,56,l),
(512,40,o),
(509,29,qs),
(505,14,o),
(505,3,qs),
(505,-24,o),
(522,-43,qs),
(544,-69,o),
(586,-69,qs),
(603,-69,o),
(619,-62,qs),
(643,-53,o),
(652,-34,qs),
(658,-23,o),
(658,-11,qs),
(658,14,o),
(636,30,qs),
(609,50,l),
(656,132,o),
(740,176,q),
(740,-61,l),
(828,-61,l),
(828,268,l),
(787,257,l),
(792,285,o),
(792,314,qs),
(792,411,o),
(736,497,qs),
(696,559,o),
(635,603,qs),
(527,680,o),
(396,680,qs),
(320,680,o),
(253,651,qs),
(190,624,o),
(100,529,o),
(81,467,qs),
(70,430,o),
(70,365,o),
(78,338,qs),
(93,292,o),
(128,265,qs),
(160,241,o),
(201,237,q),
(186,202,o),
(186,170,qs),
(186,147,o),
(194,126,qs),
(197,118,o),
(201,111,q),
(113,-6,l),
(113,-13,l),
(113,-21,l),
(113,-40,l)
);
},
{
closed = 1;
nodes = (
(663,208,qs),
(644,195,o),
(624,181,q),
(620,177,o),
(612,170,o),
(607,167,q),
(607,310,l),
(563,310,l),
(555,310,l),
(521,310,l),
(513,290,ls),
(498,259,o),
(481,230,qs),
(464,203,o),
(444,177,qs),
(432,164,o),
(419,151,qs),
(408,140,o),
(395,130,qs),
(385,123,o),
(374,116,qs),
(365,111,o),
(356,107,q),
(348,105,o),
(341,103,qs),
(335,102,o),
(330,102,qs),
(325,102,o),
(321,102,qs),
(317,103,o),
(313,104,qs),
(309,106,o),
(305,108,q),
(300,112,o),
(295,116,q),
(286,127,o),
(279,140,q),
(275,155,o),
(274,170,q),
(275,185,o),
(278,200,qs),
(282,215,o),
(289,230,qs),
(295,241,o),
(302,251,qs),
(308,262,o),
(316,271,qs),
(376,339,l),
(321,394,l),
(237,302,ls),
(232,297,o),
(226,294,qs),
(222,292,o),
(217,291,qs),
(212,291,o),
(207,293,qs),
(202,296,o),
(196,300,q),
(186,309,o),
(178,321,qs),
(170,334,o),
(165,349,qs),
(162,360,o),
(160,372,qs),
(158,385,o),
(158,398,qs),
(158,412,o),
(160,426,qs),
(163,441,o),
(168,456,qs),
(177,482,o),
(189,506,q),
(204,529,o),
(222,550,q),
(240,567,o),
(259,582,q),
(280,595,o),
(302,605,qs),
(325,614,o),
(348,620,qs),
(372,624,o),
(396,625,q),
(441,623,o),
(485,611,q),
(529,593,o),
(568,567,qs),
(593,548,o),
(615,526,qs),
(637,502,o),
(655,476,q),
(677,438,o),
(692,398,q),
(702,356,o),
(704,314,q),
(703,294,o),
(701,273,qs),
(698,253,o),
(692,233,q),
(679,220,o)
);
}
);
width = 896;
}
);
note = or_h_na;
}
{
glyphname = "iisignRef-oriya";
layers = (
{
layerId = m01;
shapes = (
{
closed = 1;
nodes = (
(-46,808,q),
(19,889,o),
(112,934,q),
(112,-14,l),
(204,-14,l),
(204,800,l),
(244,779,o),
(293,779,q),
(293,779,o),
(294,779,o),
(294,779,q),
(294,837,l),
(293,837,l),
(293,837,o),
(293,837,q),
(274,837,o),
(255,849,qs),
(231,864,o),
(218,892,qs),
(208,913,o),
(208,936,qs),
(208,967,o),
(226,989,qs),
(238,1004,o),
(254,1010,qs),
(263,1013,o),
(272,1013,qs),
(287,1013,o),
(305,1004,qs),
(326,993,o),
(342,972,qs),
(368,941,o),
(375,900,qs),
(377,890,l),
(467,907,l),
(458,958,o),
(425,998,qs),
(400,1029,o),
(365,1048,qs),
(321,1071,o),
(272,1071,qs),
(237,1071,o),
(207,1060,qs),
(167,1045,o),
(143,1015,q),
(143,1014,o),
(142,1013,q),
(141,1014,l),
(112,1004,ls),
(-39,950,o),
(-135,826,qs),
(-152,803,o),
(-167,780,qs),
(-184,751,l),
(-138,742,ls),
(-129,740,o),
(-119,740,qs),
(-87,740,o),
(-66,757,qs),
(-55,766,o),
(-45,789,o),
(-45,801,qs),
(-45,805,o)
);
}
);
width = 489;
}
);
note = or_iikaar_ref;
}
{
glyphname = "j_isign-oriya";
layers = (
{
layerId = m01;
shapes = (
{
closed = 1;
nodes = (
(324,162,qs),
(328,100,o),
(342,38,q),
(328,32,o),
(312,32,qs),
(292,32,o),
(271,44,qs),
(234,66,o),
(220,110,qs),
(213,129,o),
(213,174,o),
(225,200,qs),
(241,237,o),
(276,254,qs),
(305,268,o),
(341,264,q),
(323,233,o),
(323,185,qs),
(323,174,o)
);
},
{
closed = 1;
nodes = (
(459,272,qs),
(475,279,o),
(507,284,q),
(507,0,l),
(599,0,l),
(599,349,l),
(549,346,ls),
(508,344,o),
(423,329,o),
(394,314,q),
(360,322,o),
(325,322,qs),
(267,322,o),
(219,299,qs),
(198,289,o),
(182,275,q),
(169,277,o),
(156,285,qs),
(139,295,o),
(126,316,q),
(173,386,o),
(250,414,qs),
(287,428,o),
(327,428,qs),
(346,428,o),
(364,425,qs),
(378,422,l),
(388,481,l),
(358,486,o),
(327,486,qs),
(290,486,o),
(255,479,q),
(255,481,l),
(246,480,ls),
(245,480,o),
(243,481,qs),
(232,486,o),
(218,512,o),
(218,526,qs),
(218,549,o),
(234,568,qs),
(246,582,o),
(265,594,qs),
(327,633,o),
(400,633,qs),
(414,633,o),
(428,631,qs),
(517,621,o),
(589,556,qs),
(635,514,o),
(664,456,qs),
(702,381,o),
(702,298,qs),
(702,244,o),
(686,193,q),
(772,167,l),
(777,182,ls),
(794,239,o),
(794,298,qs),
(794,390,o),
(752,474,qs),
(719,540,o),
(665,589,qs),
(571,673,o),
(445,688,qs),
(422,690,o),
(400,690,qs),
(288,690,o),
(200,634,qs),
(125,587,o),
(125,526,qs),
(125,503,o),
(137,482,qs),
(147,462,o),
(166,448,q),
(82,407,o),
(33,327,qs),
(28,318,l),
(32,308,ls),
(52,267,o),
(95,242,qs),
(116,229,o),
(140,223,q),
(138,219,o),
(136,215,qs),
(121,183,o),
(121,149,qs),
(121,124,o),
(129,98,qs),
(149,36,o),
(209,2,qs),
(256,-25,o),
(312,-25,qs),
(375,-25,o),
(425,7,qs),
(441,18,l),
(437,32,ls),
(420,97,o),
(416,165,qs),
(415,175,o),
(415,189,qs),
(415,232,o),
(434,254,qs),
(443,265,o)
);
}
);
width = 837;
}
);
note = or_j_ikaar;
}
{
glyphname = "jaIisign-oriya";
layers = (
{
background = {
shapes = (
{
closed = 1;
nodes = (
(799,835,ls),
(799,890,o),
(719,879,o),
(669,826,cs),
(643,801,o),
(617,770,o),
(596,743,cs),
(576,717,l),
(629,685,l),
(649,711,ls),
(673,742,o),
(694,768,o),
(715,787,cs),
(717,789,o),
(737,804,o),
(738,784,cs),
(740,743,o),
(739,624,o),
(735,17,c),
(799,17,l)
);
}
);
};
layerId = m01;
shapes = (
{
closed = 1;
nodes = (
(538,616,o),
(429,671,o),
(330,671,cs),
(189,671,o),
(71,560,o),
(70,408,cs),
(70,364,o),
(89,332,o),
(120,299,cs),
(131,287,o),
(153,271,o),
(183,261,c),
(155,228,o),
(148,189,o),
(148,161,cs),
(148,45,o),
(247,0,o),
(325,0,cs),
(384,0,o),
(416,29,o),
(444,60,c),
(444,102,l),
(404,106,o),
(380,132,o),
(380,182,cs),
(380,246,o),
(450,267,o),
(511,271,c),
(503,17,l),
(571,17,l),
(579,327,l),
(538,331,o),
(476,329,o),
(421,310,c),
(359,322,o),
(319,320,o),
(292,316,cs),
(277,314,o),
(262,310,o),
(249,305,c),
(221,309,ls),
(206,311,o),
(187,321,o),
(172,337,cs),
(151,360,o),
(140,379,o),
(140,408,cs),
(141,532,o),
(229,615,o),
(330,615,cs),
(399,615,o),
(453,588,o),
(486,511,cs),
(495,490,o),
(499,447,o),
(499,425,c),
(548,425,l),
(548,519,o),
(615,603,o),
(650,608,cs),
(665,610,o),
(676,600,o),
(679,575,c),
(679,17,l),
(749,17,l),
(749,577,l),
(749,640,o),
(686,675,o),
(624,660,cs),
(549,644,o),
(500,524,o),
(505,473,c),
(542,473,l)
);
},
{
closed = 1;
nodes = (
(212,197,o),
(232,251,o),
(302,263,cs),
(317,265,o),
(333,265,o),
(346,264,c),
(328,244,o),
(316,217,o),
(316,182,cs),
(316,129,o),
(338,90,o),
(369,69,c),
(357,61,o),
(335,55,o),
(316,55,cs),
(265,55,o),
(212,83,o),
(212,161,cs)
);
}
);
width = 819;
}
);
note = or_j_iikaar;
}
{
glyphname = "jaNyaAa-oriya";
layers = (
{
layerId = m01;
shapes = (
{
closed = 1;
nodes = (
(611,354,l)
);
},
{
closed = 1;
nodes = (
(692,702,o),
(591,730,qs),
(510,754,o),
(432,754,qs),
(387,754,o),
(345,746,qs),
(210,721,o),
(131,630,qs),
(88,580,o),
(75,523,qs),
(70,501,o),
(70,479,qs),
(70,388,o),
(149,328,qs),
(175,309,o),
(207,295,q),
(177,292,o),
(150,279,qs),
(117,263,o),
(81,204,o),
(81,171,qs),
(81,151,o),
(87,134,qs),
(97,106,o),
(141,65,o),
(193,48,o),
(219,48,qs),
(256,48,o),
(288,64,q),
(322,47,o),
(362,47,qs),
(383,47,o),
(403,52,q),
(403,-8,l),
(495,-8,l),
(495,225,l),
(522,236,o),
(535,236,qs),
(543,236,o),
(549,232,qs),
(566,221,o),
(568,197,q),
(568,-5,l),
(660,-5,l),
(660,198,l),
(660,199,ls),
(657,245,o),
(616,271,qs),
(599,282,o),
(579,288,q),
(624,310,o),
(651,344,qs),
(683,385,o),
(683,433,qs),
(683,449,o),
(678,466,qs),
(669,497,o),
(624,540,o),
(568,561,o),
(509,561,o),
(483,553,q),
(478,559,o),
(472,564,qs),
(434,602,o),
(374,602,qs),
(322,602,o),
(283,572,qs),
(249,546,o),
(238,505,qs),
(234,490,o),
(234,457,o),
(238,442,qs),
(241,428,l),
(329,451,l),
(326,462,o),
(326,485,o),
(329,496,qs),
(336,521,o),
(354,536,qs),
(365,544,o),
(375,544,qs),
(384,544,o),
(394,533,qs),
(409,519,o),
(412,497,q),
(388,415,l),
(478,405,l),
(502,486,l),
(519,504,o),
(537,504,qs),
(552,504,o),
(567,489,qs),
(590,466,o),
(590,431,qs),
(590,398,o),
(568,370,qs),
(524,313,o),
(410,313,qs),
(341,313,o),
(282,333,qs),
(246,345,o),
(221,365,qs),
(163,409,o),
(163,479,qs),
(163,497,o),
(167,515,qs),
(177,562,o),
(213,603,qs),
(273,673,o),
(371,691,qs),
(400,696,o),
(432,696,qs),
(490,696,o),
(553,678,qs),
(678,642,o),
(776,554,q),
(776,-9,l),
(868,-9,l),
(868,692,l),
(776,692,l),
(776,646,l)
);
},
{
closed = 1;
nodes = (
(355,226,o),
(377,226,qs),
(390,226,o),
(403,223,q),
(403,125,l),
(383,105,o),
(362,105,qs),
(348,105,o),
(332,116,q),
(332,216,l)
);
},
{
closed = 1;
nodes = (
(229,106,o),
(208,106,o),
(196,117,qs),
(183,129,o),
(173,158,o),
(173,171,qs),
(173,193,o),
(194,228,o),
(208,234,qs),
(214,237,o),
(218,237,qs),
(228,237,o),
(240,223,q),
(240,115,l)
);
}
);
width = 918;
}
);
note = or_j_ny_aakaar;
}
{
glyphname = "kRa-oriya";
layers = (
{
backgroundImage = {
imagePath = "../../../../k-ra.png";
pos = (1,16);
scale = (2.9705,2.7956);
};
layerId = m01;
shapes = (
{
closed = 1;
nodes = (
(302,12,o),
(323,47,o),
(314,80,cs),
(304,114,o),
(269,135,o),
(235,126,cs),
(202,117,o),
(179,82,o),
(188,47,cs),
(197,14,o),
(235,-6,o),
(268,3,cs)
);
},
{
closed = 1;
nodes = (
(217,167,l),
(186,123,o),
(177,88,o),
(188,47,c),
(303,102,l),
(290,123,o),
(266,142,o),
(314,194,c)
);
},
{
closed = 1;
nodes = (
(299,252,l),
(217,199,o),
(181,123,o),
(187,85,c),
(208,57,l),
(212,89,l),
(281,119,l),
(276,121,o),
(282,134,o),
(288,152,cs),
(306,204,o),
(376,253,o),
(447,273,c),
(451,17,l),
(510,17,l),
(510,306,l),
(467,334,l),
(410,319,o),
(355,305,o),
(344,304,cs),
(297,297,o),
(220,319,o),
(178,341,cs),
(157,354,o),
(140,390,o),
(140,425,cs),
(139,529,o),
(233,611,o),
(365,611,cs),
(502,611,o),
(605,501,o),
(599,343,cs),
(599,332,o),
(599,292,o),
(603,252,c),
(662,257,l),
(661,279,o),
(658,326,o),
(664,362,cs),
(668,391,o),
(663,443,o),
(652,481,cs),
(621,585,o),
(495,672,o),
(365,672,cs),
(195,672,o),
(71,562,o),
(71,429,c),
(66,379,o),
(97,318,o),
(140,291,cs),
(189,262,o),
(244,255,o),
(299,256,c)
);
},
{
closed = 1;
nodes = (
(452,-257,l),
(510,-237,l),
(510,37,l),
(451,37,l),
(451,-189,l),
(472,-189,l),
(175,-54,l),
(102,-33,l),
(77,-84,l)
);
},
{
closed = 1;
nodes = (
(681,62,l),
(718,82,o),
(710,201,o),
(619,201,cs),
(554,201,o),
(504,147,o),
(473,116,cs),
(454,96,l),
(498,63,l),
(517,82,ls),
(550,117,o),
(585,148,o),
(619,148,cs),
(642,148,o),
(656,113,o),
(650,109,cs),
(606,77,l),
(630,41,l)
);
}
);
width = 772;
}
);
note = or_k_ra;
}
{
glyphname = "k_isign-oriya";
layers = (
{
layerId = m01;
shapes = (
{
closed = 1;
nodes = (
(218,193,qs),
(222,219,o),
(238,236,qs),
(247,247,o),
(257,253,q),
(299,244,o),
(345,244,qs),
(376,244,o),
(411,247,q),
(408,242,o),
(407,237,q),
(399,218,o),
(398,198,qs),
(398,159,l),
(374,127,o),
(341,109,qs),
(314,94,o),
(291,94,qs),
(271,94,o),
(235,119,o),
(225,141,qs),
(217,159,o),
(217,178,qs),
(217,185,o)
);
},
{
closed = 1;
nodes = (
(656,251,o),
(619,286,qs),
(583,321,o),
(529,321,qs),
(508,321,o),
(490,315,q),
(489,315,ls),
(406,299,o),
(350,299,qs),
(297,299,o),
(255,313,q),
(255,315,l),
(252,314,l),
(252,314,o),
(252,314,q),
(208,330,o),
(184,360,qs),
(164,386,o),
(159,420,q),
(173,449,o),
(197,469,qs),
(232,498,o),
(272,498,qs),
(305,498,o),
(335,478,qs),
(387,444,l),
(409,489,l),
(412,495,l),
(421,513,l),
(346,550,ls),
(323,561,o),
(309,585,qs),
(301,599,o),
(301,611,qs),
(301,641,o),
(344,656,qs),
(379,669,o),
(418,669,qs),
(443,669,o),
(468,664,qs),
(533,650,o),
(652,558,o),
(732,419,o),
(743,341,qs),
(748,310,o),
(748,236,o),
(740,194,q),
(825,177,l),
(827,187,ls),
(836,232,o),
(836,278,qs),
(836,401,o),
(774,509,qs),
(731,585,o),
(661,639,qs),
(585,697,o),
(496,716,qs),
(457,724,o),
(418,724,qs),
(356,724,o),
(300,704,qs),
(265,692,o),
(244,673,qs),
(213,646,o),
(213,611,qs),
(213,581,o),
(237,550,q),
(173,541,o),
(126,502,qs),
(91,472,o),
(72,431,qs),
(70,427,l),
(71,422,ls),
(75,374,o),
(105,336,qs),
(133,301,o),
(177,279,q),
(169,272,o),
(162,264,qs),
(129,227,o),
(129,178,qs),
(129,152,o),
(140,127,qs),
(156,91,o),
(190,68,qs),
(233,39,o),
(290,39,qs),
(346,39,o),
(398,67,q),
(398,-1,l),
(486,-1,l),
(486,196,ls),
(487,210,o),
(492,224,qs),
(501,247,o),
(516,259,qs),
(525,266,o),
(529,266,qs),
(535,266,o),
(545,256,qs),
(568,234,o),
(568,193,qs),
(568,1,l),
(656,1,l),
(656,193,ls)
);
}
);
width = 899;
}
);
note = or_k_ikaar;
}
{
glyphname = "kaRusign-oriya";
layers = (
{
layerId = m01;
shapes = (
{
closed = 1;
nodes = (
(182,246,qs),
(192,260,o),
(204,268,q),
(281,261,o),
(354,261,q),
(347,250,o),
(343,237,qs),
(335,218,o),
(334,198,qs),
(334,159,l),
(311,134,o),
(281,121,qs),
(257,111,o),
(238,111,qs),
(222,111,o),
(208,118,qs),
(189,129,o),
(165,170,o),
(165,194,qs),
(165,224,o)
);
},
{
closed = 1;
nodes = (
(592,251,o),
(555,286,qs),
(519,321,o),
(465,321,qs),
(446,321,o),
(429,316,q),
(399,315,o),
(371,315,qs),
(289,315,o),
(207,323,q),
(189,331,o),
(177,348,qs),
(158,374,o),
(158,411,qs),
(158,456,o),
(189,505,qs),
(226,564,o),
(346,631,o),
(411,631,qs),
(460,631,o),
(561,591,o),
(646,515,o),
(674,461,qs),
(716,381,o),
(716,292,qs),
(716,201,o),
(674,123,qs),
(661,98,o),
(611,28,o),
(604,16,qs),
(557,-53,o),
(547,-109,qs),
(544,-126,o),
(544,-144,qs),
(544,-211,o),
(583,-264,qs),
(631,-330,o),
(718,-348,qs),
(744,-353,o),
(771,-353,qs),
(834,-353,o),
(941,-300,o),
(967,-257,qs),
(989,-223,o),
(989,-185,qs),
(989,-172,o),
(986,-159,qs),
(976,-113,o),
(936,-86,qs),
(900,-62,o),
(854,-62,qs),
(799,-62,o),
(760,-96,qs),
(739,-114,o),
(726,-139,qs),
(706,-175,o),
(706,-254,o),
(723,-289,q),
(687,-273,o),
(663,-241,qs),
(632,-199,o),
(632,-144,qs),
(632,-129,o),
(635,-115,qs),
(643,-67,o),
(685,-5,qs),
(692,6,o),
(708,28,qs),
(743,78,o),
(758,105,qs),
(804,192,o),
(804,292,qs),
(804,322,o),
(800,351,qs),
(779,492,o),
(674,586,qs),
(623,632,o),
(486,686,o),
(411,686,qs),
(312,686,o),
(230,640,qs),
(152,597,o),
(107,525,qs),
(70,467,o),
(70,411,qs),
(70,362,o),
(97,325,qs),
(109,308,o),
(126,295,q),
(113,284,o),
(102,270,qs),
(77,236,o),
(77,194,qs),
(77,161,o),
(94,132,qs),
(113,97,o),
(189,56,o),
(285,56,o),
(331,76,qs),
(333,77,o),
(334,77,q),
(334,-1,l),
(422,-1,l),
(422,196,ls),
(423,210,o),
(428,224,qs),
(437,247,o),
(452,259,qs),
(461,266,o),
(465,266,qs),
(471,266,o),
(481,256,qs),
(504,234,o),
(504,193,qs),
(504,1,l),
(592,1,l),
(592,193,ls)
);
},
{
closed = 1;
nodes = (
(885,-237,qs),
(863,-273,o),
(818,-290,q),
(794,-257,o),
(794,-216,qs),
(794,-184,o),
(809,-156,qs),
(818,-139,o),
(844,-117,o),
(854,-117,qs),
(862,-117,o),
(871,-123,qs),
(893,-138,o),
(899,-167,qs),
(901,-175,o),
(901,-185,qs),
(901,-212,o)
);
}
);
width = 887;
}
);
note = or_k_rukaar;
}
{
glyphname = "kaTaI-oriya";
layers = (
{
layerId = m01;
shapes = (
{
closed = 1;
nodes = (
(866,118,qs),
(823,167,o),
(751,167,qs),
(745,167,o),
(738,166,q),
(755,233,o),
(755,301,qs),
(755,375,o),
(735,439,qs),
(708,528,o),
(647,590,qs),
(603,635,o),
(543,662,qs),
(469,697,o),
(385,697,qs),
(261,697,o),
(164,627,qs),
(86,571,o),
(76,497,qs),
(75,485,l),
(113,459,l),
(98,448,o),
(84,434,qs),
(45,394,o),
(32,340,qs),
(31,334,l),
(34,328,ls),
(45,304,o),
(66,286,qs),
(80,274,o),
(96,266,q),
(90,258,o),
(86,248,qs),
(76,223,o),
(76,198,qs),
(76,181,o),
(80,165,qs),
(91,124,o),
(157,68,o),
(200,58,qs),
(223,53,o),
(268,53,o),
(290,58,qs),
(302,60,o),
(314,64,q),
(314,-2,l),
(402,-2,l),
(402,186,l),
(403,196,o),
(405,206,qs),
(410,230,o),
(429,255,o),
(436,258,q),
(441,256,o),
(447,251,qs),
(464,237,o),
(471,209,qs),
(473,196,o),
(473,183,qs),
(473,1,l),
(561,1,l),
(561,182,ls),
(561,183,o),
(561,185,qs),
(561,201,o),
(558,217,qs),
(548,258,o),
(518,284,qs),
(499,300,o),
(473,308,qs),
(455,313,o),
(436,313,qs),
(409,313,o),
(387,303,q),
(343,302,o),
(241,302,o),
(162,305,q),
(150,308,o),
(139,317,qs),
(128,326,o),
(121,338,q),
(132,377,o),
(160,406,qs),
(181,428,o),
(252,459,o),
(291,461,q),
(288,516,l),
(231,513,o),
(181,494,q),
(166,504,l),
(178,553,o),
(230,591,qs),
(301,642,o),
(385,642,qs),
(395,642,o),
(404,641,qs),
(501,634,o),
(572,561,qs),
(624,507,o),
(649,429,qs),
(667,369,o),
(667,301,qs),
(667,205,o),
(633,114,q),
(598,66,o),
(598,8,qs),
(598,7,ls),
(598,-50,o),
(631,-96,q),
(487,-147,o),
(332,-147,qs),
(301,-147,o),
(265,-144,q),
(261,-199,l),
(296,-202,o),
(332,-202,qs),
(570,-202,o),
(781,-99,qs),
(818,-81,o),
(839,-65,qs),
(897,-22,o),
(897,39,qs),
(897,83,o)
);
},
{
closed = 1;
nodes = (
(298,247,qs),
(314,247,o),
(329,247,q),
(321,232,o),
(317,213,qs),
(314,198,o),
(314,187,qs),
(314,137,l),
(291,116,o),
(262,110,qs),
(254,108,o),
(246,108,qs),
(219,108,o),
(196,127,qs),
(175,146,o),
(167,174,qs),
(164,186,o),
(164,198,qs),
(164,227,o),
(180,249,q),
(242,247,o)
);
},
{
closed = 1;
nodes = (
(751,112,qs),
(771,112,o),
(809,69,o),
(809,39,qs),
(809,-2,o),
(771,-30,qs),
(756,-42,o),
(727,-56,qs),
(717,-61,o),
(706,-66,q),
(686,-33,o),
(686,8,qs),
(686,55,o),
(714,92,qs),
(731,112,o)
);
}
);
width = 826;
}
);
note = or_k_t_ikaar;
}
{
glyphname = "lYya-oriya";
layers = (
{
layerId = m01;
shapes = (
{
closed = 1;
nodes = (
(737,396,o),
(707,382,qs),
(684,372,o),
(660,372,qs),
(631,372,o),
(608,388,qs),
(583,404,o),
(574,432,qs),
(570,445,o),
(570,470,o),
(573,482,qs),
(578,506,o),
(606,545,o),
(622,558,qs),
(632,566,l),
(632,575,l),
(632,586,l),
(632,597,l),
(619,606,ls),
(521,669,o),
(399,669,qs),
(352,669,o),
(307,659,qs),
(241,644,o),
(134,572,o),
(70,465,o),
(70,403,qs),
(70,342,o),
(103,292,qs),
(133,247,o),
(182,222,q),
(174,205,o),
(169,184,qs),
(158,143,o),
(158,105,qs),
(158,56,o),
(175,7,qs),
(181,-10,l),
(265,20,l),
(250,62,o),
(250,138,o),
(268,207,o),
(298,243,o),
(308,244,q),
(311,243,o),
(315,240,qs),
(328,230,o),
(331,211,q),
(331,17,l),
(377,17,l),
(381,17,l),
(428,17,l),
(428,212,ls),
(429,235,o),
(445,248,qs),
(450,253,o),
(453,253,qs),
(465,252,o),
(481,231,qs),
(495,210,o),
(501,175,qs),
(505,152,o),
(505,131,qs),
(505,67,o),
(471,10,qs),
(466,2,l),
(470,-7,l),
(473,-15,l),
(477,-26,l),
(491,-32,ls),
(587,-74,o),
(689,-102,qs),
(719,-111,o),
(742,-111,qs),
(780,-111,o),
(812,-93,q),
(780,-34,l),
(751,-50,ls),
(746,-53,o),
(743,-53,qs),
(737,-52,o),
(726,-49,qs),
(644,-27,o),
(566,6,q),
(597,65,o),
(597,131,qs),
(597,156,o),
(593,181,qs),
(585,225,o),
(564,255,qs),
(532,300,o),
(477,309,qs),
(465,311,o),
(453,311,qs),
(407,311,o),
(374,285,q),
(344,302,o),
(308,302,qs),
(263,302,o),
(230,278,q),
(224,276,l),
(203,292,o),
(188,314,qs),
(162,353,o),
(162,455,o),
(189,499,qs),
(214,541,o),
(254,568,qs),
(320,612,o),
(399,612,qs),
(469,612,o),
(532,578,q),
(520,565,o),
(510,551,qs),
(478,507,o),
(478,457,qs),
(478,439,o),
(484,421,qs),
(498,378,o),
(540,349,qs),
(590,314,o),
(660,314,qs),
(713,314,o),
(759,335,q),
(759,99,l),
(851,99,l),
(851,587,l),
(759,587,l),
(759,424,l)
);
}
);
width = 901;
}
);
note = or_l_yya;
}
{
glyphname = "laAasign-oriya";
layers = (
{
hints = (
{
name = _corner.tailBottom;
origin = (4,7);
type = Corner;
}
);
layerId = m01;
shapes = (
{
closed = 1;
nodes = (
(367,216,l),
(358,234,o),
(321,285,o),
(271,285,cs),
(232,285,o),
(185,266,o),
(166,221,cs),
(143,167,o),
(156,95,o),
(163,32,cs),
(167,-1,l),
(232,5,l),
(229,38,ls),
(222,101,o),
(211,165,o),
(226,201,cs),
(237,226,o),
(253,233,o),
(271,233,cs),
(293,233,o),
(298,223,o),
(306,206,c),
(306,6,l),
(367,6,l)
);
},
{
closed = 1;
nodes = (
(378,222,o),
(378,233,o),
(403,233,cs),
(421,233,o),
(437,226,o),
(448,201,cs),
(463,165,o),
(447,101,o),
(445,38,cs),
(444,11,l),
(446,5,l),
(507,-1,l),
(511,32,ls),
(518,95,o),
(531,167,o),
(508,221,cs),
(489,266,o),
(442,285,o),
(403,285,cs),
(353,285,o),
(305,232,o),
(307,220,cs),
(313,193,l),
(352,171,l),
(367,199,ls)
);
},
{
pos = (541,0);
ref = "aaMatra-oriya";
},
{
closed = 1;
nodes = (
(613,599,l),
(550,645,o),
(470,672,o),
(382,672,cs),
(208,672,o),
(70,565,o),
(70,427,cs),
(70,353,o),
(87,280,o),
(144,248,cs),
(157,241,o),
(180,234,o),
(202,230,cs),
(230,224,l),
(244,279,l),
(216,284,ls),
(200,288,o),
(191,291,o),
(178,298,cs),
(161,307,o),
(140,358,o),
(140,427,cs),
(140,533,o),
(245,616,o),
(382,616,cs),
(476,616,o),
(559,577,o),
(614,515,c)
);
},
{
closed = 1;
nodes = (
(484,83,l),
(477,72,o),
(464,63,o),
(456,51,cs),
(435,20,o),
(442,-16,o),
(467,-32,c),
(697,-159,l),
(731,-111,l),
(511,15,l),
(510,19,l),
(502,51,l)
);
}
);
width = 713;
}
);
note = or_l_aakaar;
}
{
glyphname = "laI-oriya";
layers = (
{
layerId = m01;
shapes = (
{
closed = 1;
nodes = (
(360,217,l),
(351,235,o),
(314,286,o),
(264,286,cs),
(225,286,o),
(178,267,o),
(159,222,cs),
(135,165,o),
(149,105,o),
(160,11,c),
(216,17,l),
(209,117,o),
(211,182,o),
(220,202,cs),
(229,221,o),
(246,233,o),
(264,233,cs),
(278,233,o),
(291,224,o),
(299,210,c),
(302,18,l),
(357,18,l)
);
},
{
closed = 1;
nodes = (
(360,210,l),
(368,224,o),
(381,233,o),
(395,233,cs),
(413,233,o),
(430,221,o),
(439,202,cs),
(448,182,o),
(450,117,o),
(443,17,c),
(499,11,l),
(510,105,o),
(524,165,o),
(500,222,cs),
(481,267,o),
(434,286,o),
(395,286,cs),
(345,286,o),
(308,235,o),
(299,217,c)
);
},
{
closed = 1;
nodes = (
(115,504,l),
(83,481,o),
(50,446,o),
(50,417,cs),
(50,347,o),
(79,296,o),
(122,270,cs),
(151,252,o),
(186,235,o),
(206,228,c),
(248,268,l),
(207,285,o),
(188,296,o),
(163,314,cs),
(147,325,o),
(121,359,o),
(120,392,cs),
(120,407,o),
(137,423,o),
(147,437,c)
);
},
{
closed = 1;
nodes = (
(186,571,l),
(197,557,l),
(225,569,l),
(213,581,l)
);
},
{
closed = 1;
nodes = (
(680,114,o),
(695,217,o),
(691,321,cs),
(681,527,o),
(541,676,o),
(352,676,cs),
(238,676,o),
(110,631,o),
(112,507,c),
(125,410,o),
(248,359,o),
(326,359,cs),
(417,359,o),
(455,413,o),
(455,464,cs),
(455,519,o),
(390,565,o),
(339,575,cs),
(266,590,o),
(199,566,o),
(134,553,c),
(146,492,l),
(198,531,o),
(267,533,o),
(325,521,cs),
(346,517,o),
(385,490,o),
(385,464,cs),
(385,437,o),
(371,415,o),
(326,415,cs),
(272,415,o),
(193,451,o),
(182,510,c),
(184,601,o),
(285,614,o),
(352,614,cs),
(515,614,o),
(623,455,o),
(624,321,cs),
(626,236,o),
(608,136,o),
(579,59,cs),
(566,28,o),
(566,5,o),
(580,-1,cs),
(803,-104,l),
(832,-61,l),
(757,-19,l),
(627,39,l),
(633,30,l)
);
}
);
width = 743;
}
);
note = or_l_ikaar;
}
{
glyphname = "laIi-oriya.alt";
layers = (
{
layerId = m01;
shapes = (
{
closed = 1;
nodes = (
(37,388,qs),
(33,383,l),
(34,356,o),
(40,335,qs),
(55,286,o),
(95,252,qs),
(115,234,o),
(143,223,q),
(132,197,o),
(126,161,qs),
(123,136,o),
(123,110,qs),
(123,57,o),
(140,5,qs),
(144,-10,l),
(217,14,l),
(201,61,o),
(201,110,qs),
(201,133,o),
(205,157,qs),
(213,207,o),
(231,232,qs),
(241,246,o),
(251,248,qs),
(255,249,o),
(258,249,qs),
(269,249,o),
(285,237,qs),
(298,227,o),
(307,211,q),
(307,3,l),
(385,3,l),
(385,210,l),
(392,232,o),
(424,257,o),
(437,257,qs),
(445,257,o),
(457,247,qs),
(487,223,o),
(487,147,qs),
(487,78,o),
(459,14,q),
(527,-16,l),
(535,2,ls),
(565,72,o),
(565,147,qs),
(565,238,o),
(521,275,qs),
(486,304,o),
(384,304,o),
(345,273,qs),
(343,271,o),
(342,270,q),
(304,296,o),
(258,296,qs),
(239,296,o),
(220,291,qs),
(201,287,o),
(186,276,q),
(170,271,l),
(148,285,o),
(133,309,qs),
(115,338,o),
(112,373,q),
(134,399,o),
(191,431,o),
(221,435,qs),
(252,439,l),
(252,458,l),
(252,468,l),
(252,491,l),
(215,492,ls),
(190,493,o),
(163,508,qs),
(132,524,o),
(132,551,qs),
(132,554,o),
(133,557,q),
(153,594,o),
(224,641,o),
(278,651,qs),
(310,656,o),
(342,656,qs),
(418,656,o),
(490,621,qs),
(567,583,o),
(621,511,qs),
(648,474,o),
(666,433,qs),
(695,364,o),
(695,289,qs),
(695,226,o),
(673,165,qs),
(640,75,o),
(567,12,q),
(565,9,l),
(564,7,l),
(557,-8,l),
(576,-18,ls),
(615,-38,o),
(660,-55,qs),
(757,-92,o),
(799,-92,qs),
(835,-92,o),
(864,-74,q),
(835,-25,l),
(809,-41,ls),
(805,-43,o),
(799,-45,o),
(794,-44,qs),
(765,-39,o),
(711,-19,qs),
(676,-5,o),
(653,5,q),
(681,33,o),
(732,107,o),
(767,203,o),
(772,253,qs),
(774,271,o),
(774,320,o),
(769,351,qs),
(754,449,o),
(692,530,qs),
(632,612,o),
(540,657,qs),
(473,690,o),
(402,700,qs),
(372,704,o),
(299,704,o),
(256,696,qs),
(181,683,o),
(82,618,o),
(57,569,qs),
(54,563,o),
(54,551,qs),
(54,494,o),
(133,462,q),
(75,437,o)
);
}
);
width = 772;
}
);
note = or_l_ikaar.alt;
}
{
glyphname = "laIi-oriya";
layers = (
{
backgroundImage = {
imagePath = "../../../../lii.png";
pos = (10,0);
};
hints = (
{
name = _corner.tailBottom;
origin = (3,4);
type = Corner;
}
);
layerId = m01;
shapes = (
{
closed = 1;
nodes = (
(415,217,l),
(406,235,o),
(366,286,o),
(312,286,cs),
(270,286,o),
(220,267,o),
(200,222,cs),
(174,165,o),
(189,104,o),
(201,10,c),
(261,16,l),
(254,116,o),
(256,182,o),
(265,202,cs),
(275,221,o),
(292,233,o),
(312,233,cs),
(327,233,o),
(341,224,o),
(350,210,c),
(353,17,l),
(412,17,l)
);
},
{
closed = 1;
nodes = (
(415,210,l),
(423,224,o),
(437,233,o),
(453,233,cs),
(472,233,o),
(489,221,o),
(500,202,cs),
(509,182,o),
(511,116,o),
(504,16,c),
(564,10,l),
(575,104,o),
(591,165,o),
(565,222,cs),
(545,267,o),
(495,286,o),
(453,286,cs),
(399,286,o),
(359,235,o),
(350,217,c)
);
},
{
closed = 1;
nodes = (
(539,491,l),
(580,557,o),
(635,610,o),
(650,615,cs),
(656,617,o),
(670,606,o),
(679,580,c),
(679,17,l),
(749,17,l),
(749,586,l),
(732,651,o),
(672,684,o),
(628,669,cs),
(592,657,o),
(551,617,o),
(517,573,c),
(468,627,o),
(434,671,o),
(330,671,cs),
(153,671,o),
(70,554,o),
(70,408,cs),
(70,368,o),
(82,333,o),
(123,297,cs),
(149,274,o),
(216,242,o),
(261,233,cs),
(282,229,l),
(291,284,l),
(271,289,ls),
(244,296,o),
(196,315,o),
(169,339,cs),
(158,349,o),
(140,367,o),
(140,408,cs),
(140,526,o),
(192,615,o),
(330,615,cs),
(400,615,o),
(462,566,o),
(497,491,c)
);
},
{
closed = 1;
nodes = (
(506,53,l),
(502,14,o),
(502,-14,o),
(527,-30,c),
(754,-157,l),
(788,-109,l),
(565,17,l),
(565,22,l)
);
}
);
width = 820;
}
);
note = or_l_iikaar;
}
{
glyphname = "llIi-oriya.alt";
layers = (
{
layerId = m01;
shapes = (
{
closed = 1;
nodes = (
(37,388,qs),
(33,383,l),
(34,356,o),
(40,335,qs),
(55,286,o),
(95,252,qs),
(115,234,o),
(143,223,q),
(132,197,o),
(126,161,qs),
(123,136,o),
(123,110,qs),
(123,57,o),
(140,5,qs),
(144,-10,l),
(217,14,l),
(201,61,o),
(201,110,qs),
(201,133,o),
(205,157,qs),
(213,207,o),
(231,232,qs),
(241,246,o),
(251,248,qs),
(255,249,o),
(258,249,qs),
(269,249,o),
(285,237,qs),
(298,227,o),
(307,211,q),
(307,3,l),
(385,3,l),
(385,210,l),
(392,232,o),
(424,257,o),
(437,257,qs),
(445,257,o),
(457,247,qs),
(487,223,o),
(487,147,qs),
(487,78,o),
(459,14,q),
(527,-16,l),
(535,2,ls),
(565,72,o),
(565,147,qs),
(565,238,o),
(521,275,qs),
(486,304,o),
(384,304,o),
(345,273,qs),
(343,271,o),
(342,270,q),
(304,296,o),
(258,296,qs),
(239,296,o),
(220,291,qs),
(201,287,o),
(186,276,q),
(170,271,l),
(148,285,o),
(133,309,qs),
(115,338,o),
(112,373,q),
(134,399,o),
(191,431,o),
(221,435,qs),
(252,439,l),
(252,458,l),
(252,468,l),
(252,491,l),
(215,492,ls),
(190,493,o),
(163,508,qs),
(132,524,o),
(132,551,qs),
(132,554,o),
(133,557,q),
(174,633,o),
(278,651,qs),
(310,656,o),
(364,656,o),
(385,654,qs),
(477,642,o),
(562,574,qs),
(598,545,o),
(620,512,qs),
(649,468,o),
(659,405,qs),
(665,365,o),
(665,323,qs),
(665,227,o),
(634,126,qs),
(619,75,o),
(595,29,q),
(661,-4,l),
(671,15,ls),
(695,64,o),
(711,117,qs),
(743,223,o),
(743,323,qs),
(743,367,o),
(737,409,qs),
(727,479,o),
(693,530,qs),
(667,568,o),
(623,603,qs),
(522,684,o),
(402,700,qs),
(372,704,o),
(299,704,o),
(256,696,qs),
(181,683,o),
(82,618,o),
(57,569,qs),
(54,563,o),
(54,551,qs),
(54,494,o),
(133,462,q),
(75,437,o)
);
}
);
width = 741;
}
);
note = or_ll_ikaar.alt;
}
{
glyphname = "ll_isign-oriya";
layers = (
{
background = {
shapes = (
{
closed = 1;
nodes = (
(434,24,q),
(509,-17,l),
(521,5,ls),
(555,67,o),
(555,134,qs),
(555,157,o),
(551,181,qs),
(543,225,o),
(522,255,qs),
(490,300,o),
(435,309,qs),
(423,311,o),
(411,311,qs),
(365,311,o),
(332,285,q),
(302,302,o),
(266,302,qs),
(223,302,o),
(191,281,q),
(162,285,o),
(138,311,qs),
(110,342,o),
(107,384,q),
(119,407,o),
(136,428,q),
(178,387,o),
(244,368,qs),
(281,357,o),
(341,357,o),
(365,364,qs),
(397,374,o),
(419,395,qs),
(450,424,o),
(450,466,qs),
(450,481,o),
(444,497,qs),
(433,524,o),
(408,544,qs),
(366,576,o),
(299,576,qs),
(236,576,o),
(177,550,q),
(179,569,o),
(198,601,o),
(234,624,o),
(259,631,qs),
(299,642,o),
(376,642,o),
(411,633,qs),
(492,612,o),
(551,550,qs),
(635,463,o),
(653,320,qs),
(657,287,o),
(657,254,qs),
(657,139,o),
(611,36,q),
(692,1,l),
(700,21,ls),
(749,132,o),
(749,254,qs),
(749,290,o),
(745,325,qs),
(725,481,o),
(631,580,qs),
(555,658,o),
(446,687,qs),
(394,700,o),
(278,700,o),
(220,683,qs),
(133,658,o),
(102,604,qs),
(84,574,o),
(84,540,qs),
(84,517,o),
(92,495,q),
(45,453,o),
(17,396,q),
(14,392,l),
(15,387,l),
(17,328,o),
(57,283,qs),
(94,243,o),
(145,230,q),
(133,210,o),
(127,184,qs),
(116,143,o),
(116,105,qs),
(116,56,o),
(133,7,qs),
(139,-10,l),
(223,20,l),
(208,62,o),
(208,138,o),
(226,207,o),
(256,243,o),
(266,244,q),
(273,240,l),
(286,230,o),
(289,211,q),
(289,17,l),
(335,17,l),
(339,17,l),
(386,17,l),
(386,212,ls),
(387,235,o),
(403,248,qs),
(408,252,o),
(411,253,q),
(424,252,o),
(439,231,qs),
(453,210,o),
(459,175,qs),
(463,154,o),
(463,134,qs),
(463,76,o)
);
},
{
closed = 1;
nodes = (
(194,482,q),
(247,519,o),
(302,519,qs),
(308,519,o),
(327,514,o),
(348,498,o),
(354,483,qs),
(358,474,o),
(358,457,o),
(356,450,qs),
(352,436,o),
(334,419,o),
(320,415,o),
(302,415,o),
(283,420,qs),
(222,438,o)
);
}
);
};
layerId = m01;
shapes = (
{
closed = 1;
nodes = (
(360,217,l),
(351,235,o),
(314,286,o),
(264,286,cs),
(225,286,o),
(178,267,o),
(159,222,cs),
(135,165,o),
(149,105,o),
(160,11,c),
(216,17,l),
(209,117,o),
(211,182,o),
(220,202,cs),
(229,221,o),
(246,233,o),
(264,233,cs),
(278,233,o),
(291,224,o),
(299,210,c),
(302,18,l),
(357,18,l)
);
},
{
closed = 1;
nodes = (
(360,210,l),
(368,224,o),
(381,233,o),
(395,233,cs),
(413,233,o),
(430,221,o),
(439,202,cs),
(448,182,o),
(450,117,o),
(443,17,c),
(499,11,l),
(510,105,o),
(524,165,o),
(500,222,cs),
(481,267,o),
(434,286,o),
(395,286,cs),
(345,286,o),
(308,235,o),
(299,217,c)
);
},
{
closed = 1;
nodes = (
(146,492,l),
(198,531,o),
(267,533,o),
(325,521,cs),
(346,517,o),
(385,490,o),
(385,464,cs),
(385,437,o),
(371,415,o),
(326,415,cs),
(272,415,o),
(193,451,o),
(182,510,c),
(184,601,o),
(285,614,o),
(352,614,cs),
(515,614,o),
(623,455,o),
(624,321,cs),
(625,252,o),
(610,128,o),
(576,49,c),
(631,21,l),
(671,85,o),
(696,209,o),
(691,321,cs),
(681,527,o),
(541,676,o),
(352,676,cs),
(238,676,o),
(110,631,o),
(112,507,c),
(125,410,o),
(248,359,o),
(326,359,cs),
(417,359,o),
(455,413,o),
(455,464,cs),
(455,519,o),
(390,565,o),
(339,575,cs),
(266,590,o),
(199,566,o),
(134,553,c)
);
},
{
closed = 1;
nodes = (
(115,504,l),
(83,481,o),
(50,446,o),
(50,417,cs),
(50,347,o),
(79,296,o),
(122,270,cs),
(151,252,o),
(186,235,o),
(206,228,c),
(248,268,l),
(207,285,o),
(188,296,o),
(163,314,cs),
(147,325,o),
(121,359,o),
(120,392,cs),
(120,407,o),
(137,423,o),
(147,437,c)
);
},
{
closed = 1;
nodes = (
(186,571,l),
(197,557,l),
(225,569,l),
(213,581,l)
);
}
);
width = 742;
}
);
note = or_ll_ikaar;
}
{
glyphname = "llasign-oriya";
layers = (
{
layerId = m01;
shapes = (
{
closed = 1;
nodes = (
(61,-69,o),
(17,-16,o),
(-21,-4,qs),
(-44,4,o),
(-86,4,o),
(-102,0,qs),
(-135,-7,o),
(-158,-26,q),
(-195,4,o),
(-251,4,qs),
(-273,4,o),
(-296,-4,qs),
(-333,-16,o),
(-377,-69,o),
(-381,-102,q),
(-381,-277,l),
(-289,-277,l),
(-289,-104,l),
(-286,-85,o),
(-265,-59,o),
(-253,-55,qs),
(-250,-54,o),
(-247,-54,qs),
(-239,-54,o),
(-229,-64,qs),
(-214,-79,o),
(-213,-101,qs),
(-204,-249,l),
(-159,-249,l),
(-157,-249,l),
(-113,-249,l),
(-104,-101,ls),
(-103,-79,o),
(-88,-64,qs),
(-78,-54,o),
(-69,-54,qs),
(-67,-54,o),
(-63,-55,qs),
(-52,-59,o),
(-30,-85,o),
(-27,-104,q),
(-27,-277,l),
(65,-277,l),
(65,-102,l)
);
}
);
width = 0;
}
);
note = or_lla_phalaa;
}
{
glyphname = "mBha-oriya";
layers = (
{
layerId = m01;
shapes = (
{
closed = 1;
nodes = (
(678,-191,l),
(658,-171,l),
(688,-147,o),
(722,-108,o),
(723,-71,cs),
(726,37,o),
(630,98,o),
(544,67,cs),
(490,46,o),
(453,-21,o),
(473,-83,c),
(576,-83,l),
(574,-49,l),
(533,-31,l),
(533,-19,o),
(548,9,o),
(567,14,cs),
(614,25,o),
(663,-6,o),
(659,-60,cs),
(656,-93,o),
(622,-131,o),
(589,-153,c),
(583,-196,l),
(637,-234,l),
(722,-280,l),
(744,-245,l)
);
},
{
ref = "ma-oriya";
}
);
width = 660;
}
);
note = or_m_bha;
}
{
glyphname = "mPha-oriya";
layers = (
{
layerId = m01;
shapes = (
{
closed = 1;
nodes = (
(557,414,qs),
(583,421,o),
(608,431,q),
(608,310,l),
(486,286,o),
(363,266,qs),
(352,264,o),
(340,264,qs),
(306,264,o),
(273,278,qs),
(213,305,o),
(183,365,qs),
(163,404,o),
(163,448,qs),
(163,512,o),
(204,559,qs),
(234,594,o),
(274,610,q),
(275,603,o),
(280,575,qs),
(284,550,o),
(290,531,qs),
(304,485,o),
(332,456,qs),
(374,412,o),
(440,403,qs),
(455,401,o),
(472,401,qs),
(511,401,o)
);
},
{
closed = 1;
nodes = (
(194,776,l),
(167,717,l),
(266,671,l),
(231,664,o),
(201,648,qs),
(154,624,o),
(123,588,qs),
(70,527,o),
(70,448,qs),
(70,395,o),
(95,347,qs),
(135,269,o),
(220,231,qs),
(274,208,o),
(334,206,q),
(250,162,o),
(200,131,qs),
(121,81,o),
(121,20,qs),
(121,0,o),
(130,-17,qs),
(143,-44,o),
(172,-58,qs),
(180,-62,l),
(197,-65,o),
(206,-65,qs),
(225,-65,o),
(256,-53,o),
(277,-33,o),
(285,-11,o),
(285,10,o),
(281,20,qs),
(271,51,o),
(238,67,qs),
(236,68,l),
(247,78,o),
(266,90,qs),
(315,121,o),
(415,174,qs),
(491,214,o),
(574,236,q),
(608,242,l),
(608,-8,l),
(701,-8,l),
(701,363,l),
(714,359,o),
(729,358,qs),
(737,357,o),
(746,357,qs),
(818,357,o),
(863,405,qs),
(887,430,o),
(896,465,qs),
(901,483,o),
(901,516,o),
(898,530,qs),
(889,590,o),
(801,660,o),
(742,660,qs),
(721,660,o),
(701,654,q),
(701,690,l),
(608,690,l),
(608,585,l)
);
},
{
closed = 1;
nodes = (
(722,423,qs),
(709,431,o),
(701,444,q),
(701,550,l),
(703,560,ls),
(708,578,o),
(732,602,o),
(744,602,qs),
(756,602,o),
(771,590,qs),
(800,567,o),
(807,524,qs),
(809,513,o),
(809,503,qs),
(809,460,o),
(782,432,qs),
(766,415,o),
(746,415,qs),
(736,415,o)
);
},
{
closed = 1;
nodes = (
(520,467,qs),
(491,459,o),
(472,459,qs),
(437,459,o),
(412,485,qs),
(391,506,o),
(381,541,qs),
(376,558,o),
(367,607,o),
(365,620,qs),
(364,623,o),
(364,626,q),
(608,513,l),
(608,503,l),
(566,479,o)
);
}
);
width = 929;
}
);
note = or_m_pha;
}
{
glyphname = "mVa-oriya";
layers = (
{
layerId = m01;
shapes = (
{
closed = 1;
nodes = (
(257,46,qs),
(245,59,o),
(228,66,q),
(239,78,o),
(258,92,qs),
(342,157,o),
(390,186,qs),
(458,227,o),
(537,236,qs),
(576,242,l),
(576,200,l),
(538,170,o),
(528,126,qs),
(525,112,o),
(525,79,o),
(530,61,qs),
(540,28,o),
(567,4,qs),
(611,-37,o),
(677,-37,qs),
(692,-37,o),
(710,-34,qs),
(713,-33,l),
(721,-30,l),
(721,-124,l),
(813,-124,l),
(813,217,l),
(767,217,l),
(762,217,l),
(716,217,l),
(716,31,l),
(679,21,l),
(678,21,o),
(677,21,qs),
(659,21,o),
(627,50,o),
(621,72,qs),
(617,84,o),
(617,108,o),
(619,117,qs),
(627,152,o),
(654,168,qs),
(668,177,l),
(669,722,l),
(576,722,l),
(576,664,l),
(488,700,o),
(393,700,qs),
(348,700,o),
(305,691,qs),
(221,674,o),
(163,628,qs),
(100,579,o),
(79,508,qs),
(70,479,o),
(70,448,qs),
(70,393,o),
(95,345,qs),
(137,267,o),
(225,230,qs),
(259,215,o),
(297,209,q),
(256,182,o),
(186,129,qs),
(146,98,o),
(129,70,qs),
(117,50,o),
(114,29,qs),
(113,22,o),
(113,-1,o),
(118,-15,qs),
(130,-48,o),
(163,-66,qs),
(195,-83,l),
(225,-65,ls),
(236,-58,o),
(245,-50,qs),
(260,-36,o),
(272,-6,o),
(272,7,qs),
(272,29,o)
);
},
{
closed = 1;
nodes = (
(468,294,o),
(364,264,q),
(355,263,o),
(345,263,qs),
(310,263,o),
(276,278,qs),
(214,304,o),
(183,363,qs),
(162,403,o),
(162,448,qs),
(162,474,o),
(169,498,qs),
(186,554,o),
(235,592,qs),
(276,625,o),
(333,636,qs),
(362,642,o),
(393,642,qs),
(487,642,o),
(576,591,q),
(576,591,l),
(576,311,l)
);
}
);
width = 845;
}
);
note = or_m_va;
}
{
glyphname = "nMa-oriya";
layers = (
{
layerId = m01;
shapes = (
{
closed = 1;
nodes = (
(570,52,qs),
(604,84,o),
(657,98,qs),
(675,103,o),
(693,106,q),
(691,23,o),
(677,-19,qs),
(666,-50,o),
(630,-93,o),
(609,-101,qs),
(600,-104,o),
(592,-104,qs),
(569,-104,o),
(549,-80,qs),
(538,-67,o),
(534,-50,qs),
(531,-41,o),
(531,-12,o),
(538,6,qs),
(548,31,o)
);
},
{
closed = 1;
nodes = (
(114,243,qs),
(138,212,o),
(173,191,qs),
(200,175,o),
(230,166,q),
(241,164,l),
(238,160,o),
(236,157,qs),
(203,103,o),
(198,39,qs),
(196,15,l),
(233,10,ls),
(242,8,o),
(252,8,qs),
(282,8,o),
(332,35,o),
(344,58,qs),
(352,74,o),
(352,91,qs),
(352,120,o),
(332,142,qs),
(329,146,l),
(369,204,o),
(451,246,qs),
(475,258,o),
(500,268,q),
(500,91,l),
(501,91,l),
(497,88,o),
(493,84,qs),
(462,54,o),
(449,19,qs),
(439,-5,o),
(439,-30,qs),
(439,-45,o),
(442,-59,qs),
(457,-117,o),
(516,-145,qs),
(551,-162,o),
(626,-162,o),
(656,-150,qs),
(699,-134,o),
(729,-99,qs),
(753,-70,o),
(767,-31,qs),
(782,12,o),
(785,91,q),
(839,96,l),
(839,-137,l),
(931,-137,l),
(931,130,l),
(924,137,l),
(916,145,l),
(900,161,l),
(786,149,l),
(786,163,o),
(786,174,qs),
(786,259,o),
(777,321,qs),
(760,439,o),
(707,522,qs),
(642,624,o),
(532,667,qs),
(468,693,o),
(336,693,o),
(225,652,o),
(179,611,qs),
(126,563,o),
(70,438,o),
(70,379,qs),
(70,301,o)
);
},
{
closed = 1;
nodes = (
(585,317,l),
(574,328,l),
(553,349,l),
(517,339,ls),
(452,321,o),
(393,291,qs),
(343,265,o),
(306,235,q),
(253,224,l),
(221,238,o),
(197,268,qs),
(162,314,o),
(162,379,qs),
(162,430,o),
(210,538,o),
(255,578,qs),
(289,608,o),
(362,635,o),
(441,635,o),
(483,619,qs),
(567,585,o),
(621,501,qs),
(670,425,o),
(686,315,qs),
(694,256,o),
(694,174,qs),
(694,170,o),
(694,164,q),
(657,161,o),
(620,151,qs),
(606,147,o),
(592,142,q),
(592,310,l)
);
}
);
width = 969;
}
);
note = or_n_ma;
}
{
glyphname = "nNa-oriya";
layers = (
{
layerId = m01;
shapes = (
{
closed = 1;
nodes = (
(606,57,q),
(642,120,o),
(703,153,qs),
(725,166,o),
(750,173,q),
(750,-70,l),
(838,-70,l),
(838,207,l),
(831,213,l),
(823,222,l),
(808,236,l),
(781,234,ls),
(769,233,o),
(758,232,q),
(767,274,o),
(767,316,qs),
(767,364,o),
(755,413,qs),
(737,483,o),
(650,603,o),
(519,682,o),
(437,690,qs),
(417,693,o),
(397,693,qs),
(334,693,o),
(212,648,o),
(115,555,o),
(70,445,o),
(70,392,qs),
(70,307,o),
(120,244,qs),
(144,212,o),
(178,192,qs),
(205,176,o),
(235,168,qs),
(247,164,l),
(244,160,o),
(242,157,qs),
(209,102,o),
(203,39,qs),
(201,16,l),
(237,11,ls),
(246,10,o),
(255,10,qs),
(284,10,o),
(334,35,o),
(346,59,qs),
(354,74,o),
(354,91,qs),
(354,120,o),
(334,141,qs),
(330,146,l),
(371,206,o),
(453,247,qs),
(484,262,o),
(516,273,q),
(516,62,l),
(495,20,o),
(488,-26,qs),
(484,-50,l),
(521,-56,ls),
(529,-57,o),
(538,-57,qs),
(564,-57,o),
(608,-34,o),
(618,-14,qs),
(624,-1,o),
(624,13,qs),
(624,37,o)
);
},
{
closed = 1;
nodes = (
(597,316,l),
(587,327,l),
(568,346,l),
(535,338,ls),
(463,322,o),
(398,290,qs),
(348,265,o),
(310,234,q),
(257,223,l),
(223,237,o),
(199,268,qs),
(158,320,o),
(158,392,qs),
(158,438,o),
(197,533,o),
(274,607,o),
(358,638,o),
(397,638,qs),
(465,638,o),
(527,600,qs),
(577,570,o),
(652,467,o),
(668,404,qs),
(679,360,o),
(679,316,qs),
(679,259,o),
(660,202,q),
(652,199,o),
(645,195,qs),
(623,183,o),
(604,168,q),
(604,310,l)
);
}
);
width = 878;
}
);
note = or_n_na;
}
{
glyphname = "naDhaI-oriya";
layers = (
{
background = {
shapes = (
{
closed = 1;
nodes = (
(175,68,qs),
(188,84,o),
(211,101,q),
(210,95,o),
(210,88,qs),
(210,61,o),
(220,37,qs),
(242,-16,o),
(301,-39,qs),
(332,-51,o),
(399,-51,o),
(430,-42,qs),
(491,-23,o),
(538,29,q),
(538,-41,l),
(631,-41,l),
(631,288,l),
(609,288,l),
(255,625,l),
(255,625,o),
(256,626,q),
(291,642,o),
(364,653,o),
(395,653,qs),
(457,653,o),
(515,634,qs),
(613,602,o),
(664,521,qs),
(712,445,o),
(712,326,qs),
(712,232,o),
(685,142,q),
(771,115,l),
(775,131,ls),
(805,226,o),
(805,326,qs),
(805,456,o),
(750,542,qs),
(686,643,o),
(558,685,qs),
(480,710,o),
(395,710,qs),
(352,710,o),
(310,704,qs),
(251,695,o),
(204,673,q),
(159,716,l),
(107,661,l),
(138,632,l),
(126,621,o),
(115,609,qs),
(70,557,o),
(66,490,qs),
(65,483,l),
(69,477,ls),
(99,435,o),
(144,408,q),
(114,396,o),
(90,376,qs),
(39,335,o),
(22,273,qs),
(19,262,l),
(29,252,ls),
(66,217,o),
(159,184,o),
(207,184,qs),
(212,184,o),
(216,184,q),
(130,140,o),
(91,92,qs),
(48,39,o),
(46,-31,qs),
(44,-66,l),
(100,-60,ls),
(131,-56,o),
(172,-20,o),
(172,6,qs),
(172,27,o),
(159,43,q),
(166,56,o)
);
},
{
closed = 1;
nodes = (
(163,341,qs),
(178,353,o),
(195,360,q),
(313,368,l),
(313,394,l),
(313,398,l),
(313,423,l),
(274,427,ls),
(245,429,o),
(218,443,qs),
(183,461,o),
(158,494,q),
(164,542,o),
(194,578,q),
(530,258,l),
(530,174,o),
(491,104,qs),
(471,68,o),
(417,19,o),
(389,10,qs),
(378,7,o),
(358,7,o),
(349,10,qs),
(322,20,o),
(309,51,qs),
(303,68,o),
(303,88,qs),
(303,120,o),
(320,157,qs),
(340,198,o),
(374,235,qs),
(388,250,l),
(373,265,l),
(370,268,l),
(336,301,l),
(295,271,ls),
(255,241,o),
(159,241,o),
(117,275,q),
(131,315,o)
);
}
);
};
layerId = m01;
shapes = (
{
closed = 1;
nodes = (
(199,590,l),
(167,542,l),
(636,222,l),
(671,265,l)
);
},
{
closed = 1;
nodes = (
(509,118,l),
(516,156,l),
(498,121,l),
(492,118,l),
(507,119,l)
);
},
{
closed = 1;
nodes = (
(267,330,l),
(229,281,l),
(97,83,l),
(91,63,l),
(142,34,l),
(228,179,l),
(278,241,l),
(374,386,l),
(337,413,l)
);
},
{
closed = 1;
nodes = (
(192,13,o),
(207,43,o),
(197,70,cs),
(190,89,o),
(173,90,o),
(195,125,c),
(123,105,l),
(96,95,o),
(83,65,o),
(93,36,cs),
(103,8,o),
(137,-7,o),
(164,3,cs)
);
},
{
closed = 1;
nodes = (
(267,227,l),
(275,264,l),
(239,253,ls),
(192,238,o),
(129,261,o),
(118,281,cs),
(94,325,o),
(185,365,o),
(215,378,cs),
(241,389,l),
(227,432,l),
(199,424,ls),
(142,408,o),
(5,359,o),
(65,248,cs),
(87,206,o),
(132,183,o),
(177,182,c)
);
},
{
closed = 1;
nodes = (
(129,506,o),
(236,616,o),
(355,616,cs),
(568,616,o),
(675,478,o),
(675,341,c),
(672,302,o),
(669,255,o),
(669,238,cs),
(670,173,l),
(732,177,l),
(732,213,ls),
(732,248,o),
(742,294,o),
(745,339,c),
(745,502,o),
(613,672,o),
(355,672,cs),
(273,672,o),
(179,625,o),
(122,564,cs),
(97,537,o),
(62,483,o),
(62,448,cs),
(62,406,o),
(86,377,o),
(137,360,c),
(184,406,l),
(166,411,ls),
(137,419,o),
(130,428,o),
(130,448,cs)
);
},
{
closed = 1;
nodes = (
(509,220,ls),
(471,170,o),
(434,143,o),
(392,142,cs),
(337,141,o),
(302,198,o),
(292,243,cs),
(285,277,l),
(221,265,l),
(229,231,ls),
(242,177,o),
(289,83,o),
(396,86,cs),
(457,87,o),
(512,120,o),
(551,167,c),
(518,232,l)
);
},
{
closed = 1;
nodes = (
(511,215,l),
(507,118,l),
(515,-11,l),
(572,-11,l),
(574,252,l),
(523,243,l),
(506,215,l)
);
}
);
width = 795;
}
);
note = or_n_dh_ikaar;
}
{
glyphname = "naIi-oriya";
layers = (
{
layerId = m01;
shapes = (
{
closed = 1;
nodes = (
(156,348,o),
(140,381,o),
(140,408,cs),
(140,525,o),
(210,615,o),
(330,615,cs),
(447,615,o),
(470,487,o),
(473,425,c),
(521,425,l),
(527,508,o),
(566,603,o),
(601,608,cs),
(616,610,o),
(627,600,o),
(630,575,c),
(630,15,l),
(700,15,l),
(700,577,l),
(700,640,o),
(637,675,o),
(575,660,cs),
(500,644,o),
(476,538,o),
(474,515,c),
(516,515,l),
(515,543,o),
(496,671,o),
(330,671,cs),
(169,671,o),
(70,554,o),
(70,408,cs),
(70,382,o),
(82,334,o),
(123,297,cs),
(169,256,o),
(271,245,o),
(309,256,c),
(309,252,l),
(227,199,o),
(191,123,o),
(197,85,c),
(218,57,l),
(222,89,l),
(291,119,l),
(286,121,o),
(292,134,o),
(298,152,cs),
(316,204,o),
(386,253,o),
(457,273,c),
(461,17,l),
(520,17,l),
(520,306,l),
(477,334,l),
(420,319,o),
(365,305,o),
(354,304,c),
(322,299,o),
(212,310,o),
(169,339,cs)
);
},
{
closed = 1;
nodes = (
(312,12,o),
(333,47,o),
(324,80,cs),
(314,114,o),
(279,135,o),
(245,126,cs),
(212,117,o),
(189,82,o),
(198,47,cs),
(207,14,o),
(245,-6,o),
(278,3,cs)
);
},
{
closed = 1;
nodes = (
(227,167,l),
(196,123,o),
(187,88,o),
(198,47,c),
(313,102,l),
(300,123,o),
(276,142,o),
(324,194,c)
);
}
);
width = 770;
}
);
note = or_n_iikaar;
}
{
glyphname = "naU-oriya";
layers = (
{
background = {
shapes = (
{
closed = 1;
nodes = (
(335,163,qs),
(331,167,l),
(372,226,o),
(453,267,qs),
(482,281,o),
(513,292,q),
(513,27,l),
(605,27,l),
(605,331,l),
(598,338,l),
(587,349,l),
(568,368,l),
(533,360,ls),
(461,344,o),
(396,312,qs),
(346,287,o),
(308,256,q),
(256,245,l),
(223,259,o),
(200,289,qs),
(163,337,o),
(163,403,qs),
(163,444,o),
(178,484,qs),
(199,539,o),
(245,579,qs),
(306,633,o),
(385,633,qs),
(405,633,o),
(425,629,qs),
(481,619,o),
(583,544,o),
(654,426,o),
(668,358,qs),
(679,303,o),
(679,141,o),
(670,-15,q),
(584,-19,o),
(488,-34,qs),
(440,-41,o),
(412,-52,qs),
(366,-70,o),
(322,-131,o),
(322,-168,qs),
(322,-215,o),
(355,-253,qs),
(382,-286,o),
(474,-324,o),
(533,-324,qs),
(583,-324,o),
(627,-308,qs),
(683,-288,o),
(748,-208,o),
(752,-159,q),
(752,-159,l),
(756,-116,o),
(759,-73,q),
(769,-73,o),
(834,-77,o),
(857,-77,qs),
(936,-77,o),
(1009,-54,q),
(991,5,l),
(968,-2,ls),
(924,-16,o),
(878,-18,qs),
(868,-19,o),
(838,-19,o),
(766,-15,o),
(762,-15,q),
(772,141,o),
(772,306,o),
(759,365,qs),
(744,441,o),
(665,573,o),
(603,619,qs),
(534,669,o),
(451,685,qs),
(418,691,o),
(385,691,qs),
(327,691,o),
(216,653,o),
(170,613,qs),
(114,564,o),
(88,497,qs),
(70,451,o),
(70,403,qs),
(70,324,o),
(117,264,qs),
(141,233,o),
(176,212,qs),
(202,196,o),
(233,187,qs),
(243,185,l),
(241,181,o),
(239,178,qs),
(205,123,o),
(200,60,qs),
(198,36,l),
(235,31,ls),
(245,29,o),
(254,29,qs),
(284,29,o),
(335,56,o),
(347,79,qs),
(355,95,o),
(355,112,qs),
(355,141,o)
);
},
{
closed = 1;
nodes = (
(438,-110,o),
(461,-101,qs),
(476,-95,o),
(510,-90,qs),
(592,-77,o),
(666,-73,q),
(664,-114,o),
(660,-156,qs),
(657,-193,o),
(613,-246,o),
(581,-258,qs),
(559,-266,o),
(533,-266,qs),
(470,-266,o),
(437,-227,qs),
(414,-201,o),
(414,-168,qs),
(414,-144,o)
);
}
);
};
layerId = m01;
shapes = (
{
closed = 1;
nodes = (
(412,-181,o),
(432,-140,o),
(470,-136,cs),
(490,-133,o),
(517,-140,o),
(537,-147,c),
(530,-228,o),
(523,-257,o),
(501,-268,cs),
(479,-279,o),
(451,-278,o),
(430,-262,cs),
(408,-244,o),
(409,-219,o),
(409,-210,cs)
);
},
{
closed = 1;
nodes = (
(282,12,o),
(303,47,o),
(294,80,cs),
(284,114,o),
(249,135,o),
(215,126,cs),
(182,117,o),
(159,82,o),
(168,47,cs),
(177,14,o),
(215,-6,o),
(248,3,cs)
);
},
{
closed = 1;
nodes = (
(197,167,l),
(166,123,o),
(157,88,o),
(168,47,c),
(283,102,l),
(270,123,o),
(246,142,o),
(294,194,c)
);
},
{
closed = 1;
nodes = (
(614,-57,o),
(630,7,o),
(640,59,cs),
(662,178,o),
(680,318,o),
(628,476,cs),
(589,594,o),
(475,672,o),
(345,672,cs),
(175,672,o),
(51,562,o),
(51,429,c),
(46,379,o),
(77,318,o),
(120,291,cs),
(169,262,o),
(224,255,o),
(279,256,c),
(279,252,l),
(197,199,o),
(161,123,o),
(167,85,c),
(188,57,l),
(192,89,l),
(261,119,l),
(256,121,o),
(262,134,o),
(268,152,cs),
(286,204,o),
(356,253,o),
(427,273,c),
(431,17,l),
(490,17,l),
(490,306,l),
(447,334,l),
(390,319,o),
(335,305,o),
(324,304,cs),
(277,297,o),
(200,319,o),
(158,341,cs),
(137,354,o),
(120,390,o),
(120,425,cs),
(119,529,o),
(213,611,o),
(345,611,cs),
(482,611,o),
(565,501,o),
(579,343,cs),
(590,216,o),
(577,107,o),
(572,65,cs),
(566,14,o),
(549,-41,o),
(538,-90,c),
(519,-88,o),
(487,-86,o),
(473,-86,cs),
(404,-86,o),
(354,-138,o),
(343,-182,cs),
(332,-224,o),
(348,-275,o),
(404,-307,cs),
(467,-343,o),
(540,-319,o),
(563,-296,cs),
(596,-263,o),
(598,-202,o),
(598,-168,c),
(652,-188,o),
(726,-219,o),
(778,-234,cs),
(842,-253,o),
(938,-243,o),
(963,-235,cs),
(989,-227,l),
(969,-177,l),
(943,-185,ls),
(924,-191,o),
(850,-196,o),
(798,-180,cs),
(746,-164,o),
(669,-127,o),
(604,-108,c)
);
}
);
width = 712;
}
);
note = or_n_ukaar;
}
{
glyphname = "ngGha-oriya";
layers = (
{
background = {
shapes = (
{
closed = 1;
nodes = (
(582,669,o),
(545,682,qs),
(490,702,o),
(428,702,qs),
(402,702,o),
(376,699,qs),
(295,687,o),
(226,643,qs),
(166,604,o),
(127,548,qs),
(70,467,o),
(70,372,qs),
(70,344,o),
(76,316,qs),
(91,248,o),
(140,213,qs),
(167,193,o),
(202,189,q),
(187,153,o),
(187,118,qs),
(187,105,o),
(189,93,qs),
(196,56,o),
(250,9,o),
(289,2,qs),
(302,0,o),
(317,0,qs),
(372,0,o),
(421,32,q),
(429,20,o),
(441,11,qs),
(476,-15,o),
(527,-15,qs),
(563,-15,o),
(601,-1,qs),
(607,1,o),
(612,4,q),
(612,-56,l),
(704,-56,l),
(704,388,l),
(707,388,o),
(711,387,qs),
(728,383,o),
(772,383,o),
(796,391,qs),
(831,402,o),
(855,428,qs),
(885,462,o),
(885,507,qs),
(885,554,o),
(850,591,qs),
(827,615,o),
(793,626,qs),
(768,634,o),
(741,634,qs),
(726,634,o),
(711,632,qs),
(707,631,o),
(704,630,q),
(704,692,l),
(612,692,l),
(612,649,l)
);
},
{
closed = 1;
nodes = (
(554,49,qs),
(537,43,o),
(519,43,o),
(513,48,qs),
(501,56,o),
(497,73,qs),
(496,78,o),
(496,83,qs),
(496,95,o),
(502,107,qs),
(517,137,ls),
(522,145,o),
(526,154,q),
(527,155,l),
(545,197,l),
(457,213,l),
(429,155,l),
(409,121,o),
(381,94,qs),
(364,78,o),
(330,57,o),
(317,57,qs),
(307,57,o),
(299,65,qs),
(279,82,o),
(279,120,qs),
(279,132,o),
(283,148,qs),
(292,186,o),
(318,215,q),
(374,267,l),
(316,324,l),
(277,284,ls),
(259,266,o),
(226,246,o),
(218,246,qs),
(216,246,o),
(208,252,qs),
(194,262,o),
(183,281,qs),
(162,319,o),
(162,373,qs),
(162,455,o),
(211,524,qs),
(245,572,o),
(292,602,qs),
(358,645,o),
(428,645,qs),
(465,645,o),
(499,632,qs),
(571,606,o),
(612,538,q),
(611,498,l),
(611,497,ls),
(611,491,o),
(612,485,q),
(612,85,l),
(586,61,o)
);
},
{
closed = 1;
nodes = (
(730,577,o),
(741,577,qs),
(756,577,o),
(773,559,qs),
(785,547,o),
(790,528,qs),
(793,518,o),
(793,498,o),
(791,489,qs),
(787,470,o),
(764,445,o),
(753,442,q),
(749,440,o),
(747,440,qs),
(732,440,o),
(718,458,qs),
(707,471,o),
(704,488,q),
(704,552,l),
(710,560,o)
);
}
);
};
layerId = m01;
shapes = (
{
ref = "gha-oriya";
},
{
closed = 1;
nodes = (
(857,303,o),
(928,371,o),
(928,451,cs),
(928,531,o),
(857,599,o),
(768,599,cs),
(726,599,o),
(690,578,o),
(661,553,c),
(653,553,l),
(618,489,l),
(613,475,o),
(638,466,o),
(638,451,cs),
(638,421,o),
(641,384,o),
(653,361,c),
(660,361,l),
(681,326,o),
(716,303,o),
(768,303,cs)
);
},
{
closed = 1;
nodes = (
(719,359,o),
(678,399,o),
(678,451,cs),
(678,503,o),
(719,543,o),
(768,543,cs),
(817,543,o),
(858,503,o),
(858,451,cs),
(858,399,o),
(817,359,o),
(768,359,cs)
);
}
);
width = 933;
}
);
note = or_ng_gha;
}
{
glyphname = "nnTta-oriya";
layers = (
{
layerId = m01;
shapes = (
{
closed = 1;
nodes = (
(440,-97,qs),
(444,-92,o),
(450,-89,q),
(460,-97,o),
(496,-120,o),
(502,-126,qs),
(514,-137,o),
(523,-159,o),
(523,-169,qs),
(523,-185,o),
(513,-197,qs),
(503,-207,o),
(491,-207,qs),
(485,-207,o),
(480,-206,qs),
(462,-203,o),
(448,-190,qs),
(425,-169,o),
(425,-140,qs),
(425,-115,o)
);
},
{
closed = 1;
nodes = (
(693,64,o),
(661,75,q),
(661,692,l),
(573,692,l),
(573,652,l),
(555,666,o),
(533,677,qs),
(473,709,o),
(404,709,qs),
(375,709,o),
(348,704,qs),
(300,693,o),
(227,639,o),
(188,565,o),
(188,525,qs),
(188,502,o),
(195,481,q),
(124,454,o),
(86,397,qs),
(55,351,o),
(55,291,qs),
(55,238,o),
(81,186,qs),
(118,112,o),
(263,26,o),
(351,26,qs),
(392,26,o),
(424,36,q),
(417,26,o),
(413,14,qs),
(409,2,o),
(409,-24,o),
(413,-37,q),
(383,-48,o),
(363,-71,qs),
(337,-101,o),
(337,-140,qs),
(337,-148,o),
(338,-156,qs),
(345,-194,o),
(407,-250,o),
(454,-259,qs),
(472,-262,o),
(490,-262,qs),
(523,-262,o),
(574,-241,o),
(604,-208,o),
(609,-189,qs),
(611,-179,o),
(611,-153,o),
(605,-137,qs),
(596,-113,o),
(574,-94,qs),
(564,-85,o),
(526,-61,o),
(520,-56,qs),
(507,-45,o),
(501,-30,qs),
(497,-20,o),
(497,-4,o),
(500,3,qs),
(505,19,o),
(537,35,o),
(567,35,qs),
(589,35,o),
(609,30,qs),
(639,21,o),
(682,-17,o),
(707,-72,o),
(708,-101,qs),
(708,-128,l),
(752,-128,l),
(764,-128,l),
(808,-128,l),
(808,341,l),
(720,341,l),
(720,44,l)
);
},
{
closed = 1;
nodes = (
(276,525,qs),
(276,557,o),
(305,611,o),
(329,629,qs),
(364,654,o),
(404,654,qs),
(440,654,o),
(507,619,o),
(558,560,o),
(571,524,qs),
(573,519,l),
(573,90,l),
(570,90,o),
(567,90,qs),
(532,90,o),
(503,84,q),
(535,119,o),
(535,168,qs),
(535,172,o),
(534,184,q),
(528,191,l),
(500,217,o),
(459,232,q),
(143,293,l),
(144,341,o),
(168,377,qs),
(189,409,o),
(224,427,q),
(258,386,o),
(316,362,qs),
(360,344,o),
(400,344,qs),
(452,344,o),
(486,370,qs),
(503,383,o),
(513,401,qs),
(520,414,l),
(507,425,ls),
(489,442,o),
(469,454,qs),
(396,500,o),
(304,500,qs),
(291,500,o),
(279,499,q),
(276,512,o)
);
},
{
closed = 1;
nodes = (
(387,399,o),
(365,408,qs),
(331,422,o),
(309,444,q),
(371,443,o),
(420,406,q),
(411,399,o)
);
},
{
closed = 1;
nodes = (
(251,109,qs),
(195,142,o),
(165,202,qs),
(157,218,o),
(152,234,q),
(422,182,l),
(435,176,o),
(447,167,q),
(446,128,o),
(395,81,o),
(350,81,qs),
(298,81,o)
);
}
);
width = 866;
}
);
note = or_nn_tta;
}
{
glyphname = "nnTtha-oriya";
layers = (
{
layerId = m01;
shapes = (
{
closed = 1;
nodes = (
(171,471,qs),
(116,444,o),
(86,399,qs),
(55,351,o),
(55,291,qs),
(55,238,o),
(81,186,qs),
(119,106,o),
(199,59,qs),
(275,15,o),
(366,15,qs),
(375,15,o),
(384,15,q),
(384,15,l),
(430,18,o),
(465,31,qs),
(494,43,o),
(514,61,qs),
(559,101,o),
(559,156,qs),
(559,161,o),
(559,167,qs),
(558,175,l),
(550,182,ls),
(541,191,o),
(531,198,q),
(530,198,l),
(529,199,ls),
(510,212,o),
(487,221,qs),
(483,223,l),
(477,224,l),
(147,294,l),
(148,341,o),
(172,377,qs),
(192,407,o),
(225,425,q),
(233,416,o),
(242,407,qs),
(273,379,o),
(317,361,qs),
(359,343,o),
(398,343,q),
(399,342,o),
(401,342,qs),
(431,342,o),
(456,351,qs),
(475,358,o),
(490,370,q),
(490,370,l),
(506,383,o),
(516,400,qs),
(524,414,l),
(510,427,ls),
(492,442,o),
(472,455,q),
(472,455,l),
(472,455,l),
(398,501,o),
(306,501,qs),
(296,501,o),
(286,500,qs),
(284,500,o),
(282,500,q),
(279,513,o),
(279,526,qs),
(279,555,o),
(294,584,qs),
(308,611,o),
(333,629,qs),
(355,645,o),
(380,650,qs),
(394,653,o),
(407,653,qs),
(440,653,o),
(476,634,qs),
(543,598,o),
(570,524,q),
(572,524,l),
(572,46,l),
(550,41,o),
(527,32,qs),
(488,17,o),
(461,-3,qs),
(429,-28,o),
(413,-60,qs),
(399,-88,o),
(399,-120,qs),
(399,-125,o),
(399,-129,qs),
(401,-165,o),
(420,-197,qs),
(457,-260,o),
(539,-287,qs),
(579,-300,o),
(620,-300,qs),
(653,-300,o),
(685,-291,qs),
(757,-272,o),
(798,-219,qs),
(836,-171,o),
(836,-114,qs),
(836,-109,o),
(836,-104,qs),
(832,-36,o),
(780,8,qs),
(734,47,o),
(664,53,q),
(664,692,l),
(572,692,l),
(572,655,l),
(555,668,o),
(536,678,qs),
(474,711,o),
(407,711,qs),
(378,711,o),
(349,705,qs),
(301,694,o),
(263,666,qs),
(226,639,o),
(207,602,qs),
(187,564,o),
(187,526,qs),
(187,504,o),
(194,481,q),
(182,477,o)
);
},
{
closed = 1;
nodes = (
(406,400,o),
(401,400,q),
(401,400,o),
(401,400,q),
(388,400,o),
(368,409,qs),
(339,421,o),
(319,439,qs),
(317,441,o),
(315,443,q),
(364,441,o),
(406,415,qs),
(413,411,o),
(418,406,q),
(418,406,o),
(418,406,q),
(414,403,o)
);
},
{
closed = 1;
nodes = (
(366,73,qs),
(312,73,o),
(261,102,qs),
(200,137,o),
(169,202,qs),
(162,217,o),
(157,231,q),
(441,171,l),
(452,166,o),
(461,160,qs),
(464,158,o),
(467,156,q),
(467,119,o),
(439,94,qs),
(429,85,o),
(416,80,qs),
(400,74,o),
(377,73,qs),
(372,73,o)
);
},
{
closed = 1;
nodes = (
(641,-3,qs),
(644,-3,o),
(646,-3,qs),
(681,-5,o),
(706,-26,qs),
(741,-56,o),
(743,-106,q),
(744,-110,o),
(744,-114,qs),
(744,-158,o),
(716,-194,qs),
(689,-227,o),
(649,-238,qs),
(634,-242,o),
(620,-242,qs),
(601,-242,o),
(581,-235,qs),
(531,-219,o),
(507,-177,qs),
(493,-153,o),
(491,-127,qs),
(491,-123,o),
(491,-120,qs),
(491,-97,o),
(501,-77,qs),
(511,-56,o),
(532,-40,qs),
(550,-27,o),
(575,-17,qs),
(612,-3,o)
);
}
);
width = 728;
}
);
note = or_nn_ttha;
}
{
glyphname = "nyJha-oriya";
layers = (
{
layerId = m01;
shapes = (
{
closed = 1;
nodes = (
(735,51,qs),
(733,54,l),
(616,144,l),
(760,287,l),
(760,658,l),
(668,658,l),
(668,304,l),
(603,239,l),
(603,422,l),
(622,438,o),
(636,459,qs),
(653,486,o),
(653,518,qs),
(653,562,o),
(619,594,qs),
(579,633,o),
(513,633,qs),
(483,633,o),
(454,623,q),
(446,647,o),
(427,666,qs),
(398,696,o),
(355,704,qs),
(340,707,o),
(325,707,qs),
(289,707,o),
(259,691,qs),
(222,672,o),
(208,637,qs),
(201,621,o),
(201,580,o),
(212,560,qs),
(223,538,l),
(300,578,l),
(294,589,o),
(294,614,o),
(297,623,qs),
(304,640,o),
(318,647,qs),
(322,649,o),
(325,649,qs),
(336,649,o),
(348,636,qs),
(369,615,o),
(369,581,qs),
(369,571,o),
(365,560,qs),
(354,522,l),
(348,501,l),
(429,473,l),
(446,507,l),
(462,542,l),
(473,560,o),
(491,569,qs),
(502,575,o),
(513,575,qs),
(529,575,o),
(542,562,qs),
(561,545,o),
(561,518,qs),
(561,497,o),
(549,479,qs),
(539,463,o),
(521,450,qs),
(476,417,o),
(408,417,qs),
(372,417,o),
(275,436,o),
(247,449,qs),
(209,465,o),
(187,493,qs),
(158,529,o),
(158,577,qs),
(158,593,o),
(162,608,q),
(74,629,l),
(71,616,ls),
(66,597,o),
(66,577,qs),
(66,515,o),
(104,467,qs),
(137,427,o),
(193,402,qs),
(234,384,o),
(358,360,o),
(408,360,qs),
(464,360,o),
(511,373,q),
(511,227,l),
(508,223,ls),
(457,141,o),
(388,72,qs),
(353,36,o),
(292,-2,o),
(266,-2,qs),
(243,-2,o),
(226,14,qs),
(213,26,o),
(208,42,qs),
(204,52,o),
(204,63,qs),
(204,87,o),
(227,113,qs),
(233,120,o),
(258,145,o),
(263,151,qs),
(294,185,o),
(305,218,qs),
(311,236,o),
(311,280,o),
(301,300,qs),
(284,332,o),
(248,349,qs),
(219,362,o),
(184,362,qs),
(131,362,o),
(89,331,qs),
(64,312,o),
(48,284,qs),
(26,247,o),
(26,204,qs),
(26,190,o),
(30,168,q),
(120,183,l),
(119,193,o),
(119,204,qs),
(119,237,o),
(135,265,qs),
(145,283,o),
(174,305,o),
(186,305,qs),
(189,305,o),
(193,302,q),
(206,297,o),
(219,271,o),
(219,255,qs),
(219,219,o),
(183,180,qs),
(179,175,o),
(153,149,o),
(146,141,qs),
(121,112,o),
(115,85,qs),
(112,74,o),
(112,46,o),
(118,30,qs),
(127,3,o),
(150,-18,qs),
(195,-59,o),
(266,-59,qs),
(330,-59,o),
(390,-22,qs),
(426,0,o),
(467,41,qs),
(490,64,o),
(511,89,q),
(511,-20,l),
(603,-20,l),
(603,63,l),
(654,23,l),
(666,7,o),
(666,-14,qs),
(666,-19,o),
(665,-24,q),
(755,-39,l),
(758,-22,o),
(758,-14,qs),
(758,22,o)
);
}
);
width = 801;
}
);
note = or_ny_jha;
}
{
glyphname = or_bh_iikaar;
layers = (
{
layerId = m01;
shapes = (
{
closed = 1;
nodes = (
(449,271,q),
(468,302,l),
(401,345,l),
(386,322,l),
(364,288,l),
(362,284,l),
(360,271,o),
(360,262,qs),
(360,233,o),
(374,206,qs),
(394,169,o),
(435,149,qs),
(469,132,o),
(505,132,qs),
(524,132,o),
(542,136,q),
(534,123,o),
(524,112,qs),
(499,82,o),
(468,66,qs),
(430,46,o),
(387,46,qs),
(373,46,o),
(359,49,qs),
(321,55,o),
(298,76,qs),
(267,103,o),
(267,143,qs),
(267,163,o),
(281,188,qs),
(290,203,o),
(320,241,o),
(335,260,q),
(333,268,l),
(332,273,l),
(321,315,l),
(224,274,ls),
(218,272,o),
(213,272,qs),
(203,272,o),
(191,282,qs),
(180,292,o),
(172,309,qs),
(158,339,o),
(158,382,qs),
(158,445,o),
(190,500,qs),
(228,567,o),
(299,603,qs),
(345,626,o),
(385,626,qs),
(441,626,o),
(475,583,qs),
(496,557,o),
(505,515,qs),
(510,490,o),
(511,464,qs),
(511,437,l),
(555,437,l),
(561,437,l),
(606,437,l),
(605,470,o),
(605,474,qs),
(605,493,o),
(609,512,qs),
(621,567,o),
(660,601,qs),
(695,631,o),
(734,631,q),
(734,-15,l),
(563,49,l),
(624,95,o),
(649,169,qs),
(650,172,l),
(651,329,l),
(563,329,l),
(562,238,l),
(561,236,ls),
(550,203,o),
(522,191,qs),
(513,187,o),
(499,187,o),
(489,192,qs),
(470,202,o),
(448,242,o),
(448,262,qs),
(448,267,o)
);
},
{
closed = 1;
nodes = (
(203,65,o),
(225,45,qs),
(267,7,o),
(335,-4,qs),
(361,-9,o),
(387,-9,qs),
(444,-9,o),
(494,10,q),
(818,-110,ls),
(839,-117,o),
(857,-121,qs),
(875,-125,o),
(897,-128,q),
(903,-72,l),
(887,-71,o),
(863,-62,qs),
(822,-47,l),
(822,655,l),
(815,661,l),
(808,668,l),
(800,676,l),
(786,680,ls),
(761,686,o),
(734,686,qs),
(650,686,o),
(589,633,qs),
(572,619,o),
(559,601,q),
(534,636,o),
(491,658,qs),
(442,681,o),
(385,681,qs),
(314,681,o),
(244,646,qs),
(154,600,o),
(107,519,qs),
(70,454,o),
(70,382,qs),
(70,331,o),
(89,291,qs),
(100,267,o),
(121,249,qs),
(156,220,o),
(205,217,q),
(179,177,o),
(179,141,qs),
(179,115,o)
);
}
);
width = 877;
}
);
note = or_bh_iikaar;
}
{
glyphname = or_na_phalaa;
layers = (
{
layerId = m01;
shapes = (
{
closed = 1;
nodes = (
(-192,-339,o),
(-171,-304,o),
(-180,-270,cs),
(-183,-261,o),
(-187,-253,o),
(-192,-247,c),
(-204,-228,o),
(-223,-208,o),
(-181,-167,cs),
(-142,-130,o),
(-71,-83,o),
(-42,-76,c),
(-38,-334,l),
(22,-334,l),
(22,-42,l),
(-21,-14,l),
(-81,-30,o),
(-150,-70,o),
(-180,-96,cs),
(-215,-123,o),
(-247,-153,o),
(-269,-182,cs),
(-291,-210,o),
(-316,-257,o),
(-303,-304,cs),
(-294,-337,o),
(-260,-357,o),
(-226,-348,cs)
);
}
);
width = 0;
}
);
note = or_na_phalaa;
}
{
glyphname = or_nga_phalaa;
layers = (
{
layerId = m01;
shapes = (
{
closed = 1;
nodes = (
(-100,-1,qs),
(-162,-16,o),
(-196,-58,qs),
(-226,-94,o),
(-226,-137,qs),
(-226,-173,o),
(-204,-202,qs),
(-194,-216,l),
(-181,-218,l),
(-188,-233,o),
(-188,-265,o),
(-183,-280,qs),
(-173,-311,o),
(-141,-335,qs),
(-113,-356,o),
(-38,-376,o),
(37,-376,o),
(109,-355,o),
(134,-333,qs),
(168,-304,o),
(173,-262,qs),
(175,-242,l),
(82,-214,l),
(106,-179,l),
(36,-133,l),
(-36,-243,l),
(76,-276,l),
(57,-318,o),
(-1,-318,qs),
(-19,-318,o),
(-57,-308,o),
(-70,-298,qs),
(-96,-279,o),
(-96,-249,qs),
(-96,-238,o),
(-91,-231,qs),
(-87,-225,o),
(-84,-224,qs),
(-59,-216,l),
(-59,-198,l),
(-59,-197,l),
(-59,-173,l),
(-97,-168,l),
(-128,-165,l),
(-133,-151,o),
(-133,-137,qs),
(-133,-108,o),
(-114,-84,qs),
(-86,-51,o),
(-35,-51,qs),
(-19,-51,o),
(-1,-55,qs),
(31,-63,o),
(60,-84,q),
(65,-120,o),
(126,-166,o),
(170,-166,qs),
(189,-166,o),
(208,-160,qs),
(239,-151,o),
(279,-104,o),
(279,-74,qs),
(279,-56,o),
(272,-40,qs),
(261,-16,o),
(238,-1,qs),
(208,18,o),
(128,18,o),
(97,-4,qs),
(88,-11,o),
(81,-18,q),
(25,7,o),
(-37,7,qs),
(-70,7,o)
);
},
{
closed = 1;
nodes = (
(169,-107,q),
(168,-107,o),
(166,-106,q),
(152,-95,o),
(151,-73,qs),
(152,-52,o),
(167,-42,qs),
(168,-41,o),
(170,-40,q),
(178,-45,o),
(182,-55,qs),
(187,-64,o),
(187,-70,qs),
(187,-90,o),
(177,-101,qs),
(173,-105,o)
);
},
{
closed = 1;
nodes = (
(168,-39,o),
(168,-39,l),
(168,-39,o)
);
}
);
width = 0;
}
);
note = or_nga_phalaa;
}
{
glyphname = or_pa_or_ra_phalaa.liga;
kernLeft = or_pa;
layers = (
{
anchors = (
{
name = bindu;
pos = (572,0);
},
{
name = bottom;
pos = (572,0);
},
{
name = nukta;
pos = (653,0);
},
{
name = top;
pos = (572,830);
}
);
backgroundImage = {
imagePath = "../../../pra.png";
pos = (13,0);
};
layerId = m01;
shapes = (
{
closed = 1;
nodes = (
(536,565,l),
(536,510,l),
(542,182,l),
(534,155,l),
(542,7,l),
(603,7,l),
(603,646,l),
(545,646,l)
);
},
{
closed = 1;
nodes = (
(543,85,l),
(536,119,l),
(517,79,l),
(522,77,l),
(537,82,l)
);
},
{
closed = 1;
nodes = (
(151,354,l),
(155,353,o),
(159,352,o),
(163,351,c),
(118,319,o),
(90,270,o),
(90,225,cs),
(90,87,o),
(190,0,o),
(349,0,cs),
(448,0,o),
(541,68,o),
(590,177,c),
(548,257,l),
(524,137,o),
(444,61,o),
(340,61,cs),
(222,61,o),
(150,123,o),
(156,222,cs),
(160,287,o),
(216,315,o),
(305,369,c),
(280,383,l)
);
},
{
closed = 1;
nodes = (
(600,561,o),
(497,672,o),
(360,672,cs),
(191,672,o),
(83,590,o),
(83,437,cs),
(83,376,o),
(125,340,o),
(185,340,cs),
(210,340,o),
(235,334,o),
(266,346,c),
(305,369,l),
(284,410,l),
(252,397,o),
(235,389,o),
(206,389,cs),
(175,389,o),
(153,405,o),
(153,437,cs),
(153,558,o),
(227,616,o),
(360,616,cs),
(455,616,o),
(534,535,o),
(536,480,cs),
(537,445,l),
(600,445,l),
(600,480,ls)
);
},
{
closed = 0;
nodes = (
(622,208,l)
);
},
{
closed = 1;
nodes = (
(134,-189,o),
(169,-189,o),
(203,-188,cs),
(318,-187,o),
(407,-220,o),
(515,-185,cs),
(554,-172,o),
(603,-137,o),
(603,-92,cs),
(603,8,l),
(542,8,l),
(538,-69,ls),
(537,-92,o),
(502,-129,o),
(493,-131,cs),
(398,-151,o),
(328,-131,o),
(201,-132,cs),
(167,-133,o),
(132,-134,o),
(98,-139,cs),
(70,-143,l),
(72,-191,l),
(100,-190,ls)
);
}
);
width = 673;
}
);
metricLeft = "=pa-oriya";
metricRight = "=pa-oriya";
note = or_pa;
}
{
glyphname = or_sh_ra;
layers = (
{
anchors = (
{
name = bottom;
pos = (588,129);
}
);
layerId = m01;
shapes = (
{
ref = "sha-oriya";
},
{
closed = 1;
nodes = (
(154,-138,o),
(189,-138,o),
(223,-137,cs),
(338,-136,o),
(427,-169,o),
(535,-134,cs),
(574,-121,o),
(623,-86,o),
(623,-41,cs),
(623,129,l),
(561,129,l),
(560,-41,ls),
(560,-56,o),
(531,-74,o),
(513,-80,cs),
(418,-111,o),
(348,-80,o),
(221,-81,cs),
(187,-82,o),
(152,-90,o),
(118,-91,cs),
(90,-92,l),
(92,-140,l),
(120,-139,ls)
);
}
);
width = 693;
}
);
}
{
glyphname = or_tta_phalaa;
layers = (
{
layerId = m01;
shapes = (
{
closed = 1;
nodes = (
(-64,-202,o),
(-53,-217,o),
(-53,-244,o),
(-61,-255,qs),
(-68,-265,o),
(-92,-278,o),
(-108,-278,qs),
(-121,-278,o),
(-143,-266,o),
(-151,-255,qs),
(-162,-240,o),
(-162,-221,qs),
(-162,-209,o),
(-158,-199,q),
(-145,-201,o),
(-129,-201,qs),
(-86,-199,ls),
(-78,-199,o)
);
},
{
closed = 1;
nodes = (
(-254,-252,o),
(-235,-279,qs),
(-219,-301,o),
(-193,-315,qs),
(-156,-336,o),
(-108,-336,qs),
(-89,-336,o),
(-71,-333,qs),
(-7,-321,o),
(24,-278,qs),
(39,-256,o),
(39,-229,qs),
(39,-204,o),
(24,-183,qs),
(1,-154,o),
(-45,-145,qs),
(-64,-142,o),
(-86,-142,qs),
(-129,-143,ls),
(-137,-143,o),
(-151,-141,o),
(-163,-125,o),
(-163,-112,qs),
(-163,-101,o),
(-157,-90,qs),
(-148,-70,o),
(-98,-42,o),
(-76,-42,qs),
(-26,-42,o),
(33,-112,qs),
(62,-146,o),
(84,-187,qs),
(95,-207,l),
(128,-207,l),
(143,-207,l),
(189,-207,l),
(189,106,l),
(96,106,l),
(96,-64,l),
(20,16,o),
(-76,16,qs),
(-134,16,o),
(-185,-13,qs),
(-229,-38,o),
(-246,-74,qs),
(-255,-93,o),
(-255,-112,qs),
(-255,-142,o),
(-235,-164,q),
(-254,-189,o)
);
}
);
width = 0;
}
);
note = or_tta_phalaa;
}
{
glyphname = or_ukaar.alt2;
layers = (
{
layerId = m01;
shapes = (
{
closed = 1;
nodes = (
(-76,-194,qs),
(-49,-161,o),
(-39,-114,q),
(-9,-142,o),
(23,-180,qs),
(69,-236,o),
(107,-299,qs),
(120,-321,l),
(189,-280,l),
(150,-214,o),
(101,-155,qs),
(34,-74,o),
(-33,-32,q),
(-36,22,o),
(-53,73,qs),
(-58,89,l),
(-139,61,l),
(-130,35,o),
(-125,7,q),
(-153,13,o),
(-181,13,qs),
(-259,13,o),
(-309,-30,qs),
(-335,-53,o),
(-348,-84,qs),
(-357,-107,o),
(-357,-131,qs),
(-357,-174,o),
(-329,-209,qs),
(-305,-239,o),
(-266,-252,qs),
(-241,-261,o),
(-180,-261,o),
(-151,-250,qs),
(-106,-233,o)
);
},
{
closed = 1;
nodes = (
(-155,-171,qs),
(-173,-194,o),
(-196,-203,qs),
(-204,-206,o),
(-218,-206,o),
(-224,-204,qs),
(-239,-199,o),
(-251,-184,qs),
(-269,-161,o),
(-269,-131,qs),
(-269,-114,o),
(-254,-76,o),
(-237,-62,qs),
(-214,-42,o),
(-181,-42,qs),
(-154,-42,o),
(-121,-58,q),
(-122,-128,o)
);
}
);
width = 348;
}
);
note = or_ukaar.alt2;
}
{
glyphname = or_yy_ukaar;
layers = (
{
layerId = m01;
shapes = (
{
closed = 1;
nodes = (
(550,-150,o),
(607,-184,q),
(574,-235,o),
(534,-267,qs),
(503,-293,o),
(470,-304,qs),
(450,-310,o),
(431,-310,qs),
(399,-310,o),
(374,-290,qs),
(348,-269,o),
(340,-236,qs),
(337,-225,o),
(337,-213,qs),
(337,-190,o),
(358,-147,o),
(403,-116,o),
(466,-116,o)
);
},
{
closed = 1;
nodes = (
(182,292,qs),
(209,228,o),
(266,204,q),
(164,170,o),
(73,114,qs),
(44,95,l),
(70,75,ls),
(94,57,o),
(127,57,qs),
(149,57,o),
(190,75,o),
(201,93,qs),
(206,102,o),
(208,111,q),
(269,142,o),
(333,161,q),
(332,153,o),
(332,144,qs),
(332,117,o),
(342,92,qs),
(365,32,o),
(431,1,qs),
(478,-21,o),
(536,-21,qs),
(553,-21,o),
(571,-19,qs),
(642,-10,o),
(698,29,q),
(670,-62,o),
(640,-125,q),
(597,-100,o),
(558,-85,qs),
(494,-59,o),
(434,-59,qs),
(363,-59,o),
(312,-93,qs),
(276,-117,o),
(259,-153,qs),
(245,-181,o),
(245,-213,qs),
(245,-229,o),
(248,-245,qs),
(260,-293,o),
(343,-359,o),
(403,-366,qs),
(417,-368,o),
(431,-368,qs),
(473,-368,o),
(513,-355,qs),
(564,-338,o),
(645,-271,o),
(677,-228,q),
(707,-246,o),
(729,-258,qs),
(890,-349,o),
(1050,-376,qs),
(1064,-378,l),
(1074,-320,l),
(935,-297,o),
(791,-215,qs),
(766,-202,o),
(714,-169,q),
(759,-87,o),
(799,53,q),
(795,60,ls),
(792,68,o),
(792,76,qs),
(792,91,o),
(801,100,qs),
(803,102,o),
(805,103,q),
(823,96,o),
(835,68,qs),
(844,48,o),
(844,22,qs),
(844,-13,o),
(828,-40,qs),
(814,-63,o),
(792,-74,qs),
(776,-82,l),
(776,-95,l),
(774,-114,l),
(774,-129,l),
(792,-138,ls),
(849,-166,o),
(913,-166,qs),
(923,-166,o),
(932,-165,qs),
(1027,-159,o),
(1093,-98,q),
(1043,-42,l),
(1017,-65,ls),
(971,-108,o),
(913,-108,qs),
(895,-108,o),
(876,-103,q),
(899,-85,o),
(914,-60,qs),
(936,-24,o),
(936,22,qs),
(936,56,o),
(922,88,qs),
(910,114,o),
(887,133,qs),
(852,161,o),
(805,161,qs),
(803,161,o),
(802,161,q),
(802,689,l),
(709,689,l),
(709,644,l),
(691,658,o),
(670,669,qs),
(599,706,o),
(433,706,o),
(350,664,qs),
(239,607,o),
(191,508,qs),
(163,450,o),
(163,388,qs),
(163,339,o)
);
},
{
closed = 1;
nodes = (
(432,184,q),
(469,190,o),
(506,192,qs),
(547,195,l),
(547,221,l),
(547,226,l),
(547,260,l),
(403,245,ls),
(384,243,o),
(368,243,qs),
(332,243,o),
(311,255,qs),
(287,269,o),
(271,307,qs),
(255,346,o),
(255,388,qs),
(255,442,o),
(279,491,qs),
(319,573,o),
(408,619,qs),
(466,648,o),
(518,648,qs),
(565,648,o),
(611,624,qs),
(674,591,o),
(709,526,q),
(709,525,l),
(709,184,l),
(707,176,ls),
(690,117,o),
(644,79,qs),
(603,44,o),
(553,38,qs),
(544,37,o),
(536,37,qs),
(509,37,o),
(486,47,qs),
(447,66,o),
(431,105,qs),
(424,124,o),
(424,144,qs),
(424,165,o)
);
}
);
width = 949;
}
);
note = or_yy_ukaar;
}
{
glyphname = "paTa-oriya";
layers = (
{
layerId = m01;
shapes = (
{
closed = 1;
nodes = (
(463,610,qs),
(529,583,o),
(570,521,q),
(570,233,l),
(534,221,o),
(509,195,qs),
(474,160,o),
(469,113,q),
(397,48,o),
(303,48,qs),
(244,48,o),
(209,73,qs),
(187,90,o),
(175,120,qs),
(167,140,o),
(167,162,qs),
(167,173,o),
(169,184,qs),
(185,265,o),
(299,311,qs),
(303,313,o),
(330,324,q),
(330,340,l),
(330,347,l),
(330,364,l),
(293,377,o),
(271,383,qs),
(228,397,o),
(193,415,o),
(181,428,qs),
(162,449,o),
(162,476,qs),
(162,528,o),
(228,573,qs),
(304,624,o),
(384,624,qs),
(425,624,o)
);
},
{
closed = 1;
nodes = (
(543,646,o),
(512,658,qs),
(452,682,o),
(384,682,qs),
(354,682,o),
(324,677,qs),
(236,663,o),
(160,612,qs),
(70,551,o),
(70,476,qs),
(70,434,o),
(100,401,qs),
(120,378,o),
(173,350,o),
(205,339,q),
(168,320,o),
(142,296,qs),
(89,250,o),
(78,191,qs),
(75,177,o),
(75,162,qs),
(75,133,o),
(85,106,qs),
(102,63,o),
(181,5,o),
(244,-5,qs),
(273,-10,o),
(303,-10,qs),
(374,-10,o),
(439,16,qs),
(462,25,o),
(483,37,q),
(494,14,o),
(514,-4,qs),
(540,-27,l),
(590,29,l),
(572,45,o),
(564,70,qs),
(560,84,o),
(560,98,qs),
(560,138,o),
(588,166,qs),
(607,185,o),
(631,185,qs),
(638,185,o),
(646,182,qs),
(667,175,o),
(682,156,qs),
(705,128,o),
(705,90,qs),
(705,31,o),
(647,-11,qs),
(622,-29,o),
(574,-50,qs),
(360,-141,o),
(128,-157,q),
(132,-215,l),
(138,-214,ls),
(393,-197,o),
(626,-97,qs),
(684,-73,o),
(717,-49,qs),
(766,-13,o),
(785,32,qs),
(797,60,o),
(797,90,qs),
(797,141,o),
(764,183,qs),
(737,217,o),
(691,233,qs),
(676,238,o),
(662,241,q),
(662,692,l),
(570,692,l),
(570,629,l)
);
}
);
width = 812;
}
);
note = or_p_ta;
}
{
glyphname = "paU-oriya";
layers = (
{
layerId = m01;
shapes = (
{
closed = 1;
nodes = (
(848,-46,ls),
(753,-77,o),
(650,-77,qs),
(645,-77,o),
(635,-77,q),
(641,-41,o),
(642,-4,qs),
(642,-3,l),
(642,692,l),
(550,692,l),
(550,623,l),
(525,642,o),
(497,656,qs),
(453,679,o),
(409,688,qs),
(379,694,o),
(311,694,o),
(275,685,qs),
(204,667,o),
(137,609,qs),
(51,536,o),
(51,460,qs),
(51,415,o),
(80,378,qs),
(98,355,o),
(125,338,q),
(100,313,o),
(87,294,qs),
(57,250,o),
(57,206,qs),
(57,195,o),
(58,186,qs),
(67,95,o),
(212,-14,o),
(326,-14,qs),
(423,-14,o),
(510,23,qs),
(522,28,o),
(544,43,qs),
(547,45,o),
(550,47,q),
(550,-3,ls),
(549,-36,o),
(543,-69,q),
(511,-65,o),
(434,-53,o),
(425,-52,qs),
(377,-44,o),
(349,-44,qs),
(282,-44,o),
(237,-74,qs),
(208,-94,o),
(196,-122,qs),
(187,-141,o),
(187,-177,o),
(191,-192,qs),
(200,-225,o),
(229,-251,qs),
(288,-307,o),
(405,-307,qs),
(428,-307,o),
(455,-301,qs),
(503,-292,o),
(570,-243,o),
(592,-204,qs),
(609,-175,o),
(621,-134,q),
(761,-140,o),
(891,-97,q),
(872,-38,l)
);
},
{
closed = 1;
nodes = (
(468,-229,qs),
(440,-249,o),
(398,-249,qs),
(337,-249,o),
(305,-219,qs),
(279,-195,o),
(279,-161,qs),
(279,-149,o),
(291,-123,o),
(316,-106,o),
(338,-102,o),
(366,-102,o),
(411,-109,o),
(497,-122,o),
(530,-126,q),
(507,-200,o)
);
},
{
closed = 1;
nodes = (
(545,520,qs),
(550,512,l),
(550,145,l),
(508,99,o),
(456,70,q),
(393,43,o),
(326,43,qs),
(255,43,o),
(212,76,qs),
(157,117,o),
(150,189,qs),
(149,197,o),
(149,204,qs),
(149,238,o),
(172,271,qs),
(184,288,o),
(209,314,qs),
(214,319,o),
(226,331,q),
(226,340,l),
(226,347,l),
(226,364,l),
(202,372,l),
(201,373,o),
(199,374,qs),
(177,385,o),
(163,403,qs),
(144,428,o),
(144,460,qs),
(144,517,o),
(211,575,qs),
(282,636,o),
(346,636,qs),
(364,636,o),
(408,627,o),
(438,612,qs),
(502,579,o)
);
}
);
width = 721;
}
);
note = or_p_ukaar;
}
{
glyphname = "pasign-oriya";
layers = (
{
layerId = m01;
shapes = (
{
closed = 1;
nodes = (
(12,-67,o),
(24,-102,qs),
(26,-109,l),
(26,-253,l),
(1,-272,o),
(-30,-287,qs),
(-67,-306,o),
(-95,-306,qs),
(-117,-306,o),
(-152,-280,o),
(-157,-259,qs),
(-159,-253,o),
(-159,-242,o),
(-158,-237,qs),
(-153,-218,o),
(-136,-212,qs),
(-128,-209,o),
(-104,-203,o),
(-89,-199,o),
(-59,-187,q),
(-59,-171,l),
(-59,-163,l),
(-59,-131,l),
(-120,-136,o),
(-137,-137,q),
(-147,-139,o),
(-155,-139,o),
(-156,-138,qs),
(-165,-130,o),
(-165,-112,qs),
(-165,-99,o),
(-159,-84,qs),
(-144,-50,o),
(-113,-32,qs),
(-94,-22,o),
(-73,-22,qs),
(-43,-22,o)
);
},
{
closed = 1;
nodes = (
(118,-350,l),
(118,-15,l),
(64,-15,l),
(61,-12,o),
(58,-9,qs),
(13,28,o),
(-48,35,qs),
(-61,36,o),
(-73,36,qs),
(-129,36,o),
(-174,11,qs),
(-226,-18,o),
(-248,-69,qs),
(-257,-92,o),
(-257,-112,qs),
(-257,-150,o),
(-229,-173,qs),
(-224,-177,o),
(-217,-181,q),
(-251,-206,o),
(-251,-248,qs),
(-251,-258,o),
(-249,-268,qs),
(-240,-305,o),
(-204,-331,qs),
(-159,-363,o),
(-97,-363,qs),
(-37,-363,o),
(26,-333,q),
(26,-350,l)
);
}
);
width = 0;
}
);
note = or_pa_phalaa;
}
{
glyphname = "phasign-oriya";
layers = (
{
layerId = m01;
shapes = (
{
closed = 1;
nodes = (
(125,-26,o),
(144,-9,o),
(156,-9,qs),
(171,-9,o),
(188,-27,qs),
(200,-39,o),
(205,-57,qs),
(208,-68,o),
(208,-87,o),
(206,-96,qs),
(202,-116,o),
(179,-140,o),
(168,-144,qs),
(164,-145,o),
(162,-145,qs),
(147,-145,o),
(119,-111,o),
(118,-88,qs),
(119,-34,l)
);
},
{
closed = 1;
nodes = (
(126,46,qs),
(87,38,o),
(59,15,qs),
(51,8,o),
(44,1,q),
(4,29,o),
(-48,35,qs),
(-60,36,o),
(-73,36,qs),
(-128,36,o),
(-174,11,qs),
(-226,-18,o),
(-248,-69,qs),
(-257,-91,o),
(-257,-112,qs),
(-257,-150,o),
(-229,-173,qs),
(-224,-177,o),
(-217,-181,q),
(-251,-207,o),
(-251,-248,qs),
(-251,-258,o),
(-249,-268,qs),
(-240,-305,o),
(-204,-331,qs),
(-159,-363,o),
(-97,-363,qs),
(-37,-363,o),
(26,-333,q),
(26,-350,l),
(118,-350,l),
(118,-197,l),
(122,-198,o),
(126,-199,qs),
(143,-203,o),
(187,-203,o),
(211,-195,qs),
(247,-183,o),
(270,-157,qs),
(300,-124,o),
(300,-79,qs),
(300,-32,o),
(265,5,qs),
(243,29,o),
(208,40,qs),
(183,49,o),
(156,49,qs),
(140,49,o)
);
},
{
closed = 1;
nodes = (
(12,-67,o),
(24,-102,qs),
(26,-109,l),
(26,-253,l),
(1,-272,o),
(-30,-287,qs),
(-67,-306,o),
(-95,-306,qs),
(-117,-306,o),
(-152,-280,o),
(-157,-259,qs),
(-159,-253,o),
(-159,-242,o),
(-158,-237,qs),
(-153,-218,o),
(-136,-212,qs),
(-128,-209,o),
(-104,-203,o),
(-90,-198,o),
(-59,-187,q),
(-59,-171,l),
(-59,-163,l),
(-59,-131,l),
(-119,-135,o),
(-137,-137,qs),
(-147,-139,o),
(-155,-139,o),
(-156,-138,qs),
(-165,-130,o),
(-165,-112,qs),
(-166,-99,o),
(-159,-84,qs),
(-144,-49,o),
(-113,-32,qs),
(-94,-22,o),
(-73,-22,qs),
(-43,-22,o)
);
}
);
width = 0;
}
);
note = or_pha_phalaa;
}
{
glyphname = "r_aasign-oriya";
layers = (
{
hints = (
{
name = _corner.tailBottom;
origin = (1,7);
type = Corner;
}
);
layerId = m01;
shapes = (
{
pos = (-20,0);
ref = "ga-oriya";
},
{
closed = 1;
nodes = (
(398,85,l),
(391,74,o),
(378,65,o),
(370,53,cs),
(349,22,o),
(356,-14,o),
(381,-30,c),
(608,-157,l),
(642,-109,l),
(425,17,l),
(425,22,l),
(425,23,o),
(435,34,o),
(449,53,c)
);
}
);
width = 692;
}
);
note = or_r_aakaar;
}
{
glyphname = "rasign-oriya";
layers = (
{
anchors = (
{
name = bottom;
pos = (-102,-10);
}
);
layerId = m01;
shapes = (
{
closed = 1;
nodes = (
(-536,-277,o),
(-501,-277,o),
(-467,-276,cs),
(-352,-275,o),
(-263,-308,o),
(-155,-273,cs),
(-116,-260,o),
(-67,-225,o),
(-67,-180,cs),
(-67,-10,l),
(-127,-10,l),
(-137,-180,ls),
(-138,-195,o),
(-159,-213,o),
(-177,-219,cs),
(-272,-250,o),
(-342,-219,o),
(-469,-220,cs),
(-503,-221,o),
(-538,-229,o),
(-572,-230,cs),
(-600,-231,l),
(-598,-279,l),
(-570,-278,ls)
);
}
);
width = 0;
}
);
note = or_ra_phalaa;
}
{
glyphname = "sKa-oriya";
layers = (
{
background = {
shapes = (
{
closed = 1;
nodes = (
(610,409,l),
(587,548,o),
(475,672,o),
(307,672,cs),
(152,672,o),
(57,580,o),
(57,465,cs),
(57,390,o),
(104,304,o),
(308,304,cs),
(358,304,o),
(419,317,o),
(452,326,c),
(438,368,l),
(142,213,l),
(159,159,l),
(485,331,l),
(467,381,l),
(389,362,o),
(347,357,o),
(308,357,cs),
(147,357,o),
(127,422,o),
(127,470,cs),
(127,561,o),
(198,616,o),
(307,616,cs),
(445,616,o),
(541,500,o),
(548,372,c)
);
}
);
};
layerId = m01;
shapes = (
{
closed = 1;
nodes = (
(549,197,l),
(608,197,l),
(608,646,l),
(544,646,l)
);
},
{
closed = 1;
nodes = (
(620,166,l),
(601,210,o),
(552,240,o),
(493,240,cs),
(415,240,o),
(348,191,o),
(348,127,cs),
(348,64,o),
(415,14,o),
(493,14,cs),
(552,14,o),
(601,45,o),
(620,89,c)
);
},
{
closed = 1;
nodes = (
(449,67,o),
(416,93,o),
(416,127,cs),
(416,161,o),
(449,187,o),
(494,187,cs),
(531,187,o),
(560,161,o),
(560,127,cs),
(560,93,o),
(531,67,o),
(494,67,cs)
);
},
{
closed = 1;
nodes = (
(688,-53,l),
(752,-53,l),
(754,146,ls),
(754,198,o),
(717,235,o),
(659,235,cs),
(596,235,o),
(564,194,o),
(564,146,cs),
(562,-53,l),
(625,-53,l),
(627,146,ls),
(627,167,o),
(639,181,o),
(658,181,cs),
(677,181,o),
(690,167,o),
(690,146,cs)
);
},
{
closed = 1;
nodes = (
(567,552,o),
(480,672,o),
(305,672,cs),
(186,672,o),
(52,604,o),
(52,453,cs),
(52,293,o),
(277,224,o),
(435,284,c),
(414,328,l),
(131,164,l),
(131,122,l),
(402,92,l),
(410,148,l),
(201,170,l),
(199,142,l),
(496,314,l),
(473,360,l),
(289,290,o),
(122,339,o),
(122,453,cs),
(122,568,o),
(215,616,o),
(305,616,cs),
(436,616,o),
(513,517,o),
(539,420,cs),
(548,386,l),
(608,401,l),
(599,434,ls)
);
}
);
width = 746;
}
);
note = or_s_ka;
}
{
glyphname = "sPha-oriya";
layers = (
{
layerId = m01;
shapes = (
{
closed = 1;
nodes = (
(416,410,o),
(420,411,q),
(403,470,l),
(380,463,ls),
(365,459,o),
(351,451,qs),
(329,441,o),
(309,425,qs),
(283,404,l),
(280,402,ls),
(245,383,o),
(213,403,qs),
(191,416,o),
(162,466,o),
(162,498,qs),
(162,525,o),
(173,550,qs),
(195,601,o),
(247,625,qs),
(315,655,o),
(389,622,qs),
(426,606,o),
(489,540,o),
(507,498,q),
(508,494,l),
(508,262,l),
(450,278,o),
(388,278,qs),
(340,278,o),
(298,267,qs),
(259,256,o),
(228,237,q),
(206,246,l),
(382,390,ls),
(394,400,o)
);
},
{
closed = 1;
nodes = (
(188,-59,qs),
(207,-83,o),
(238,-98,qs),
(276,-116,o),
(323,-116,qs),
(411,-116,o),
(506,-53,qs),
(518,-45,o),
(530,-37,q),
(600,-37,l),
(600,75,l),
(610,73,o),
(620,72,qs),
(628,71,o),
(637,71,qs),
(693,71,o),
(729,103,qs),
(747,119,o),
(762,156,o),
(762,173,qs),
(762,178,o),
(762,184,q),
(757,225,o),
(718,251,qs),
(684,274,o),
(638,274,qs),
(628,274,o),
(618,272,qs),
(609,271,o),
(600,269,q),
(600,693,l),
(508,693,l),
(508,629,l),
(478,653,o),
(442,669,qs),
(381,697,o),
(249,697,o),
(193,672,qs),
(114,637,o),
(84,565,qs),
(70,532,o),
(70,498,qs),
(70,456,o),
(92,418,qs),
(111,383,o),
(149,361,qs),
(175,346,o),
(204,339,q),
(96,251,l),
(99,239,l),
(101,230,l),
(104,217,l),
(175,189,l),
(171,183,o),
(168,177,qs),
(159,158,o),
(159,131,o),
(162,121,qs),
(171,92,o),
(203,73,q),
(164,45,o),
(164,4,qs),
(164,-30,o)
);
},
{
closed = 1;
nodes = (
(603,193,o),
(618,207,qs),
(628,216,o),
(638,216,qs),
(644,216,o),
(651,211,qs),
(670,198,o),
(670,170,qs),
(670,164,o),
(662,144,o),
(645,129,o),
(627,129,o),
(617,140,qs),
(603,153,o)
);
},
{
closed = 1;
nodes = (
(504,36,ls),
(473,9,o),
(439,-14,qs),
(372,-58,o),
(323,-58,qs),
(290,-58,o),
(270,-34,qs),
(256,-16,o),
(256,4,qs),
(256,21,o),
(270,33,qs),
(281,43,o),
(303,49,qs),
(331,57,l),
(331,76,l),
(331,80,l),
(331,105,l),
(291,108,ls),
(251,112,o),
(251,141,qs),
(251,162,o),
(274,182,qs),
(317,220,o),
(388,220,qs),
(450,220,o),
(508,197,q),
(508,40,l)
);
}
);
width = 788;
}
);
note = or_s_pha;
}
{
glyphname = "sasign-oriya";
layers = (
{
layerId = m01;
shapes = (
{
closed = 1;
nodes = (
(-149,6,o),
(-196,-21,qs),
(-244,-50,o),
(-258,-95,qs),
(-263,-110,o),
(-263,-126,qs),
(-263,-160,o),
(-242,-187,qs),
(-222,-212,o),
(-189,-223,q),
(-240,-271,l),
(-237,-282,l),
(-236,-286,l),
(-231,-306,l),
(127,-347,l),
(127,-24,l),
(38,-24,l),
(-21,6,o)
);
},
{
closed = 1;
nodes = (
(-51,-56,qs),
(-3,-70,o),
(35,-112,q),
(35,-278,l),
(-117,-260,l),
(-63,-209,l),
(-39,-195,l),
(-22,-184,l),
(-41,-110,l),
(-134,-169,ls),
(-140,-173,o),
(-142,-173,q),
(-151,-171,o),
(-159,-161,qs),
(-171,-147,o),
(-171,-124,qs),
(-171,-116,o),
(-168,-106,qs),
(-159,-79,o),
(-133,-63,qs),
(-112,-51,o),
(-86,-51,qs),
(-69,-51,o)
);
}
);
width = 0;
}
);
note = or_sa_phalaa;
}
{
glyphname = "tVa-oriya";
layers = (
{
layerId = m01;
shapes = (
{
closed = 1;
nodes = (
(775,-87,o),
(750,-90,qs),
(749,-90,o),
(748,-90,qs),
(728,-90,o),
(691,-52,o),
(686,-24,qs),
(684,-15,o),
(684,-6,qs),
(684,13,o),
(697,48,o),
(718,79,qs),
(727,93,o),
(731,100,qs),
(787,191,o),
(787,310,qs),
(787,339,o),
(783,369,qs),
(766,505,o),
(685,593,qs),
(637,645,o),
(499,705,o),
(421,705,qs),
(403,705,o),
(385,703,qs),
(248,690,o),
(157,591,qs),
(70,497,o),
(70,376,qs),
(70,310,o),
(105,276,qs),
(132,249,o),
(172,245,q),
(149,217,l),
(145,212,l),
(142,193,o),
(142,179,qs),
(142,143,o),
(172,74,o),
(205,45,qs),
(271,-14,o),
(368,-14,qs),
(395,-14,o),
(421,-8,qs),
(493,7,o),
(585,104,o),
(592,167,q),
(594,176,o),
(594,185,qs),
(594,235,o),
(559,263,qs),
(529,287,o),
(485,287,qs),
(474,287,o),
(463,285,qs),
(419,278,o),
(363,214,o),
(363,165,qs),
(363,151,o),
(367,134,qs),
(377,88,o),
(410,52,q),
(389,44,o),
(368,44,qs),
(319,44,o),
(280,78,qs),
(257,99,o),
(234,151,o),
(234,179,qs),
(234,187,o),
(235,195,q),
(322,299,l),
(316,310,l),
(315,313,l),
(296,350,l),
(188,303,l),
(186,304,o),
(183,307,qs),
(162,327,o),
(162,377,qs),
(162,427,o),
(202,525,o),
(270,598,o),
(313,620,qs),
(367,648,o),
(421,648,qs),
(469,648,o),
(568,605,o),
(605,564,qs),
(676,487,o),
(691,365,qs),
(695,337,o),
(695,310,qs),
(695,202,o),
(645,120,qs),
(641,114,o),
(632,101,qs),
(609,65,o),
(592,20,o),
(592,-6,qs),
(592,-19,o),
(594,-31,qs),
(602,-71,o),
(631,-101,qs),
(676,-147,o),
(748,-147,qs),
(756,-147,o),
(763,-147,qs),
(779,-145,o),
(794,-142,q),
(794,-187,l),
(886,-187,l),
(886,105,l),
(794,105,l),
(794,-61,l)
);
},
{
closed = 1;
nodes = (
(485,228,q),
(494,222,o),
(498,208,qs),
(501,196,o),
(501,178,o),
(500,171,qs),
(496,134,o),
(474,102,q),
(463,121,o),
(455,155,o),
(455,166,qs),
(455,199,o),
(473,219,qs),
(479,226,o)
);
}
);
width = 905;
}
);
note = or_t_va;
}
{
glyphname = "taKaRvocalicsign-oriya";
layers = (
{
layerId = m01;
shapes = (
{
closed = 1;
nodes = (
(159,288,qs),
(168,301,o),
(180,309,q),
(265,301,o),
(346,296,q),
(341,288,o),
(338,279,qs),
(331,260,o),
(329,240,q),
(329,202,l),
(305,177,o),
(276,163,qs),
(245,148,o),
(221,148,qs),
(201,148,o),
(165,171,o),
(143,212,o),
(143,235,qs),
(143,265,o)
);
},
{
closed = 1;
nodes = (
(558,-134,l),
(558,-134,l),
(506,-143,o),
(419,-175,o),
(393,-192,qs),
(359,-214,o),
(326,-273,o),
(326,-306,qs),
(326,-322,o),
(330,-338,qs),
(342,-385,o),
(383,-419,qs),
(441,-467,o),
(531,-467,qs),
(558,-467,o),
(589,-460,qs),
(651,-447,o),
(683,-413,qs),
(702,-393,o),
(708,-369,qs),
(710,-359,o),
(710,-333,o),
(703,-319,qs),
(690,-290,o),
(657,-274,qs),
(631,-262,o),
(561,-262,o),
(527,-279,qs),
(502,-291,o),
(452,-333,o),
(430,-359,q),
(414,-334,o),
(414,-306,qs),
(414,-258,o),
(457,-229,qs),
(474,-218,o),
(502,-208,qs),
(554,-189,o),
(609,-183,qs),
(646,-179,l),
(646,-156,l),
(646,-152,l),
(859,-196,ls),
(872,-199,o),
(892,-208,o),
(926,-228,q),
(959,-172,l),
(928,-154,o),
(890,-144,q),
(497,-63,l),
(587,30,l),
(587,78,l),
(673,116,o),
(721,195,qs),
(764,264,o),
(764,343,qs),
(764,436,o),
(710,515,qs),
(667,578,o),
(599,621,qs),
(538,660,o),
(465,676,qs),
(422,685,o),
(346,685,o),
(313,680,qs),
(238,667,o),
(114,584,o),
(80,524,qs),
(53,476,o),
(53,432,qs),
(53,397,o),
(70,368,qs),
(82,348,o),
(100,335,q),
(88,324,o),
(78,310,qs),
(55,276,o),
(55,235,qs),
(55,204,o),
(70,175,qs),
(88,141,o),
(122,120,qs),
(165,93,o),
(275,93,o),
(327,118,q),
(328,119,o),
(329,119,q),
(329,41,l),
(417,41,l),
(417,238,ls),
(418,253,o),
(423,266,qs),
(432,289,o),
(447,301,qs),
(454,307,o),
(461,308,q),
(467,307,o),
(476,298,qs),
(491,284,o),
(496,261,qs),
(499,248,o),
(499,235,q),
(499,235,l),
(499,45,l),
(402,-55,l),
(402,-63,l),
(402,-82,l),
(402,-102,l)
);
},
{
closed = 1;
nodes = (
(548,-344,qs),
(566,-330,o),
(590,-318,o),
(598,-317,o),
(602,-317,o),
(605,-319,qs),
(614,-323,o),
(622,-341,o),
(622,-350,qs),
(622,-369,o),
(607,-385,qs),
(592,-401,o),
(561,-408,qs),
(543,-412,o),
(508,-412,o),
(491,-406,q),
(516,-371,o)
);
},
{
closed = 1;
nodes = (
(178,365,q),
(172,367,o),
(166,372,q),
(166,373,l),
(165,372,l),
(158,378,o),
(152,389,qs),
(141,407,o),
(141,432,qs),
(141,466,o),
(163,505,qs),
(191,554,o),
(239,587,qs),
(304,630,o),
(382,630,qs),
(407,630,o),
(436,624,qs),
(489,612,o),
(537,582,qs),
(593,547,o),
(628,495,qs),
(676,425,o),
(676,343,qs),
(676,275,o),
(639,215,qs),
(617,179,o),
(587,154,q),
(587,234,ls),
(587,236,o),
(587,238,qs),
(587,254,o),
(583,269,qs),
(575,304,o),
(550,328,qs),
(514,363,o),
(461,363,qs),
(427,363,o),
(399,349,q),
(294,353,o)
);
}
);
width = 823;
}
);
note = or_t_k_ru;
}
{
glyphname = "taRasign-oriya";
layers = (
{
layerId = m01;
shapes = (
{
closed = 1;
nodes = (
(-129,-163,l)
);
},
{
closed = 1;
nodes = (
(18,-66,o),
(48,-52,q),
(48,-297,l),
(-289,-175,l),
(-309,-231,l),
(78,-372,l),
(90,-372,l),
(92,-372,l),
(136,-372,l),
(136,20,l),
(85,16,ls),
(65,14,o),
(45,9,qs),
(-28,-9,o),
(-128,-106,o),
(-145,-171,qs),
(-152,-196,l),
(-112,-202,ls),
(-106,-203,o),
(-89,-203,o),
(-78,-200,qs),
(-61,-195,o),
(-51,-184,qs),
(-44,-176,o),
(-42,-167,q),
(-42,-164,o),
(-42,-154,o),
(-46,-146,q),
(-30,-113,o)
);
}
);
width = 0;
}
);
note = or_t_ra_phalaa;
}
{
glyphname = "taRvocalic-oriya";
layers = (
{
layerId = m01;
shapes = (
{
closed = 1;
nodes = (
(650,-231,qs),
(620,-189,o),
(620,-133,qs),
(620,-119,o),
(622,-105,qs),
(629,-59,o),
(665,1,qs),
(673,14,o),
(717,83,o),
(729,107,qs),
(782,208,o),
(782,323,qs),
(782,346,o),
(780,369,qs),
(766,504,o),
(682,593,qs),
(624,654,o),
(540,682,qs),
(476,704,o),
(407,704,qs),
(313,704,o),
(234,666,qs),
(174,637,o),
(135,589,qs),
(70,509,o),
(70,391,qs),
(70,341,o),
(82,314,qs),
(91,292,o),
(106,277,qs),
(133,250,o),
(175,245,q),
(150,216,l),
(146,211,l),
(143,193,o),
(143,179,qs),
(143,143,o),
(173,75,o),
(206,46,qs),
(272,-13,o),
(367,-13,qs),
(394,-13,o),
(419,-7,qs),
(491,8,o),
(582,104,o),
(589,167,qs),
(590,176,o),
(590,185,qs),
(590,235,o),
(556,262,qs),
(527,285,o),
(484,285,qs),
(473,285,o),
(463,284,qs),
(420,277,o),
(364,214,o),
(364,165,qs),
(364,151,o),
(368,135,qs),
(378,87,o),
(412,51,q),
(390,42,o),
(367,42,qs),
(317,42,o),
(278,78,qs),
(254,99,o),
(231,151,o),
(231,179,qs),
(231,187,o),
(232,195,q),
(318,299,l),
(313,310,l),
(312,312,l),
(294,348,l),
(187,301,l),
(175,308,o),
(168,326,qs),
(158,348,o),
(158,391,qs),
(158,496,o),
(214,564,qs),
(273,637,o),
(378,648,qs),
(392,649,o),
(407,649,qs),
(454,649,o),
(497,634,qs),
(560,613,o),
(606,564,qs),
(680,487,o),
(692,365,qs),
(694,344,o),
(694,323,qs),
(694,217,o),
(646,124,qs),
(634,102,o),
(590,34,o),
(583,20,q),
(543,-46,o),
(534,-99,qs),
(532,-116,o),
(532,-133,qs),
(532,-201,o),
(570,-254,qs),
(615,-315,o),
(694,-333,qs),
(721,-340,o),
(750,-340,qs),
(806,-340,o),
(907,-291,o),
(934,-247,qs),
(956,-212,o),
(956,-173,qs),
(956,-161,o),
(953,-150,q),
(946,-109,o),
(915,-83,qs),
(880,-54,o),
(781,-54,o),
(745,-85,qs),
(725,-103,o),
(712,-129,qs),
(695,-165,o),
(695,-243,o),
(711,-278,q),
(674,-264,o)
);
},
{
closed = 1;
nodes = (
(783,-173,o),
(797,-145,qs),
(805,-127,o),
(825,-110,o),
(831,-109,qs),
(836,-109,o),
(844,-116,qs),
(861,-130,o),
(866,-156,qs),
(868,-165,o),
(868,-173,qs),
(868,-202,o),
(852,-227,qs),
(834,-257,o),
(801,-273,q),
(783,-241,o)
);
},
{
closed = 1;
nodes = (
(484,230,q),
(485,229,o),
(487,228,qs),
(496,221,o),
(500,206,qs),
(502,196,o),
(502,178,o),
(502,171,q),
(497,131,o),
(473,99,q),
(460,119,o),
(455,142,qs),
(452,155,o),
(452,166,qs),
(452,199,o),
(470,219,qs),
(476,227,o)
);
}
);
width = 867;
}
);
note = or_t_rukaar;
}
{
glyphname = "ttTta-oriya.alt";
layers = (
{
layerId = m01;
shapes = (
{
closed = 1;
nodes = (
(259,159,o),
(255,137,qs),
(249,102,o),
(234,78,qs),
(218,53,o),
(198,44,qs),
(190,41,o),
(184,41,qs),
(180,41,o),
(175,42,qs),
(151,50,o),
(139,79,qs),
(131,97,o),
(131,116,qs),
(131,135,o),
(140,156,qs),
(156,193,o),
(194,212,qs),
(223,227,o),
(262,229,q),
(261,206,ls)
);
},
{
closed = 1;
nodes = (
(409,186,qs),
(439,161,o),
(452,138,qs),
(465,116,o),
(465,95,qs),
(465,87,o),
(463,78,qs),
(456,49,o),
(434,40,q),
(429,37,o),
(426,37,qs),
(422,37,o),
(413,41,qs),
(399,49,o),
(387,65,qs),
(375,81,o),
(368,105,qs),
(359,135,o),
(359,201,qs),
(359,203,ls),
(359,212,o),
(359,221,q),
(385,205,o)
);
},
{
closed = 1;
nodes = (
(48,428,l),
(48,399,l),
(48,397,l),
(48,384,l),
(65,375,l),
(237,285,l),
(180,279,o),
(136,257,qs),
(75,226,o),
(51,171,qs),
(39,143,o),
(39,116,qs),
(39,89,o),
(50,64,qs),
(73,11,o),
(133,-9,qs),
(158,-17,o),
(184,-17,qs),
(218,-17,o),
(250,-3,qs),
(283,11,o),
(306,37,q),
(326,11,o),
(356,-4,qs),
(389,-20,o),
(426,-20,qs),
(458,-20,o),
(487,-8,qs),
(542,16,o),
(554,70,qs),
(557,83,o),
(557,95,qs),
(557,126,o),
(539,157,qs),
(522,188,o),
(482,221,qs),
(430,264,o),
(369,291,q),
(219,370,l),
(454,368,l),
(501,368,l),
(501,397,l),
(501,399,l),
(501,408,l),
(492,416,l),
(168,702,l),
(165,705,l),
(161,707,l),
(92,746,l),
(30,704,l),
(95,666,l),
(367,427,l),
(95,428,l)
);
}
);
width = 591;
}
);
note = or_tt_tta.alt;
}
{
glyphname = "uMatra-oriya.alt";
layers = (
{
layerId = m01;
shapes = (
{
closed = 1;
nodes = (
(-233,-281,o),
(-231,-332,o),
(-261,-351,cs),
(-282,-364,o),
(-310,-366,o),
(-332,-351,cs),
(-355,-335,o),
(-357,-310,o),
(-357,-301,cs),
(-357,-272,o),
(-341,-230,o),
(-303,-222,cs),
(-283,-218,o),
(-252,-223,o),
(-232,-228,c),
(-233,-176,l),
(-250,-174,o),
(-278,-172,o),
(-294,-172,cs),
(-363,-172,o),
(-403,-224,o),
(-414,-268,cs),
(-425,-310,o),
(-419,-361,o),
(-363,-393,cs),
(-300,-429,o),
(-238,-406,o),
(-214,-382,cs),
(-180,-348,o),
(-173,-294,o),
(-173,-260,c),
(-119,-277,o),
(-61,-300,o),
(-9,-316,cs),
(55,-336,o),
(151,-329,o),
(176,-321,cs),
(202,-313,l),
(182,-263,l),
(156,-271,ls),
(137,-277,o),
(63,-282,o),
(11,-266,cs),
(-41,-250,o),
(-108,-223,o),
(-173,-204,c),
(-173,-70,l),
(-239,-70,l)
);
}
);
width = 0;
}
);
}
{
glyphname = "uusign-oriya";
layers = (
{
layerId = m01;
shapes = (
{
closed = 1;
nodes = (
(112,-288,l),
(-117,-208,l),
(-141,-208,l),
(-173,-268,o),
(-195,-314,o),
(-267,-318,cs),
(-285,-319,o),
(-313,-308,o),
(-326,-281,cs),
(-339,-250,o),
(-325,-207,o),
(-311,-197,cs),
(-275,-171,o),
(-257,-171,o),
(-219,-144,cs),
(-190,-124,o),
(-165,-96,o),
(-148,-76,cs),
(-128,-53,l),
(-162,-30,l),
(-189,-51,ls),
(-211,-68,o),
(-239,-88,o),
(-257,-100,cs),
(-300,-131,o),
(-311,-127,o),
(-349,-155,cs),
(-395,-188,o),
(-408,-246,o),
(-388,-298,cs),
(-371,-341,o),
(-314,-373,o),
(-263,-370,cs),
(-177,-366,o),
(-133,-314,o),
(-107,-270,c),
(87,-337,ls),
(103,-342,o),
(123,-347,o),
(143,-351,cs),
(169,-356,l),
(181,-317,l)
);
}
);
width = 0;
}
);
note = or_uukaar;
}
{
glyphname = "vasign-oriya";
layers = (
{
layerId = m01;
shapes = (
{
closed = 1;
nodes = (
(-76,-170,ls),
(-84,-172,o),
(-91,-172,qs),
(-111,-172,o),
(-130,-153,qs),
(-145,-139,o),
(-152,-117,qs),
(-156,-103,o),
(-156,-91,qs),
(-156,-40,o),
(-121,-11,q),
(-166,43,l),
(-191,22,ls),
(-244,-22,o),
(-244,-92,qs),
(-244,-108,o),
(-238,-127,qs),
(-228,-159,o),
(-204,-183,qs),
(-159,-227,o),
(-88,-227,qs),
(-64,-227,o),
(-39,-220,qs),
(-28,-217,l),
(-28,-312,l),
(60,-312,l),
(60,0,l),
(-28,0,l),
(-28,-157,l)
);
}
);
width = 0;
}
);
note = or_va_phalaa;
}
{
glyphname = "yyasign-oriya";
layers = (
{
layerId = m01;
shapes = (
{
closed = 1;
nodes = (
(270,251,o),
(244,239,o),
(217,239,cs),
(164,239,o),
(117,305,o),
(153,361,cs),
(170,389,l),
(111,419,l),
(93,391,ls),
(27,287,o),
(115,183,o),
(217,183,cs),
(271,183,o),
(316,212,o),
(349,251,cs),
(370,276,l),
(321,312,l),
(300,287,ls)
);
},
{
closed = 1;
nodes = (
(308,17,l),
(370,17,l),
(370,506,l),
(308,506,l)
);
},
{
closed = 1;
nodes = (
(230,462,o),
(206,481,o),
(180,480,cs),
(145,475,o),
(124,439,o),
(102,404,c),
(97,319,l),
(133,383,o),
(148,385,o),
(166,382,cs),
(175,380,o),
(180,378,o),
(187,378,cs),
(214,381,o),
(234,407,o),
(231,435,cs)
);
}
);
width = 419;
}
);
note = or_yya_phalaa;
}
